<?xml version="1.0" encoding="utf-8"?>
<!-- Generator: Adobe Illustrator 26.0.1, SVG Export Plug-In . SVG Version: 6.00 Build 0)  -->
<svg version="1.1" id="Layer_1" xmlns="http://www.w3.org/2000/svg" xmlns:xlink="http://www.w3.org/1999/xlink" x="0px" y="0px"
	 viewBox="0 0 69.5 82.1" style="enable-background:new 0 0 69.5 82.1;" xml:space="preserve">
<style type="text/css">
	.st0{fill:#FFFFFF;}
	.st1{fill-rule:evenodd;clip-rule:evenodd;fill:#fdff75;}
	.st2{fill:#1F1F1F;}
</style>
<path class="st0" d="M69.2,82h-2.1h-0.1l0,0l-2.5-3.1L63.4,80v1.9V82h-0.1h-1.7h-0.1v-0.1V71.6v-0.1h0.1h1.7h0.1v0.1v5.9l3.4-3.1
	l0.1,0h2.1h0.3L69,74.6l-3,3l3.3,4.2l0.1,0.2H69.2z M54.4,74.6c0.4-0.2,1-0.3,1.5-0.3c1,0,1.8,0.3,2.4,0.9c0.5,0.5,0.8,1.4,0.8,2.5
	v4.2V82H59h-1.7h-0.1v-0.1v-4c0-0.6-0.1-1.1-0.4-1.4C56.4,76.2,56,76,55.5,76c-0.6,0-1.1,0.2-1.4,0.6c-0.3,0.4-0.5,0.9-0.5,1.6v3.7
	V82h-0.1h-1.7h-0.1v-0.1v-7.4v-0.1h0.1h1.6h0.1v0.1v0.7C53.7,74.9,54,74.7,54.4,74.6z M49,82h-1.7h-0.1v-0.1v-7.4v-0.1h0.1H49h0.1
	v0.1v7.4V82H49z M49.1,73.1c-0.2,0.2-0.5,0.3-0.9,0.3c-0.3,0-0.6-0.1-0.9-0.3c-0.2-0.2-0.4-0.5-0.4-0.8s0.1-0.6,0.4-0.8
	c0.2-0.2,0.5-0.3,0.9-0.3c0.3,0,0.6,0.1,0.9,0.3c0.2,0.2,0.4,0.5,0.4,0.8C49.4,72.5,49.3,72.8,49.1,73.1z M42.2,79.7l1.9-5.2l0-0.1
	h0.1h1.5h0.2l-0.1,0.1l-2.7,7.4l0,0.1H43h-1.7h-0.1l0-0.1l-1.8-4.8l-1.8,4.8l0,0.1h-0.1h-1.7h-0.1l0-0.1L33,74.5L33,74.4h0.2h1.6
	h0.1l0,0.1l1.8,5.2l1.9-5.2l0-0.1h0.1h1.5h0.1l0,0.1L42.2,79.7z M27.2,74.6c0.4-0.2,1-0.3,1.5-0.3c1,0,1.8,0.3,2.4,0.9
	c0.5,0.5,0.8,1.4,0.8,2.5v4.2V82h-0.1H30h-0.1v-0.1v-4c0-0.6-0.1-1.1-0.4-1.4c-0.3-0.3-0.7-0.5-1.2-0.5c-0.6,0-1.1,0.2-1.4,0.6
	c-0.3,0.4-0.5,0.9-0.5,1.6v3.7V82h-0.1h-1.7h-0.1v-0.1v-7.4v-0.1h0.1h1.6h0.1v0.1v0.7C26.5,74.9,26.8,74.7,27.2,74.6z M21.8,82h-1.7
	H20v-0.1v-7.4v-0.1h0.1h1.7h0.1v0.1v7.4V82H21.8z M21.8,73.1c-0.2,0.2-0.5,0.3-0.9,0.3c-0.3,0-0.6-0.1-0.9-0.3
	c-0.2-0.2-0.4-0.5-0.4-0.8s0.1-0.6,0.4-0.8c0.2-0.2,0.5-0.3,0.9-0.3c0.3,0,0.6,0.1,0.9,0.3c0.2,0.2,0.4,0.5,0.4,0.8
	C22.2,72.5,22.1,72.8,21.8,73.1z M12.6,79.8c0.4,0.4,0.9,0.6,1.5,0.6c0.6,0,1.1-0.2,1.5-0.6c0.4-0.4,0.6-0.9,0.6-1.6
	c0-0.7-0.2-1.2-0.6-1.6c-0.4-0.4-0.9-0.6-1.5-0.6c-0.6,0-1.1,0.2-1.5,0.6C12.3,77,12,77.5,12,78.2C12,78.9,12.3,79.4,12.6,79.8z
	 M17,81c-0.7,0.7-1.7,1.1-2.9,1.1c-1.2,0-2.2-0.4-2.9-1.1c-0.7-0.7-1.1-1.7-1.1-2.8c0-1.1,0.4-2.1,1.1-2.8c0.7-0.7,1.7-1.1,2.9-1.1
	c1.2,0,2.2,0.4,2.9,1.1c0.7,0.7,1.1,1.7,1.1,2.8C18.2,79.3,17.7,80.3,17,81z M7.5,81.7c-0.7,0.3-1.4,0.4-2.2,0.4
	c-1.5,0-2.8-0.5-3.8-1.4C0.6,79.8,0,78.5,0,77c0-1.5,0.6-2.7,1.5-3.6C2.4,72.5,3.8,72,5.3,72c0.8,0,1.6,0.1,2.2,0.4
	c0.7,0.3,1.2,0.7,1.7,1.2l0.1,0.1l-0.1,0.1L8,74.9L8,74.9l-0.1-0.1c-0.3-0.4-0.7-0.6-1.1-0.8c-0.4-0.2-0.9-0.3-1.4-0.3
	c-1,0-1.8,0.3-2.4,0.9C2.4,75.3,2,76.1,2,77c0,1,0.3,1.8,0.9,2.4c0.6,0.6,1.4,0.9,2.4,0.9c0.5,0,1-0.1,1.4-0.3
	c0.4-0.2,0.8-0.5,1.1-0.8L8,79.1L8,79.2l1.2,1.1l0.1,0.1l-0.1,0.1C8.7,81,8.2,81.4,7.5,81.7z"/>
<path class="st1" d="M33.9,0c16.9,0,30.7,13.7,30.7,30.7c0,16.9-13.7,30.7-30.7,30.7c-16.9,0-30.7-13.7-30.7-30.7
	C3.2,13.7,16.9,0,33.9,0"/>
<path class="st2" d="M55.8,30.7c0-12.1-9.8-21.9-21.9-21.9c-6.1,0-11.5,2.5-15.5,6.4c-4,4-6.4,9.5-6.4,15.5s2.5,11.5,6.4,15.5
	c4,4,9.5,6.4,15.5,6.4C46,52.6,55.8,42.8,55.8,30.7 M44.2,36.2c0,2.8-1.2,5.4-3,7.3c-1.9,1.9-4.4,3-7.3,3c-2.8,0-5.4-1.2-7.3-3
	c-1.9-1.9-3-4.4-3-7.3h2.6c0,2.1,0.9,4,2.2,5.4c1.4,1.4,3.3,2.2,5.4,2.2c2.1,0,4-0.9,5.4-2.2c1.4-1.4,2.2-3.3,2.2-5.4H44.2z
	 M19.9,27.3l4.1-3.5l0.8-0.7l0.8,0.7l4.1,3.5l-1.7,2l-3.3-2.7l-3.3,2.7L19.9,27.3z M42.9,23.6c1.4,0,2.6,1.1,2.6,2.6
	s-1.1,2.6-2.6,2.6c-1.4,0-2.6-1.1-2.6-2.6S41.4,23.6,42.9,23.6z M33.9,6.6C47.2,6.6,58,17.4,58,30.7C58,44,47.2,54.8,33.9,54.8
	c-6.7,0-12.7-2.7-17.1-7.1c-4.4-4.4-7.1-10.4-7.1-17.1c0-6.7,2.7-12.7,7.1-17.1C21.2,9.3,27.2,6.6,33.9,6.6z"/>
</svg>
