<?xml version="1.0" encoding="utf-8"?>
<!-- Generator: Adobe Illustrator 26.0.1, SVG Export Plug-In . SVG Version: 6.00 Build 0)  -->
<svg version="1.1" id="Layer_1" xmlns="http://www.w3.org/2000/svg" xmlns:xlink="http://www.w3.org/1999/xlink" x="0px" y="0px"
	 viewBox="0 0 168.4 61.4" style="enable-background:new 0 0 168.4 61.4;" xml:space="preserve">
<style type="text/css">
	.st0{fill:#FFFFFF;}
	.st1{fill-rule:evenodd;clip-rule:evenodd;fill:#fdff75;}
	.st2{fill:#1F1F1F;}
</style>
<path class="st0" d="M165.4,38.1h2.9l-4.7-6l4.3-4.3h-2.9l-5,4.6v-8.7h-2.4v14.4h2.4v-2.7l1.8-1.7L165.4,38.1z M149.7,27.6
	c-1.5,0-2.8,0.5-3.6,1.5v-1.3h-2.3v10.3h2.4v-5.2c0-2.1,1.2-3.1,2.9-3.1c1.5,0,2.5,0.9,2.5,2.7v5.6h2.4v-5.9
	C154,29,152.2,27.6,149.7,27.6z M137.7,38.1h2.4V27.7h-2.4V38.1z M138.9,26c0.9,0,1.5-0.7,1.5-1.5c0-0.8-0.7-1.4-1.5-1.4
	c-0.9,0-1.5,0.6-1.5,1.5S138,26,138.9,26z M133.3,27.7l-2.8,7.7l-2.8-7.7h-2l-2.8,7.6l-2.7-7.6h-2.3l3.8,10.3h2.3l2.7-7.1l2.7,7.1
	h2.3l3.8-10.3H133.3z M111.6,27.6c-1.5,0-2.8,0.5-3.6,1.5v-1.3h-2.3v10.3h2.4v-5.2c0-2.1,1.2-3.1,2.9-3.1c1.5,0,2.5,0.9,2.5,2.7v5.6
	h2.4v-5.9C115.9,29,114.1,27.6,111.6,27.6z M99.6,38.1h2.4V27.7h-2.4V38.1z M100.8,26c0.9,0,1.5-0.7,1.5-1.5c0-0.8-0.7-1.4-1.5-1.4
	s-1.5,0.6-1.5,1.5S99.9,26,100.8,26z M91.2,36.1c-1.7,0-3.1-1.3-3.1-3.2c0-2,1.3-3.2,3.1-3.2c1.8,0,3.1,1.3,3.1,3.2
	C94.3,34.9,92.9,36.1,91.2,36.1z M91.2,38.2c3.2,0,5.5-2.2,5.5-5.3c0-3.1-2.3-5.3-5.5-5.3c-3.2,0-5.5,2.2-5.5,5.3
	C85.7,36,88,38.2,91.2,38.2z M78.8,38.2c2.2,0,4.1-0.8,5.4-2.3l-1.6-1.5c-1,1.1-2.2,1.6-3.6,1.6c-2.8,0-4.8-2-4.8-4.8
	c0-2.8,2-4.8,4.8-4.8c1.4,0,2.6,0.5,3.6,1.6l1.6-1.5c-1.3-1.5-3.2-2.3-5.4-2.3c-4.2,0-7.3,2.9-7.3,7C71.6,35.3,74.7,38.2,78.8,38.2z
	"/>
<path class="st1" d="M30.7,0c16.9,0,30.7,13.7,30.7,30.7c0,16.9-13.7,30.7-30.7,30.7C13.7,61.4,0,47.6,0,30.7C0,13.7,13.7,0,30.7,0"
	/>
<path class="st2" d="M52.6,30.7c0-12.1-9.8-21.9-21.9-21.9c-6.1,0-11.5,2.5-15.5,6.4c-4,4-6.4,9.5-6.4,15.5c0,6.1,2.5,11.5,6.4,15.5
	c4,4,9.5,6.4,15.5,6.4C42.8,52.6,52.6,42.8,52.6,30.7 M41,36.2c0,2.8-1.2,5.4-3,7.3c-1.9,1.9-4.4,3-7.3,3c-2.8,0-5.4-1.2-7.3-3
	c-1.9-1.9-3-4.4-3-7.3H23c0,2.1,0.9,4,2.2,5.4c1.4,1.4,3.3,2.2,5.4,2.2c2.1,0,4-0.9,5.4-2.2c1.4-1.4,2.2-3.3,2.2-5.4H41z M16.7,27.3
	l4.1-3.5l0.8-0.7l0.8,0.7l4.1,3.5l-1.7,2l-3.3-2.7l-3.3,2.7L16.7,27.3z M39.7,23.6c1.4,0,2.6,1.1,2.6,2.6s-1.1,2.6-2.6,2.6
	c-1.4,0-2.6-1.1-2.6-2.6S38.3,23.6,39.7,23.6z M30.7,6.6c13.3,0,24.1,10.8,24.1,24.1C54.8,44,44,54.8,30.7,54.8
	c-6.7,0-12.7-2.7-17.1-7.1c-4.4-4.4-7.1-10.4-7.1-17.1c0-6.7,2.7-12.7,7.1-17.1C18,9.3,24,6.6,30.7,6.6z"/>
</svg>
