<?xml version="1.0" standalone="no"?>
<!DOCTYPE svg PUBLIC "-//W3C//DTD SVG 20010904//EN"
 "http://www.w3.org/TR/2001/REC-SVG-20010904/DTD/svg10.dtd">
<svg version="1.0" xmlns="http://www.w3.org/2000/svg"
 width="16.000000pt" height="16.000000pt" viewBox="0 0 16.000000 16.000000"
 preserveAspectRatio="xMidYMid meet">
<metadata>
Created by potrace 1.11, written by Peter Selinger 2001-2013
</metadata>
<g transform="translate(0.000000,16.000000) scale(0.013333,-0.013333)"
fill="#000000" stroke="none">
<path d="M527 1030 c-204 -35 -350 -240 -317 -445 42 -261 322 -405 559 -288
183 89 267 320 183 505 -74 164 -249 258 -425 228z m188 -77 c35 -11 68 -34
111 -77 71 -71 98 -136 98 -231 0 -95 -27 -160 -98 -231 -71 -71 -136 -98
-231 -98 -95 0 -160 27 -231 98 -45 45 -66 75 -79 116 -24 69 -24 160 -1 227
19 57 86 139 140 172 81 50 188 59 291 24z"/>
<path d="M684 832 c-18 -12 -34 -49 -34 -80 0 -33 34 -82 56 -82 29 0 54 38
54 83 0 65 -38 105 -76 79z"/>
<path d="M356 777 c-41 -30 36 -107 106 -107 33 0 86 35 100 66 11 23 10 28
-7 40 -17 13 -22 11 -46 -16 -35 -38 -65 -38 -104 0 -27 26 -33 28 -49 17z"/>
<path d="M350 606 c-18 -22 18 -93 73 -143 43 -40 121 -73 172 -73 51 0 129
33 172 73 55 50 91 121 73 143 -21 24 -38 16 -58 -28 -32 -73 -113 -128 -187
-128 -74 0 -155 55 -187 128 -20 44 -37 52 -58 28z"/>
</g>
</svg>
