<svg version="1" xmlns="http://www.w3.org/2000/svg" width="1066.667" height="1066.667" viewBox="0 0 800.000000 800.000000"><path d="M379.6 15.3c.3 1 .9 1.5 1.2 1.2.3-.3 0-1.1-.7-1.8-1-.9-1.1-.8-.5.6zM407 17.7c0 .6.8 1.7 1.8 2.4 1.6 1.3 1.6 1.3.2-.6-.8-1.1-1.6-2.2-1.7-2.4-.2-.2-.3 0-.3.6zM411.6 18.7c-.6 1.4-.5 1.5.5.6.7-.7 1-1.5.7-1.8-.3-.3-.9.2-1.2 1.2zM459.5 18.9c-.3.5-.2 1.2.3 1.5.5.3.9-.1.9-.9 0-1.7-.3-1.9-1.2-.6zM385.5 20c.3.5.8 1 1.1 1 .2 0 .4-.5.4-1 0-.6-.5-1-1.1-1-.5 0-.7.4-.4 1zM393.5 20c.3.5.8 1 1.1 1 .2 0 .4-.5.4-1 0-.6-.5-1-1.1-1-.5 0-.7.4-.4 1zM362 22c-.9.6-1 1-.3 1 .6 0 1.5-.5 1.8-1 .8-1.2.4-1.2-1.5 0zM365.6 21.8c-.2.4-.1 1.4.4 2.2.7 1.1.9.9.7-.8-.1-2.4-.3-2.6-1.1-1.4zM421.4 23.1c-.3.6-.2 1.5.3 2s.9.1.9-1.1c0-2.3-.2-2.4-1.2-.9zM313 23.4c0 .2.7.7 1.6 1 .8.3 1.2.2.9-.4-.6-1-2.5-1.4-2.5-.6zM346.6 24.2c.3.5 1 .6 1.5.3 1.3-.9 1.1-1.2-.6-1.2-.8 0-1.2.4-.9.9zM353 24.1c0 .5.5.7 1 .4.6-.3 1-.8 1-1.1 0-.2-.4-.4-1-.4-.5 0-1 .5-1 1.1zM433 23.9c0 .6.4 1.3 1 1.6.6.3.7-.1.4-.9-.7-1.8-1.4-2.1-1.4-.7z"/><path d="M399.7 25.7c.6 1.5.4 1.6-.9.6-.8-.7-1.8-1-2.1-.6-1 .9-7.7.9-7.7-.1 0-.5-.6-.4-1.3.3-1 .8-1.7.7-2.7-.2-.7-.6-1-.7-.7-.1.4.7-1.7 1-6.4 1-3.8-.1-6.9.2-6.9.5 0 .8-3.3.5-4.9-.6-1-.6-1.2-.4-.6.4.5.9 0 1.2-1.6 1-1.3-.2-3 0-3.6.4-1.2.8-1.8-.4-1.4-2.6.1-.5-.3-.6-.8-.2-.6.3-.7 1.3-.4 2.3.3.9.3 1.4-.1 1.1-.4-.4-2.8-.2-5.4.3-2.6.5-6.9 1.1-9.5 1.4-2.7.3-5.9.9-7.2 1.4-1.6.6-2.7.6-3.1-.1-.4-.7-.9-.7-1.3-.2-.9 1.5-9.3 3.4-8.4 1.9.4-.7.2-.7-.8.1-1.6 1.3-14.2 4.6-17.1 4.5-1 0-1.8.3-1.8.9 0 .5-.5.9-1.1.9-.6 0-.9-.8-.5-1.8.4-1.1 0-.9-1 .5-1.7 2.4-4 3.2-2.9 1 .4-.6.1-.5-.7.4-.7.9-1.5 1.6-1.8 1.6-.3-.1-2.9.7-5.8 1.6-2.9 1-5.8 1.5-6.4 1.1-.7-.4-.8-.3-.4.4s.1 1.3-.8 1.3c-1.7.2-3.3.5-4.1.9-.3.1-.8.3-1.2.5-.5.1-2.1.7-3.8 1.4-6.7 2.8-7.2 3-8.4 1.8-.9-.9-1.1-.8-.5.7.5 1.4.3 1.7-1.2 1.4-1-.2-1.8-1-1.6-1.7.1-.7-.2-1-.8-.6-.8.5-.8 1.1 0 2 .8.9.6 1.4-.6 1.9-.9.3-2.1.3-2.6-.1-.6-.3-.8-.2-.5.3.3.6-.7 1.5-2.4 2.1-2.4.9-3.1.8-3.9-.5-.9-1.4-1-1.3-.5.5.4 1.6.1 2.3-1.4 2.8-1.2.3-2.5.4-3 0-.5-.3-1.3 0-1.7.6-.4.8-.3.9.4.5s1.2-.4 1.2-.1c0 .7-5 2.6-6.4 2.4-.5 0-1.2.5-1.7 1.2-.4.7-1.5 1.4-2.5 1.5-.9.2-2 .7-2.3 1.1-1.1 1.6-9.2 5.4-10.2 4.8-.5-.4-.9 0-.9.8 0 1.7-4.7 4-6.2 3.1-.7-.5-.8-.2-.3.6.6 1 .4 1.2-.8.7-.9-.3-1.9-.1-2.3.5-.5.7-.2.8.7.3 1.2-.8 1.2-.6 0 .8-.7.9-1.7 1.4-2.2 1.1-.5-.3-.9 0-.9.6 0 .7-.7.9-1.6.6-.8-.3-1.2-.2-.9.4.3.6-.4 1.5-1.7 2-2.9 1.2-5.6 3-8.2 5.2-1.9 1.7-3.1 2.2-4.9 1.9-.4 0-.6.3-.5.8.4 1.3-8.1 7.3-9.2 6.6-.6-.4-1 0-1 .7s-2.7 3.3-6 5.8c-3.3 2.4-6 4.9-6 5.4s-.2.7-.5.4c-.3-.3-1.8.6-3.4 2.1-7.4 7-11.8 10.8-13.4 11.4-.9.3-1.7 1.4-1.7 2.3 0 1-.5 1.4-1.5 1-.8-.3-1.4 0-1.2.7.1.7-.4 1.1-1.1.9-.8-.1-1.1.2-.8.7.4.5.1 1.3-.6 1.8-.7.4-3.9 3.6-7 6.9-3.1 3.4-6 5.9-6.3 5.6-.3-.3-.5.1-.5.9s-2.5 4.1-5.5 7.4c-3 3.2-5.5 6.3-5.5 6.7 0 .4-.7.8-1.6.8-.8 0-1.2.4-.9 1 .6 1-.9 1.5-3 1-.5-.1-.5.4.2 1.1.9.9.4 2.1-2.4 5.5-2 2.4-4.1 4-4.6 3.7-.6-.3-.7-.1-.3.5.6 1-2.8 6.7-5.4 9.2-.3.3-1.6 2.2-3 4.2-1.4 2.1-2.9 3.8-3.3 3.8-.5 0-.6.4-.3.9s-.1 1.4-.9 2.1c-.8.7-1.5 1.8-1.5 2.5s-1.1 2.4-2.5 3.9c-1.3 1.4-2.4 3-2.4 3.4 0 .4-1 2.4-2.2 4.5-2.1 3.8-2.1 3.8-4.3 2-2.1-1.8-2.1-1.8-.3.4 1.8 2 1.8 2.2-.3 6.2-2 3.9-2.6 4.4-6.1 4.4-.9 0-1.6.6-1.6 1.3 0 .7.5 1 1.1.6 1.5-.9 3.8-1.2 3.4-.4-4.6 9.4-6.6 12.9-7.8 14-.8.8-1 1.1-.3.8.8-.5.8 0 0 1.9-.7 1.4-1.6 2.5-2 2.5-.5 0-.5.4-.2 1 .3.5.2 1-.3 1-.6 0-.9.8-.8 1.7.1 1.3-.6 1.8-2.1 1.7-1.3-.1-2 .3-1.7.7.3.5 1 .7 1.5.4.5-.4.9.1.9 1 0 1-.5 1.3-1.2.9-.6-.4-.8-.3-.5.3.8 1.3-1.2 7.5-2.7 8.5-.5.4-1.4.4-2 .1-.5-.3-.6-.1-.2.6.4.6 1.3.8 1.9.4.8-.5.8-.2 0 .9-.7.8-.9 1.9-.5 2.3.4.5-.1.5-1 .2-1-.3-2-.1-2.4.5-.4.6-.3.8.4.4.6-.3 1.3-.2 1.7.3.5 1 .3 1.8-2.3 6.8-.6 1.2-1.4 3.7-1.7 5.5-.3 1.8-1 3.7-1.5 4.4-.6.6-.7 1.4-.3 1.7.3.4.2.7-.3.7s-1 1.4-1.1 3.2c-.1 1.7-.6 3.4-1 3.7-.5.3-.9 1.5-1 2.6-.4 4.7-1.5 7.9-3.1 9.3-.9.7-1.1 1-.3.6 1.1-.6 1.3-.2.7 1.7-.4 1.3-.9 3.5-1.2 4.9-.3 1.3-1 3-1.6 3.7-.7.9-.7 1.3 0 1.3.5 0 .8.9.5 2-.3 1.1-.9 1.8-1.3 1.5-.5-.3-.6.5-.2 1.7.4 1.6.2 1.9-.9 1.3-1.1-.7-1.2-.6-.3.6.5.8.9 2 .8 2.6-.1.7-.2 2.4-.3 3.8-.1 1.7-.7 2.5-1.8 2.5-1.3 0-1.4.3-.6.8.7.5 1 1.8.7 3.2-.3 1.4-.5 3.7-.5 5.2 0 1.6-.6 2.8-1.2 2.8-.7 0-.6.4.3 1 .8.5 1 1 .4 1-.5 0-1.9.7-3 1.6-1.8 1.4-1.8 1.5.4.4 1.5-.7 2.2-.7 2.2 0 0 .5-.6 1-1.2 1-.9 0-.9.3-.3.8 1.6 1.1.9 5.4-1.1 7-1.6 1.2-1.6 1.4-.2.9 1.5-.5 1.6 0 1.2 4.1-.3 2.6-.6 7.4-.7 10.7-.1 3.8-.6 6-1.4 6-.6 0-1.5.4-2 .8-.4.5-.3.8.2.7.6-.1 1.7-.2 2.5 0 1.1.1.9.4-.5 1-1.9.8-1.9.9-.1.9 1.4.1 1.6.4.7 1.4-.7.9-.7 1.7 0 2.4s.4 1.4-.7 2.4c-1.6 1.2-1.7 1.2-1.1-.4.3-.9.2-1.7-.4-1.7-.6 0-.9.8-.7 1.7.2 1.1 1.1 1.7 2.2 1.5 1.5-.3 1.6 0 .6 1.9-.7 1.2-.8 2.4-.4 2.8 1.1.7 1.2 11.1.2 10.5-1.1-.7-1 .4.3 2.8.8 1.5.8 1.9 0 1.4-.6-.4-1.1-.2-1.1.3 0 .6.4 1.1.8 1.1.8 0 1.3 6.4 1.5 18.2 0 2.6.4 4.5.7 4.3.4-.3.7 1.2.5 3.3-.1 2 .3 4.5.8 5.5.7 1.6.5 1.8-1.5 1.3l-2.3-.6 2.3 1.2c1.8.9 2.2 1.7 1.7 3.6-.4 1.8-.3 2.2.7 1.6.8-.5.8-.1-.2 1.1-.9 1.1-1 1.6-.2 1.1.7-.4 1.2-.1 1.2.8 0 1-.6 1.4-1.7 1-1-.2-.8.1.4.7 1.8 1 2.2 1.8 1.8 4.6-.2 2 0 3.1.5 2.8 1.4-.8 1.3 2.8-.1 4.2-.8.8-.7 1.3.2 1.8.8.6 1 .4.4-.5-.5-.8-.4-1.1.3-.6.6.4.9 1.3.5 2.1-.3.8-.1 1.5.4 1.5s1 .6 1 1.2c0 .7.4 3.1.8 5.3.4 2.2.8 4.9.9 6 0 1.1.6 2.3 1.1 2.7.6.5.4 1.2-.5 1.8-1.3.8-1.2 1 .3 1 2 0 2.2 1.1.5 2.8-.7.7-.8 1.2-.3 1.2.6 0 .4.4-.3.9-1.1.7-1 .9.3 1.4.9.4 1.3.3 1-.3-.3-.6-.2-1 .4-1 .6 0 1.5 1.6 2 3.7.9 3 .7 3.8-.7 4.9-.9.8-1.2 1.4-.7 1.4.6 0 .3.5-.5 1.1-1.3.9-1.3 1 0 .6.8-.2 1.4-1 1.3-1.6-.2-.6.4-1.1 1.2-1.1.8 0 1.5.9 1.5 1.9 0 1.1.5 2.3 1 2.6 1.5.9 1.2 3.7-.2 3-.7-.4-.6-.1.2.7 1.5 1.3 2.2 3.1 2.3 5.5 0 .7.5 1.3 1.1 1.3.6 0 .4.5-.4 1-2 1.3-3.3 1.2-2.4-.2.4-.7.3-.8-.5-.4-1.9 1.2-.1 2.7 2.5 2 1.7-.4 2.4-.2 2.4.9 0 .8 1.3 4.6 2.9 8.5 1.6 3.9 2.7 7.3 2.3 7.6-.3.3 0 .6.6.6s.9.7.6 1.5c-.4.8-.9 1.3-1.3 1.1-.4-.3-.8.4-.8 1.5-.2 1.8 0 1.8 1.7-.3 2.1-2.5 2.7-1.8.8 1.1-1.3 2.1-.4 5.6 1.2 4.6.5-.3 1 .1 1 .9s.4 1.8 1 2.1c.6.4.7-.2.1-1.7-.5-1.3-1.4-2.2-2-2.1-.6.2-1.1-.6-1.1-1.7 0-1.3.5-1.8 1.5-1.4.8.4 1.5 1.1 1.5 1.8 0 .6.9 2.9 2 5 1 2.2 1.7 4.2 1.5 4.6-.3.5.2 1 1 1.4.8.3 1.5 1 1.5 1.6 0 .8-.6.8-2 0-1.4-.7-2-.7-2 0 0 .5.6 1 1.3 1 .7 0 1.3.9 1.4 2 .1 1.1-.2 1.8-.7 1.5-.5-.3-1.4.5-2 1.7-.9 2-.9 2.1.2.7.7-.9 2.1-1.5 3-1.3 1.5.2 1.6-.1.8-1.7-.7-1.2-.7-1.9-.1-1.9 1.1 0 2.6 3.8 2.3 5.7-.2.6.3 1.5.9 1.9.8.4.9.3.5-.4s-.5-1.2-.2-1.2c.2 0 2.3 3.5 4.6 7.7 2.4 4.3 5.1 9 6.1 10.5 1.4 2 1.6 2.8.7 3.1-.8.4-.7.6.3.6 1.8.1 3.3 2.7 2.4 4.1-.3.5-1.3.7-2.3.4-1.4-.5-1.5-.4-.2.5.9.6 1.8.7 2.4.1 1.6-1.6 2.6-1.2 2.6 1 0 1.1.5 2 1 2 .6 0 1 .6 1 1.3 0 .7.9 1.8 2.1 2.5 2 1.3 2 1.4.2 3.5-1.6 1.9-1.6 2 0 .8.9-.8 1.9-1.2 2.1-1 1.9 1.9 9.6 13.1 9.6 13.9 0 .6.5 1 1 1 .6 0 1 .7 1 1.5s.6 1.4 1.3 1.2c.7-.1 1.1.6.9 1.8-.2 1.1-.1 1.7.4 1.3.4-.4 1.3-.3 2.1.3 1.1.9 1.1 1.5.1 2.7-1.1 1.3-.9 1.4 1.2.8l2.5-.7-2.2 2c-3 2.5-2.9 3.6.1 1.6 2.1-1.4 2.4-1.4 3.7.2.8.9.9 1.4.2 1-1.6-1-4 .1-4 1.8 0 .8.3 1.3.5 1 .3-.3 1.1 0 1.9.6.9.9 1.3.8 1.3 0 0-.6-.4-1.1-1-1.1-.5 0-1-.5-1-1 0-2.2 2.4-.7 7.8 5 7.8 8.1 8.2 8.6 8.2 10.9 0 1.1.5 2.3 1.1 2.7.8.4.9-.1.4-1.7-.7-2.1-.6-2.2.7-1.1.9.7 1.6 2.4 1.6 3.7 0 2.6-1.3 3.4-2.1 1.2-.4-.9-.6-.9-.6.1-.1.7-.6 1-1.3.6-.6-.4-.8-.3-.5.3 1.1 1.8 5.2 1 5.1-1-.2-2.5.7-2.1 4.3 1.8 1.8 1.9 3.8 3.5 4.4 3.5.8 0 .8.4-.1 1.5-1 1.2-.7 2.1 1.5 4.7 2.1 2.5 2.6 2.8 2.1 1.1-1.1-3.6 1-3.5 4.3.2 1.7 1.9 3.3 3.4 3.5 3.3 1.1-.7 5.7 4.8 5.3 6.4-.6 2 .9 2.5 1.6.5.3-.8 1-.6 2.1.8.8 1.1 1.6 1.7 1.6 1.3 0-.4 1.1.4 2.5 1.8 2.7 2.7 3.2 5 1.3 5.7-.7.2-.9.8-.5 1.3.7.8 1.7-.2 3.2-3.1.3-.6.7-.5 1.1.2.3.7 1.2 1.3 2 1.3s1.4.5 1.4 1c0 .7-.6.7-1.8.1-1.4-.7-2.1-.5-3 1-1.3 2.1-.7 4.3.9 3.4.5-.4.9.1.9.9 0 1.9 1.6 2.1 2.6.4.4-.6.3-.8-.3-.5-.6.4-1.4 0-1.7-.9-.3-.8-1.1-1.2-1.7-.8-.7.4-1 .1-.7-.7.3-.8 1.3-1.6 2.3-1.7 1.1-.3 1.5 0 1.1.7-1.1 1.6 2.2 2.5 3.9 1.1 1.2-1 1.5-.9 1.5.4 0 1 .5 1.4 1 1.1.5-.3 1-.1 1 .5s.5.8 1 .5c.5-.3 1-.2 1 .3s1.4 1.5 3 2.2c2.9 1.2 4.1 3 2 3-.5 0-1-.4-1-.9 0-2-5.4 1.9-5.7 4.1-.2 1.7-.1 1.9.6.8.5-.8.7-1.8.5-2.2-.3-.4.1-.9.8-.9 5.9-.6 9.1-.3 10 .9.7.7 2.9 2.2 5 3.3 2.1 1.1 3.8 2.2 3.8 2.5 0 .3-.5.2-1.2-.2s-.8-.3-.4.5c.4.6 1.2.8 1.8.5.5-.4 2.2.2 3.6 1.3 1.5 1 4.2 2.5 6 3.2 2.1.9 3.1 1.9 2.8 2.7-.4.8-.9 2-1.2 2.8-.3.7.2 1.6 1.2 2 1.5.6 1.5.4.3-1-1.2-1.5-1.2-1.7.1-1.2.8.3 2.3.1 3.2-.4 2.5-1.2 6.4 2.6 4.6 4.6-1.7 1.8-3.3.9-1.7-1 .6-.8 1-1.6.8-1.9-.3-.2-1 .4-1.6 1.4-1 1.5-.8 2.2.7 3.6s2.1 1.4 3.9.3c1.2-.7 2.1-1.7 2.1-2.2 0-.5-.8-.2-1.8.7-2.5 2.3-3.9 2.2-1.9-.1 1-1 1.4-2.2 1-2.7-.5-.4-.2-.6.6-.3.8.2 1.9 1.2 2.5 2.2.9 1.4.7 2.1-.9 3.1-4.4 3-5.9 4.6-2.5 2.7 1.9-1.1 3.9-2.9 4.4-3.9.9-1.9 1-1.9 5 .1 2.3 1.2 4.3 2.4 4.4 2.9.2.4.7.5 1.2.2.4-.2.6.8.4 2.4-.2 1.9.2 3.1 1.1 3.5.8.3 1.5.1 1.5-.4 0-.6-.4-1-.9-1s-.8-.7-.7-1.5c.2-1.7 1.6-3.3 1.6-1.9 0 .5 1 1 2.2 1.1 1.1.1 2.4.7 2.8 1.3.3.6 1.6 1.2 2.8 1.5 3.2.6 4.3 1.5 3.5 2.8-.5.9-.3.9.8 0 .9-.7 2-.9 2.5-.5.5.5 2.8 1.5 5.2 2.2 4.1 1.3 5.7 3 2.7 3-.9 0-.6.8 1.1 2.5 1.4 1.4 2.8 2.5 3.1 2.5.4 0 .2-.5-.5-1.2-.9-.9-.7-1.4.6-2.4 2.3-1.8 3.7-1.7 2.2.1-.7.8-1 2.2-.6 3 .3.8.6 1.9.6 2.3.1.4 1.2 1.3 2.6 2 1.3.7 2.2 1.7 1.9 2.2-.6 1 2.2.7 3-.3.3-.4.2-.5-.1-.3-.6.5-2.2-.6-5.4-3.8-2.2-2.2-2.6-4.6-.8-4.6.6 0 .8.3.5.7-1.2 1.1 2.4 4.2 4.1 3.6.9-.4 1.3-.2.9.4-.4.6 0 1.4.9 1.7 2.5.9 2.7.7.9-1-.9-.9-1.4-2.1-1.2-2.7.5-1.5 2.7-2.1 2.7-.7 0 .6-.4.8-1 .5-.6-.3-.7.1-.4 1 .6 1.4.8 1.4 1.8 0 1-1.3 1.6-1.3 6.1.1 2.8.8 6.1 1.8 7.4 2 1.3.3 3.2.9 4.3 1.5 1 .5 2.3.7 2.8.4 1.8-1.1.6 1.9-1.4 3.8-2.5 2.3-1 2.2 2-.2 1.3-1 2-2.1 1.7-2.5-.3-.3-.1-.6.5-.6.7 0 1.2.4 1.2.8 0 .5 1.5 1 3.3 1.1 1.7.1 3.7.3 4.4.3.7.1 1.1 1.1 1 2.2-.1 1.5.4 2.1 2 2.1 1.1 0 2.5.3 2.9.8 1.1 1 2.4.9 2.4-.4 0-.5-.4-.8-.9-.4-.5.3-1.2.1-1.5-.4-.3-.5.6-1.2 2.1-1.6 1.6-.4 2.9-.2 3.3.6.4.6 1.3.8 2 .4.6-.4 2 .1 3.1 1.1 1.5 1.3 1.9 1.4 1.6.3-.2-.8-.2-1.1 0-.8.2.3 1.6.4 3 .1 2.2-.4 2.5-.2 1.9 1.3-.8 2.1 1 4.5 3.3 4.4 1.1 0 1-.3-.6-1.1-1.3-.6-2.3-1.4-2.3-1.8 0-1.4 3.3-2.1 4.4-.9.8.9.6 1-.7.6-1-.4-1.6-.3-1.2.2.9 1.6 4.3.9 3.7-.8-.3-.9-.1-1.2.6-.7.7.4 1.2 1.3 1.2 2.1s1 2.1 2.2 2.9c1.2.9 1.9 1.7 1.5 1.7-.4.1-1.1.2-1.7.3-1.1.1-3.9 3.7-4 5.1 0 .5.9-.3 1.9-1.8 1-1.6 2-2.7 2.2-2.6.2.2 1.3-.2 2.3-.8 1.9-1 1.9-1.1-.1-1.7-2-.6-3.8-3.4-2.9-4.3.2-.2 1.6.8 3 2.2 2.2 2.2 3 2.5 4.2 1.4.8-.6 1.2-1.5.8-1.8-.4-.3-.9-.1-1.1.6-.3 1-.9 1-2.4 0-2.8-1.7-2.3-2.8.9-2.1 1.5.3 5 .6 7.9.7 2.8.1 4.9.5 4.6 1-.2.4.7.5 2.1.1 1.7-.4 2.6-.2 2.6.6 0 .6-.4.8-1 .5-.6-.3-1-.1-1 .5 0 .7.8.9 2 .5 1.1-.4 2-.2 2 .4 0 .6-.4 1.1-1 1.1-.5 0-1 .5-1 1.1 0 .8.5.8 1.5-.1 1.2-1 1.8-1 3 0 2.7 2.2 1.6 0-1.2-2.5-2.3-2-2.5-2.4-1-2.5.9 0 1.7.4 1.7 1 0 .5.5 1 1.1 1 .5 0 .7-.5.3-1.2-.4-.7-.3-.8.5-.4.6.4.9 1.1.7 1.5-.3.4 0 1.3.6 2.1.8 1.3.9 1.3.5-.1-.8-2.5.9-4.7 2.4-3.2 1 1 1.6 1 2.7 0 1.3-1 1.4-.8.8 1.3-.6 2.1-.5 2.2.4.7 1-1.5 1.4-1.6 2.8-.5.9.7 1.3.8.9.2-.4-.8.4-1.3 2.3-1.6 1.7-.3 2.7 0 2.3.6-.4.6.1.6 1.3.2 1-.5 7.4-.9 14.1-1.1 6.7-.1 12.6-.6 13.2-.9 1.8-1.1 1.3.2-.9 2.4-2.1 2.1-2.8 4.6-1 3.5.6-.3 1-1.3 1-2.1s.5-1.4 1-1.4c1.3 0 1.3.6-.1 3.3-.7 1.5-.3 1.2 1.5-.8 2.1-2.5 2.7-2.8 3.6-1.5 1.2 1.8 1.3.1.1-1.9-.6-.9-1.1-1-1.5-.2-1 1.5-2.6 1.4-2-.2.5-1.5 7.4-2 7.4-.5 0 .5-.4.6-1 .3-.5-.3-1-.1-1 .5 0 .7.7.9 1.6.6.9-.3 1.7-.6 2-.6.2 0 .1-.8-.2-1.8-.5-1.4-.3-1.4 1 .2 1.2 1.5 1.6 1.6 1.6.5 0-.8.9-1.5 2-1.6 1.1-.1 1.8.2 1.5.8-.4.5-.1.9.4.9.6 0 1.1-.5 1.1-1 0-.6.5-1 1.1-1 .5 0 .7.4.4 1-.3.5-.1 1 .4 1 .6 0 1.1-.8 1.1-1.7 0-1.3.3-1.4 1.2-.5.9.9.7 1.6-.7 3.2-1.5 1.7-1.6 2-.3 1.5 2-.8 3.1-3.3 2.1-4.8-.4-.6 0-.8 1-.4.9.3 1.8.1 2.1-.6.2-.7.5-.5.5.5.1 2.4 1.9 3.2 3.8 1.6 1.4-1.1 1.5-1 .9 1.2-.6 2.5-.6 2.5.5.3.7-1.3 1.6-2.3 2.1-2.3.4 0 .8-.5.8-1.1 0-.8-.5-.8-1.5.1-.8.7-1.5.9-1.5.4 0-.4-.5-.3-1.2.4-1.6 1.6-2.5 1.5-2.5-.1 0-.7 1-1.4 2.1-1.5 1.2-.1 3-.4 4.1-.6 1.1-.2 2.8 0 3.7.5 2.3 1.2 4.8.1 4.2-1.9-.4-1.3-.2-1.2.7.2 1 1.6.8 2.2-1.2 3.8l-2.4 1.9 2.3-1.1c1.3-.6 2.6-1.8 2.9-2.6.3-.7 1-1.1 1.6-.7.6.3.7.1.3-.6-.4-.6-1.2-.8-1.8-.5-.7.5-.8.2-.4-.5.5-.7 1.4-1 2.2-.7.8.3 2.2.2 3.2-.3.9-.4 3.1-1.3 4.9-1.9 2.8-.9 3.3-.8 3.8 1 .8 2.4 2.9 1.8 3.3-1 .2-1.2.7-2.2 1.2-2.2s.7.9.5 2c-.2 1.1.1 2 .7 2 .5 0 .8-.6.5-1.4-.3-.8.1-2 1-2.8 1.4-1.1 1.5-1 .9.8-.8 2.5 1.9 5.3 3.5 3.7.7-.7.5-1.5-.5-2.6-1.9-1.9-2.1-3-.4-2.5.7.3 1.9-.2 2.7-.9.7-.8 2-1.2 2.7-.9.8.3 1.4.1 1.4-.5s.8-.9 1.8-.8c.9.2 2.7-.3 4-.9 2.3-1.3 4.2-.9 4.2 1 0 .7-.5.7-1.4-.1-1.1-.9-1.9-.5-4 1.9-2.8 3.4-3.4 5.4-1.3 4.7.6-.2 1-1.2.9-2.2-.3-1.6-.1-1.7 1.2-.6 1.2 1 1.6 1 1.6.2 0-.7.4-.9 1-.6.6.4.5 1.3-.2 2.5-.7 1-1.6 1.6-2.2 1.3-.5-.3-.6-.1-.2.5.4.6 1.3.9 2.1.6.8-.4 1.3-1 1-1.4-.3-.4.2-1.3 1.1-2 .8-.7 1.3-1.9 1-2.6-.3-.7-.1-1.6.4-1.9.4-.3 1 .1 1.3.7.3.7.4.3.4-.8-.1-1.4-.6-2-1.4-1.7-.7.3-1.3.1-1.3-.3 0-.7 8.5-3.8 13-4.9.3 0 1.6-.7 2.8-1.4 1.3-.7 2.6-1 2.9-.7.3.3 1.1-.1 1.7-.8.6-.8 2-1.6 3.1-1.8 1.6-.2 2 .2 1.8 2.2-.2 2.2-.1 2.3.8.7.6-1 .8-2.5.5-3.3-.3-.8-.2-1.2.3-.9.5.3 1.2.1 1.5-.4.3-.5 2-1.4 3.6-2 1.7-.5 2.8-.6 2.5-.2-.3.5.4 2 1.6 3.2 1.1 1.3 1.8 1.8 1.4 1.1-.4-.8.1-1.1 1.7-.8 1.3.3 2.5.5 2.8.5.3.1 0 .5-.7.9-.9.6-.6 1.1.8 2.1 1.7 1 2 1 1.3-.1-.5-.7-.9-1.5-1-1.8-1.1-3.7-1.8-5-2.5-5-.5 0-.6.6-.3 1.3.3.8-.3 1.3-1.6 1.3-2.6 0-3.3-2.1-1.4-4.1 1.9-1.9 5.4-.4 6.2 2.7.3 1.4.7 1.6 1.2.7.5-.7-.3-2.1-1.9-3.6-1.4-1.4-2-2.2-1.3-1.8.6.3 1.2.1 1.2-.5s1.1-.8 2.8-.4c2.1.4 2.4.3 1.2-.5-1.3-.9-1.3-1.1.2-1.1.9 0 1.8-.5 2-1.2.3-.9.6-.9 1.2 0 .3.6-.3 2.1-1.4 3.2-1.7 1.7-2.4 1.9-3.6.9-.8-.7-1.4-.7-1.4-.1 0 1.7 2.7 2.1 4.7.7 1.6-1.2 2-1.1 3.4.7 1.3 1.7 1.8 1.8 2.4.7.5-.8.5-1.1 0-.7-.4.4-1.4 0-2.1-1-1.8-2.3-1.7-3.7.1-2.2 1 .9 1.5.9 1.5.1 0-.6-.5-1.1-1.1-1.1-.5 0-.7-.5-.4-1 .4-.6 1.1-.8 1.6-.4.5.3 2.6-1.2 4.5-3.3 2-2.1 4-3.7 4.5-3.5.5.1.9-.3.9-.8 0-.7.8-.6 2.3.1 2 1.1 2.1 1.1.8-.5-1.2-1.4-1.2-1.6.4-1 1.1.5 1.6.4 1.2-.3-.7-1.2 4-3.6 5.4-2.7.5.3.9.2.8-.3-.3-2 .2-2.7 1.1-1.3.8 1.3 1 1.3 1-.2 0-.9.5-2 1.2-2.4.7-.5.9-.2.4.7-.4.8.2.3 1.3-1.1 1.1-1.4 2.1-2.3 2.2-2 .1.3.3 1.8.5 3.3.2 2.4.1 2.7-1.2 1.7-1-.9-1.4-.9-1.4-.1 0 .6.6 1.1 1.3 1.1.8 0 .7.4-.3 1-.9.6-1 1-.3 1 1.7 0 2.8-2.1 2.8-5.4 0-2.4 1-3.6 4.6-6.2 2.6-1.8 5.4-3.2 6.4-3.1 1 .1 1.9-.4 2.1-1.1.1-.7 0-.8-.3-.2-.6 1.3-2.3 1.3-2.3.1 0-.5 1.6-1.5 3.5-2.1 2.1-.7 3.2-1.6 2.9-2.2-.4-.7-.2-.8.4-.4.7.4 1.2.2 1.2-.4 0-.6.5-.8 1-.5.6.3 1-.1 1-.9 0-.9.6-1.6 1.4-1.6.8 0 1.6-.7 2-1.5.3-.9 1.2-1.2 2.3-.8 1 .3 1.5.3 1.1-.2-1-1 1-3.5 2.8-3.5.7 0 2 .7 2.8 1.6.9.8 1.6 1 1.6.4s-.7-1.3-1.5-1.6c-2-.8-1.9-1.7.6-3.2 1.6-1 2.4-1.1 3.5-.1 1.9 1.6 3.7-.1 2.3-2.1-.9-1.3-1-1.2-.5.2.3 1 .1 1.8-.4 1.8-1.7 0-2.2-2.1-.9-3.6 1.2-1.4 1.4-1.4 2.6.2 1.3 1.8 4.8 3 3.7 1.3-.3-.5-1-.7-1.5-.4-.5.4-.9.2-.9-.4 0-.5.4-1.3 1-1.6.5-.3 1.5-1.6 2.1-2.8.7-1.5.3-1.2-1.5.8-1.4 1.6-2.5 2.5-2.6 1.9 0-1.6 4.5-5.5 6.1-5.2.8.2 1.8.7 2.2 1.3.5.6.7.4.4-.5-.2-.8-1-1.4-1.6-1.3-1.5.4-1.4-.6.2-2 1.4-1.4 6.2-2.3 5.4-1-.3.5-.2 1.4.2 2.1.4.8 1.1.5 1.9-.8.7-1.1.9-2 .5-1.9-.5.1-1.8-.2-3-.6-2.2-.7-2.2-.7.6-3.1 3.2-2.7 4.2-3 3.8-1.2-.1.6.7 1.3 1.8 1.5 1.5.2 1.6.1.5-.5-.8-.4-1.6-1.5-1.8-2.5-.3-1.9 3.4-5.6 5.6-5.7.7 0 1-.5.7-1-.8-1.3.8-1.3 2.2.1.8.8 1.3.7 1.8-.2.5-.8.4-1-.4-.5-.6.4-1.4 0-1.8-.9-.6-1.8 1.5-3.8 3.1-2.8.5.4.1 1-1 1.4-1.5.6-1.5.8-.3.8.9.1 2.2-.6 2.9-1.4.7-.8 1.6-1.2 2.1-.9.5.3.9 0 .9-.6 0-.7-.6-1-1.3-.7-.8.3-2 .1-2.8-.4-1.1-.7-1-.9.4-.9 1.1 0 1.5-.4 1.1-1.2-.5-.8-.2-.9 1-.5.9.4 1.5.3 1.2-.2-.3-.5 1.4-3 3.8-5.6 2.5-2.5 4.4-4.9 4.4-5.2 0-.2.4-.8.8-1.1.4-.4.4-.1-.1.7-.5.9-.4 1.2.3.7.7-.4 1.2-1.3 1.2-2 0-1.5 6.1-9.6 7.2-9.6.4 0 .8.5.8 1.1 0 .5-.5.7-1.2.3-.7-.4-.8-.3-.4.5 1.1 1.7 2.8.2 2.1-2-.4-1.3.2-2.6 1.9-4.2 1.4-1.3 2.2-2.8 1.8-3.2-.4-.5 0-.6.9-.2 1.3.4 1.6.1 1.2-1.4-.3-1-.1-1.9.4-1.9s1.5-1.1 2.1-2.5c.7-1.5 1.9-2.4 2.9-2.2 1 .1 1.9-.2 2-.8.1-.5 1-1.3 2-1.7 1.6-.7 1.6-.8-.2-.5-1.1.2-1.9.9-1.8 1.5.4 1.5-1.3 1.6-2.2.2-.3-.6-.1-1 .4-1 .6 0 1.1-.7 1.1-1.5 0-.7.7-1.8 1.6-2.3.9-.5 1.5-1.2 1.4-1.6-.2-.9 2.7-5 5.5-7.9 1.1-1.1 1.4-1.6.6-1.2-1 .6-1.2.4-.7-.4.5-.7 1.4-1 2-.8.7.3 1.9.1 2.7-.5 1.1-.8 1.1-.9-.3-.4-1 .3-2 .1-2.3-.4-.4-.6-.1-1 .4-1 .6 0 1-.3.9-.8-.3-1.2 2.4-6.2 3.4-6.2.4 0 .7-.3.6-.8-.3-.9 3-7.2 3.8-7.2.3 0 .2.5-.2 1.2s-.3.8.5.4c.6-.4.9-1.1.6-1.6-.8-1.3 1.6-5.8 3.4-6.3.9-.2 1.7-1.5 1.8-2.8.2-1.8 0-2-.7-.9-.5.8-.6 1.8-.4 2.2.3.4 0 .8-.5.8-1.6 0-1.4-.8 1.1-4.9 1.3-2 2.3-4.1 2.3-4.6 0-.6.8-.9 1.7-.7.9.1 1.9-.2 2.3-.8.3-.6 0-.7-.9-.4-2.3.9-2-.6 1.7-8.8 1.9-4 4-8.9 4.7-10.8.8-1.9 2-3.9 2.7-4.3 1.1-.7 1.1-1.2.2-2.3-.7-.9-.8-1.4-.1-1.4.6 0 1.4-1.4 1.7-3.2l.7-3.1 1.9 2.4 2 2.4-1.2-2.8c-.7-1.5-1.6-2.7-2.1-2.7s-.4-.9.2-2c.6-1 1.7-1.7 2.4-1.4.8.3 1.7.1 2.1-.5.3-.6 0-.9-.8-.5-2 .7-3.2-1.5-1.7-2.9 1-.9 1.2-.8.7.6-.4 1-.3 1.6.2 1.3.5-.3.8-2.1.6-4-.2-1.9.3-4.6 1-6 .8-1.4 1.1-2.6.8-2.6-.3 0 0-.7.7-1.5s1-1.5.7-1.5c-.3 0 0-2 .7-4.5.8-2.5 1.1-4.5.8-4.5-.3 0 .3-.7 1.4-1.6 1-.8 1.3-1.2.6-.9-1.1.6-1.2.3-.4-1.1.5-1.1.7-2.6.5-3.4-.3-1 .2-.8 1.3.5l1.7 2-.8-2c-1.7-4.6-1.7-5.5-.2-5.5 2.1 0 3.1-1.7 1.6-2.6-.8-.4-.9-.3-.5.4s.1 1.2-.7 1.2c-1.3 0-1.3-.6-.1-4.5.7-2.5 1-4.5.7-4.5-.4 0-.2-.5.4-1.1.6-.6.9-1.8.6-2.7-.5-1.1-.3-1.3.8-.7 1.1.7 1.1.5-.1-1-1.3-1.7-1.3-1.8.1-1.3.9.4 1.6.1 1.6-.8 0-.7-.4-1.1-.7-.9-.4.3-.8-.7-.7-2 0-1.4.4-2.5.9-2.5s.6-1 .3-2.1c-.6-1.6-.4-2 .6-1.3 1.1.6 1.2.4.3-.7-.5-.8-.7-3-.4-4.9l.6-3.5 1.6 3.5c1.4 3 1.6 3.1 1.5 1-.1-1.4-1-3.1-2-3.8-.9-.7-1.5-1.7-1.3-2.1.3-.4.6-2.8.7-5.4.2-4.2.5-4.7 2.3-4.2 1.2.3 1.5.2.8-.1-.7-.3-1.7-1.5-2.3-2.6-.9-1.7-.9-2 .3-1.5.9.3 1.5-.1 1.5-.9s-.4-1.4-.9-1.4c-1.5 0-.8-4.3 1-6.4 1.4-1.7 1.4-1.8.1-.8-1.5 1.1-1.6.7-1.5-4.5.1-4.6.5-6.1 2.1-7.1s1.6-1.2.3-.8c-1 .3-1.8.2-1.9-.2-.6-6.3-.2-24.2.6-24.2.5 0 .3-.4-.5-1-.8-.5-1.2-1.2-.8-1.5.3-.3.2-2.2-.2-4.1-.7-2.8-.5-3.4.9-3.4 1.4-.1 1.4-.2-.1-1.1-1.3-.7-1.6-2-1.4-5.4.2-2.8-.1-4.5-.8-4.5-.6 0-.2-.8.9-1.7 1.6-1.3 1.7-1.5.3-1-1.9.7-2.1-1.5-.4-4.2.6-1 .5-1.2-.2-.7-1.1.6-1.6-.5-1.3-2.6 0-.4-.4-1.9-.9-3.4-.9-2.2-.8-2.5.4-2.1 1.1.4 1.3.1.9-1-.4-1-.2-1.4.4-1 .5.3 1 0 1-.8 0-1.2-.4-1.2-2 .2-1.9 1.7-2 1.7-1.4.1.3-1 .2-2-.4-2.4-.5-.3-.8-1.9-.5-3.5.2-1.6 0-2.9-.5-2.9s-.9-.5-.9-1.1c0-.5.6-.7 1.3-.3.9.6.9.5 0-.7-.6-.8-1.4-2.7-1.7-4.2-.8-3.6-1.5-6.6-2.2-9.7-.3-1.4-.7-3.4-.9-4.5-.2-1.1-.4-2.5-.5-3-.5-2.2.1-3.6 1.2-2.9.7.4.8.3.4-.4-.4-.6-1.3-.9-2.1-.5-1 .3-1.5-.2-1.6-1.6-.2-2.9-.3-3.3-1.8-6-1.2-2.1-1.1-2.3.3-1.8.8.3 1.8.1 2.2-.5.4-.6.3-.8-.4-.4-1.6 1-4.1-2.1-3.8-4.9.2-1.3 0-2.2-.5-1.9-.4.2-1.1-1.2-1.5-3.3-.4-2.1-1-4.3-1.4-4.8-1.2-1.7-3.9-10.5-3.2-10.5.4 0 .1-.4-.6-.9-.7-.4-1.4-1.8-1.5-2.9-.1-1.2-.5-2.2-1-2.2s-.7-1.1-.5-2.5c.3-1.3.1-2.2-.4-1.9-1.8 1.1-2-2.8-.2-4.9l1.9-2.2-2.2 1.9c-2.2 1.8-2.3 1.8-2.9 0-.3-1.1-3.3-7.4-6.6-14.2-3.3-6.7-5.8-12.8-5.5-13.6.3-.8-.1-1.3-1.1-1.2-1 .1-1.8-.8-2-2.2-.2-1.2-.8-2.2-1.3-2.2-.6 0-.7-.4-.4-1 .3-.6.1-1-.4-1-.6 0-1.1-.5-1.1-1 0-.6-2-4.1-4.5-7.8s-4.5-7.2-4.5-7.8c0-.7-.7-1.4-1.5-1.8-.8-.3-1.5-1.2-1.5-2.1 0-.8-.5-1.5-1.1-1.5-.8 0-.8-.4 0-1.4.9-1.1.9-1.6 0-2.2-.8-.4-.9-.3-.5.4s.4 1.2-.1 1.2c-1.5-.1-4.5-5.1-3.9-6.6.3-.9.2-1.2-.5-.9-1.2.8-4-2.6-3.2-3.9.4-.5.1-.6-.5-.2-.6.3-1.3.2-1.7-.4-.3-.5 0-1 .7-1.1.7 0 .2-.5-1.1-1-1.5-.6-2.1-1.4-1.7-2.5.3-.8.2-1.3-.3-1-.4.3-1.6-.3-2.6-1.4-1-1.1-1.4-2-1-2 .4 0-.4-1-1.8-2.3-1.5-1.2-2.7-2.7-2.7-3.2 0-.6-.9-1.6-2-2.3-1.2-.7-1.8-1.7-1.5-2.2.3-.6.1-1-.5-1s-.8-.5-.5-1c.4-.6.2-.9-.4-.8-1.1.3-9.1-7.9-9.1-9.3 0-.5-.7-.9-1.5-.9s-1.5-.4-1.5-.8c0-.5-2.4-3.3-5.4-6.2-3-3-5.2-5.8-5-6.2.3-.5.1-.7-.4-.6-1.5.4-15.2-12.4-14.5-13.5.3-.6.1-.7-.4-.4-1.3.8-6.5-3.1-5.8-4.4.4-.5 0-.7-.7-.4-1.5.5-6.8-3.8-6.8-5.6 0-.7-.3-.9-.6-.6-1 1-6.5-3.3-5.8-4.5.4-.6.3-.8-.3-.5-1.3.8-10.5-5.7-9.6-6.8.5-.4.2-.5-.6 0-.9.5-1.9.2-2.8-1-.7-1.1-1.3-1.5-1.3-.9 0 .5-.4.4-.8-.2-.4-.5-3.5-2.7-6.9-4.8-3.5-2.1-6.3-4.2-6.3-4.7 0-.6-.5-.7-1-.4-1.4.9-4.2-1.4-3.3-2.8.3-.5.2-.8-.3-.4-1.4.8-7.6-2.1-6.9-3.3.3-.5 0-.7-.9-.4-.8.3-2.3-.3-3.3-1.3s-2.4-1.8-3-1.9c-3-.2-3.4-.5-2.7-1.6.4-.7.3-.8-.5-.4-.6.4-2.3-.2-3.9-1.2-1.5-1.1-3-2-3.4-2.1-.5-.1-3.7-1.5-7.3-3.1-3.6-1.7-7-3-7.6-3-.6 0-.7-.4-.4-1 .3-.6-.1-.7-.9-.4-1.1.4-1.6 0-1.6-1.2 0-1.5-.2-1.6-.9-.5-.6.9-1.1 1-1.5.2-.4-.6-1.8-1.1-3.2-1.1-1.3 0-2.4-.3-2.4-.8 0-.4-.9-1.3-2.1-2-1.5-1-1.9-1-1.4-.1.5.7.3 1-.6.7-.8-.3-1.3-1-1.2-1.6.2-.6-.4-.9-1.2-.5-.9.3-2.5-.3-3.7-1.3-1.2-1.1-1.9-1.4-1.5-.8.4.6-2.2.2-5.7-1-3.6-1.1-6.3-2.3-6.1-2.6.2-.3-.8-.6-2.3-.6-1.5.1-2.6-.4-2.5-1 .1-.7-.8-.9-2.4-.6-2 .4-2.4.2-1.8-.9.6-1.1.5-1.1-.5-.2-1.6 1.4-6.3-.4-5.3-2.1.4-.6-.1-.5-1 .3-.9.7-1.7.9-1.7.3 0-.5-.6-1-1.2-.9-3.8.1-6.9-.4-6.4-1.1.3-.4-.8-.7-2.5-.6-2.6.2-3.4-.6-3-2.9.1-.5-.3-.6-.9-.2-.6.3-.7 1.1-.4 1.7.5.8.1.9-1 .5-1-.4-3.5-1-5.7-1.3-2.4-.4-3.6-1.1-3.2-1.8.4-.8.2-.8-.6 0-.9.8-2.4.9-4.4.3-1.8-.4-4.8-1-6.7-1.2-1.9-.2-3.5-.8-3.5-1.4 0-.6-.4-1.5-.8-2-.5-.4-.7-.1-.5.7.4 1.7-1.2 1.8-11.7.5-3.8-.5-7.8-.9-8.8-.9-1-.1-2.2-.8-2.7-1.6-.9-1.3-1-1.3-1 .1 0 1.3-.9 1.4-5.7.9-3.2-.4-6.4-.5-7.2-.2-.8.3-1.2.1-.8-.5.7-1.1-3.4-1-5.2.2-.6.3-1.1.2-1.1-.4 0-.6-1.1-.6-2.9-.1-2.1.6-3.5.4-5-.6-1.9-1.4-2-1.3-1.4.3zM152.8 657.8c.6 1.8-1.5 1.4-2.2-.4-.4-1-.1-1.4.6-1.2.6.2 1.4 1 1.6 1.6zM185 684c0 .5-.7 1-1.6 1-.8 0-1.2-.5-.9-1 .3-.6 1-1 1.6-1 .5 0 .9.4.9 1zm41 25.4c0 1.1-1.9 1.5-2.5.6-.3-.5.1-1 .9-1 .9 0 1.6.2 1.6.4zm343.4 4c-1 .8-2.1 1.2-2.4.9-.3-.2.4-1.1 1.4-1.9 1.1-.7 2.2-1.2 2.5-.9.2.3-.4 1.2-1.5 1.9zm-3.4 1c0 .3-.4.8-1 1.1-.5.3-1 .1-1-.4 0-.6.5-1.1 1-1.1.6 0 1 .2 1 .4zm-289 18.5c0 .5-.7 1.1-1.5 1.5-1.5.5-2-.5-.8-1.7.9-1 2.3-.9 2.3.2zm6 2.8c0 1.5.2 1.6 1 .3.5-.8 1.2-1.1 1.6-.7.4.3.1 1.3-.5 2.1-1 1.2-1.6 1.2-2.5.4-1.4-1.4-1.7-3.8-.4-3.8.4 0 .8.8.8 1.7zm231 5.6c0 .8-.3.8-1.1 0-.6-.6-1.9-.9-2.8-.5-1.4.5-1.4.4-.2-1.1 1-1.3 1.7-1.5 2.7-.6.8.6 1.4 1.6 1.4 2.2zm-25 3.3c0 .8-.4 1.2-1 .9-.5-.3-1-1-1-1.6 0-.5.5-.9 1-.9.6 0 1 .7 1 1.6zm8.6 1.1c-.7.7-2.6-.7-2.6-1.9 0-.6.6-.6 1.5.2.9.7 1.3 1.5 1.1 1.7zm-170.9 2c-2.8 1.4-4.4 1.3-3.4-.4.3-.4 1.8-.9 3.4-1l2.8-.1-2.8 1.5zm142.3.5c0 .4-.4.8-.9.8-.6 0-1.2-.4-1.5-.8-.3-.5.1-.9.9-.9s1.5.4 1.5.9zM333.6 25.8c-.2.4-.1 1.4.4 2.2.7 1.1.9.9.7-.8-.1-2.4-.3-2.6-1.1-1.4z"/><path d="M437 26c0 .5.5 1 1.1 1 .5 0 .7-.5.4-1-.3-.6-.8-1-1.1-1-.2 0-.4.4-.4 1zM342.5 28.1c-.3.4.2.6 1 .5 2.1-.3 2.8-1.3 1-1.3-.9 0-1.8.4-2 .8zM461.3 28.5c0 .8.4 1.2.9.9.5-.3.6-1 .3-1.5-.9-1.3-1.2-1.1-1.2.6zM303.6 29.3c.3 1 .9 1.5 1.2 1.2.3-.3 0-1.1-.7-1.8-1-.9-1.1-.8-.5.6zM321.5 30c-.3.5-.1 1 .4 1 .6 0 1.1-.5 1.1-1 0-.6-.2-1-.4-1-.3 0-.8.4-1.1 1zM491 30.1c0 .5.5.7 1 .4.6-.3 1-.8 1-1.1 0-.2-.4-.4-1-.4-.5 0-1 .5-1 1.1zM315.5 34c-.3.5-.1 1 .4 1 .6 0 1.1-.5 1.1-1 0-.6-.2-1-.4-1-.3 0-.8.4-1.1 1zM489.5 34c-.3.5-.1 1 .4 1 .6 0 1.1-.5 1.1-1 0-.6-.2-1-.4-1-.3 0-.8.4-1.1 1zM493 34.1c0 .5.5.7 1 .4.6-.3 1-.8 1-1.1 0-.2-.4-.4-1-.4-.5 0-1 .5-1 1.1zM500.6 35.8c-.3.5.1.9.9.9s1.2-.4.9-.9c-.3-.4-.7-.8-.9-.8-.2 0-.6.4-.9.8zM280.6 37.8c-.3.5.1.9.9.9s1.2-.4.9-.9c-.3-.4-.7-.8-.9-.8-.2 0-.6.4-.9.8zM273.3 41.5c0 .8.4 1.2.9.9.5-.3.6-1 .3-1.5-.9-1.3-1.2-1.1-1.2.6zM281.5 42c-.3.5-.1 1 .4 1 .6 0 1.1-.5 1.1-1 0-.6-.2-1-.4-1-.3 0-.8.4-1.1 1zM541.3 50.5c0 .8.4 1.2.9.9.5-.3.6-1 .3-1.5-.9-1.3-1.2-1.1-1.2.6zM254.6 51.8c-.3.5.1.9.9.9s1.2-.4.9-.9c-.3-.4-.7-.8-.9-.8-.2 0-.6.4-.9.8zM551.3 55.5c0 .8.4 1.2.9.9.5-.3.6-1 .3-1.5-.9-1.3-1.2-1.1-1.2.6zM557 58c0 .5.5 1 1.1 1 .5 0 .7-.5.4-1-.3-.6-.8-1-1.1-1-.2 0-.4.4-.4 1zM237.5 60c-.3.5-.1 1 .4 1 .6 0 1.1-.5 1.1-1 0-.6-.2-1-.4-1-.3 0-.8.4-1.1 1zM567.5 60.9c-.3.5-.2 1.2.3 1.5.5.3.9-.1.9-.9 0-1.7-.3-1.9-1.2-.6zM225.5 65.9c-.3.5-.2 1.2.3 1.5.5.3.9-.1.9-.9 0-1.7-.3-1.9-1.2-.6zM575 66c0 .5.5 1 1.1 1 .5 0 .7-.5.4-1-.3-.6-.8-1-1.1-1-.2 0-.4.4-.4 1zM218 67.4c0 .2.8 1 1.8 1.7 1.5 1.3 1.6 1.2.3-.4s-2.1-2.1-2.1-1.3zM581.5 70c-.3.5-.1 1 .4 1 .6 0 1.1-.5 1.1-1 0-.6-.2-1-.4-1-.3 0-.8.4-1.1 1zM584 72c-.9.6-1 1-.3 1 .6 0 1.5-.5 1.8-1 .8-1.2.4-1.2-1.5 0zM201.5 78c.3.5.8 1 1.1 1 .2 0 .4-.5.4-1 0-.6-.5-1-1.1-1-.5 0-.7.4-.4 1zM205.5 78c-.3.5-.1 1 .4 1 .6 0 1.1-.5 1.1-1 0-.6-.2-1-.4-1-.3 0-.8.4-1.1 1zM197.5 82c-.3.5-.1 1 .4 1 .6 0 1.1-.5 1.1-1 0-.6-.2-1-.4-1-.3 0-.8.4-1.1 1zM595 81.5c0 .7 3 1.3 3.4.7.3-.4-.4-.9-1.5-.9-1-.1-1.9 0-1.9.2zM189.6 85.8c-.2.4-.1 1.4.4 2.2.7 1.1.9.9.7-.8-.1-2.4-.3-2.6-1.1-1.4zM606.5 88c-.3.6.1.7.9.4 1.8-.7 2.1-1.4.7-1.4-.6 0-1.3.4-1.6 1zM177.5 98c-.3.5-.1 1 .4 1 .6 0 1.1-.5 1.1-1 0-.6-.2-1-.4-1-.3 0-.8.4-1.1 1zM625 98.1c0 .5.5.7 1 .4.6-.3 1-.8 1-1.1 0-.2-.4-.4-1-.4-.5 0-1 .5-1 1.1zM171 100c0 .5.5 1 1.1 1 .5 0 .7-.5.4-1-.3-.6-.8-1-1.1-1-.2 0-.4.4-.4 1zM629.6 106.2c.3.5 1 .6 1.5.3 1.3-.9 1.1-1.2-.6-1.2-.8 0-1.2.4-.9.9zM163 107.9c0 .6.4 1.3 1 1.6.6.3.7-.1.4-.9-.7-1.8-1.4-2.1-1.4-.7zM153.3 115.1c-.2 2.3.3 2.5 1 .4.4-.8.3-1.6-.1-1.9-.4-.3-.9.4-.9 1.5zM157.5 114c-.3.5-.1 1 .4 1 .6 0 1.1-.5 1.1-1 0-.6-.2-1-.4-1-.3 0-.8.4-1.1 1zM149.6 118.2c.3.5 1 .6 1.5.3 1.3-.9 1.1-1.2-.6-1.2-.8 0-1.2.4-.9.9zM644 118c-1.2.7-1 .9.7.7 1.2 0 1.9-.5 1.7-.9-.6-1-.6-1-2.4.2zM139.3 119.5c0 .8.4 1.2.9.9.5-.3.6-1 .3-1.5-.9-1.3-1.2-1.1-1.2.6zM134.5 124c-.3.6.1.7.9.4 1.8-.7 2.1-1.4.7-1.4-.6 0-1.3.4-1.6 1zM139.6 129.9c-.3.5.2 1.5 1.2 2.2 1.5 1.2 1.6 1.2.5-.2-.7-.9-1-1.9-.6-2.2.3-.4.4-.7 0-.7-.3 0-.8.4-1.1.9zM661 132.1c0 .5.5.7 1 .4.6-.3 1-.8 1-1.1 0-.2-.4-.4-1-.4-.5 0-1 .5-1 1.1zM130 135.4c0 .2.8 1 1.8 1.7 1.5 1.3 1.6 1.2.3-.4s-2.1-2.1-2.1-1.3zM665.5 138c-.3.5-.1 1 .4 1 .6 0 1.1-.5 1.1-1 0-.6-.2-1-.4-1-.3 0-.8.4-1.1 1zM131.6 139.8c-.3.5.1.9.9.9s1.2-.4.9-.9c-.3-.4-.7-.8-.9-.8-.2 0-.6.4-.9.8zM127.4 141.1c-.3.6-.2 1.5.3 2s.9.1.9-1.1c0-2.3-.2-2.4-1.2-.9zM112.7 154.1c.7.7 1.5 1 1.8.7.3-.3-.2-.9-1.2-1.2-1.4-.6-1.5-.5-.6.5zM109.3 156.9c0 1.1.5 1.8.9 1.5.4-.3.5-1.1.1-1.9-.7-2.1-1.2-1.9-1 .4zM98 159.5c0 .2.6.8 1.3 1.4 1 .8 1.4.7 1.4-.2 0-.8-.6-1.4-1.4-1.4-.7 0-1.3.1-1.3.2zM111.7 164.1c.7.7 1.5 1 1.8.7.3-.3-.2-.9-1.2-1.2-1.4-.6-1.5-.5-.6.5zM691.5 166c.3.5.8 1 1.1 1 .2 0 .4-.5.4-1 0-.6-.5-1-1.1-1-.5 0-.7.4-.4 1zM696.7 170.1c.7.7 1.5 1 1.8.7.3-.3-.2-.9-1.2-1.2-1.4-.6-1.5-.5-.6.5zM94.9 175.7c-1.3 1.6-1.2 1.7.4.4 1.6-1.3 2.1-2.1 1.3-2.1-.2 0-1 .8-1.7 1.7zM95.3 184.5c0 .8.4 1.2.9.9.4-.3.8-.9.8-1.5 0-.5-.4-.9-.8-.9-.5 0-.9.7-.9 1.5zM89.6 185.8c-.3.5.1.9.9.9s1.2-.4.9-.9c-.3-.4-.7-.8-.9-.8-.2 0-.6.4-.9.8zM705 186.1c0 .5.5.7 1 .4.6-.3 1-.8 1-1.1 0-.2-.4-.4-1-.4-.5 0-1 .5-1 1.1zM85.6 193.8c-.3.5.1.9.9.9s1.2-.4.9-.9c-.3-.4-.7-.8-.9-.8-.2 0-.6.4-.9.8zM717.5 197.1c-.4.6-.5 1.2-.2 1.5.2.3.7-.2 1-1.1.7-1.7.1-2-.8-.4zM83.5 198.9c-.3.5-.2 1.2.3 1.5.5.3.9-.1.9-.9 0-1.7-.3-1.9-1.2-.6zM77.6 201.8c-.3.5.1.9.9.9s1.2-.4.9-.9c-.3-.4-.7-.8-.9-.8-.2 0-.6.4-.9.8zM83.4 204c0 1.3.4 1.6 1 1 .7-.7.7-1.3 0-2-.6-.6-1-.3-1 1zM721.4 204.4c.1.8.5 1.8.8 2.2.4.3.5-.1.4-1-.1-.8-.5-1.8-.8-2.2-.4-.3-.5.1-.4 1zM77.5 209.9c-.3.7-.1 1 .6.9.7-.2 1.3.2 1.4.9 0 .6.3 1.4.7 1.8.3.4.5 0 .4-.9-.3-2.4-2.2-4-3.1-2.7zM73 212.1c0 .5.5.7 1 .4.6-.3 1-.8 1-1.1 0-.2-.4-.4-1-.4-.5 0-1 .5-1 1.1zM725 218c0 .5.5 1 1.1 1 .5 0 .7-.5.4-1-.3-.6-.8-1-1.1-1-.2 0-.4.4-.4 1zM722 219.4c0 .2.8 1 1.8 1.7 1.5 1.3 1.6 1.2.3-.4s-2.1-2.1-2.1-1.3zM727 227.4c0 .2.7.7 1.6 1 .8.3 1.2.2.9-.4-.6-1-2.5-1.4-2.5-.6zM67.5 230.9c-.3.5-.2 1.2.3 1.5.5.3.9-.1.9-.9 0-1.7-.3-1.9-1.2-.6zM57 238.1c0 .5.5.7 1 .4.6-.3 1-.8 1-1.1 0-.2-.4-.4-1-.4-.5 0-1 .5-1 1.1zM59.3 247.1c-.2 2.3.3 2.5 1 .4.4-.8.3-1.6-.1-1.9-.4-.3-.9.4-.9 1.5zM55.6 248.2c.3.5 1 .6 1.5.3 1.3-.9 1.1-1.2-.6-1.2-.8 0-1.2.4-.9.9zM745.3 249.5c0 .8.4 1.2.9.9.5-.3.6-1 .3-1.5-.9-1.3-1.2-1.1-1.2.6zM61.1 251.6c0 1.1.3 1.4.6.6.3-.7.2-1.6-.1-1.9-.3-.4-.6.2-.5 1.3zM741.6 252.7c-.6 1.4-.5 1.5.5.6.7-.7 1-1.5.7-1.8-.3-.3-.9.2-1.2 1.2zM55.6 255.3c.3 1 .9 1.5 1.2 1.2.3-.3 0-1.1-.7-1.8-1-.9-1.1-.8-.5.6zM46.5 256c-.3.6.1.7.9.4 1.8-.7 2.1-1.4.7-1.4-.6 0-1.3.4-1.6 1zM49.5 257.9c-.3.5-.2 1.2.3 1.5.5.3.9-.1.9-.9 0-1.7-.3-1.9-1.2-.6zM43.9 268.7c-1.3 1.6-1.2 1.7.4.4.9-.7 1.7-1.5 1.7-1.7 0-.8-.8-.3-2.1 1.3zM49.6 268.2c.3.5 1 .6 1.5.2.5-.3 1.6-.1 2.3.5.9.8 1.3.7 1.3-.2 0-.8-1.2-1.3-2.8-1.3-1.5 0-2.6.3-2.3.8zM746 269.4c0 .2.8 1 1.8 1.7 1.5 1.3 1.6 1.2.3-.4s-2.1-2.1-2.1-1.3zM753.3 273.5c0 .8.4 1.2.9.9.5-.3.6-1 .3-1.5-.9-1.3-1.2-1.1-1.2.6zM747 273.4c0 .2.7.7 1.6 1 .8.3 1.2.2.9-.4-.6-1-2.5-1.4-2.5-.6zM39.5 276c-.3.5-.1 1 .4 1 .6 0 1.1-.5 1.1-1 0-.6-.2-1-.4-1-.3 0-.8.4-1.1 1zM46.6 276c.5.8.9 1.8.9 2.2 0 .3.3.9.7 1.3.3.4.5 0 .4-.9-.1-.9-.8-2.2-1.6-2.9-1-1-1.1-.9-.4.3zM43.5 276.9c-.3.5-.2 1.2.3 1.5.5.3.9-.1.9-.9 0-1.7-.3-1.9-1.2-.6zM50.7 278.1c.7.7 1.5 1 1.8.7.3-.3-.2-.9-1.2-1.2-1.4-.6-1.5-.5-.6.5zM755.5 278c.3.5.8 1 1.1 1 .2 0 .4-.5.4-1 0-.6-.5-1-1.1-1-.5 0-.7.4-.4 1zM749.9 280.7c-1.3 1.6-1.2 1.7.4.4 1.6-1.3 2.1-2.1 1.3-2.1-.2 0-1 .8-1.7 1.7zM31 286.1c0 .5.5.7 1 .4.6-.3 1-.8 1-1.1 0-.2-.4-.4-1-.4-.5 0-1 .5-1 1.1zM37.6 285.8c-.3.4.4.9 1.5.9 2.3.2 2.5-.3.4-1-.8-.4-1.6-.3-1.9.1zM47.3 287.5c0 .8.4 1.2.9.9.5-.3.6-1 .3-1.5-.9-1.3-1.2-1.1-1.2.6zM759.6 288.2c.3.5 1 .6 1.5.3 1.3-.9 1.1-1.2-.6-1.2-.8 0-1.2.4-.9.9zM46.2 291.6c1 1 2 1.6 2.2 1.3.3-.3-.5-1.1-1.7-1.8-2.1-1.3-2.1-1.2-.5.5zM43.4 292.4c.1.8.5 1.8.8 2.2.4.3.5-.1.4-1-.1-.8-.5-1.8-.8-2.2-.4-.3-.5.1-.4 1zM752 291.4c0 .2.8 1 1.8 1.7 1.5 1.3 1.6 1.2.3-.4s-2.1-2.1-2.1-1.3zM39 293.4c0 .2.7.7 1.6 1 .8.3 1.2.2.9-.4-.6-1-2.5-1.4-2.5-.6zM31.6 299.3c.3 1 .9 1.5 1.2 1.2.3-.3 0-1.1-.7-1.8-1-.9-1.1-.8-.5.6zM36 300c-.9.6-1 1-.3 1 .6 0 1.5-.5 1.8-1 .8-1.2.4-1.2-1.5 0zM39 299.7c0 .6.8 1.7 1.8 2.4 1.6 1.3 1.6 1.3.2-.6-.8-1.1-1.6-2.2-1.7-2.4-.2-.2-.3 0-.3.6zM755.3 300.6c0 .9.4 1.1 1.2.4.7-.5 1.4-.9 1.6-.7.2.1.3 0 .1-.2-.7-1.1-2.9-.7-2.9.5zM757.5 303c-.4.6-1.1.7-1.7.4-.7-.4-.8-.2-.4.5.6.9 1.1.9 2.2 0 1.4-1.1 1.8-1.9 1-1.9-.3 0-.8.5-1.1 1zM44 304c-.9.6-1 1-.3 1 .6 0 1.5-.5 1.8-1 .8-1.2.4-1.2-1.5 0zM763 304.4c.7.7 1.3.7 2 0 .6-.6.3-1-1-1s-1.6.4-1 1zM758.9 305.7c-1.3 1.6-1.2 1.7.4.4 1.6-1.3 2.1-2.1 1.3-2.1-.2 0-1 .8-1.7 1.7zM40.9 307.6c-1.9 2.4-2 4.4-.1 3.6 1.1-.4 1.2-.7.3-1-.9-.3-.8-.9.5-2.3.9-1 1.5-1.9 1.2-1.9-.3 0-1.2.7-1.9 1.6zM31.6 307.8c-.3.5.1.9.9.9s1.2-.4.9-.9c-.3-.4-.7-.8-.9-.8-.2 0-.6.4-.9.8zM759.6 307.9c-.3.5.2 1.5 1.2 2.2 1.5 1.2 1.6 1.2.5-.2-.7-.9-1-1.9-.6-2.2.3-.4.4-.7 0-.7-.3 0-.8.4-1.1.9zM36 310c-.9.6-1 1-.3 1 .6 0 1.5-.5 1.8-1 .8-1.2.4-1.2-1.5 0zM765 310.1c0 .5.5.7 1 .4.6-.3 1-.8 1-1.1 0-.2-.4-.4-1-.4-.5 0-1 .5-1 1.1zM38.6 313.8c-.3.5.1.9.9.9s1.2-.4.9-.9c-.3-.4-.7-.8-.9-.8-.2 0-.6.4-.9.8zM757.5 316c-.3.5-.1 1 .4 1 .6 0 1.1-.5 1.1-1 0-.6-.2-1-.4-1-.3 0-.8.4-1.1 1zM767.5 316c.3.5.8 1 1.1 1 .2 0 .4-.5.4-1 0-.6-.5-1-1.1-1-.5 0-.7.4-.4 1zM39 317c-.9.6-1 1-.3 1 .6 0 1.5-.5 1.8-1 .8-1.2.4-1.2-1.5 0zM763.3 318.5c0 .8.4 1.2.9.9.5-.3.6-1 .3-1.5-.9-1.3-1.2-1.1-1.2.6zM28 320c-.9.6-1 1-.3 1 .6 0 1.5-.5 1.8-1 .8-1.2.4-1.2-1.5 0zM38 323.1c0 .5-.4.8-.9.4-.5-.3-1.2-.1-1.5.4-.4.5.2.8 1.1.7 1.5-.3 3.3-2.6 1.9-2.6-.3 0-.6.5-.6 1.1zM769.5 324.9c-.3.5-.2 1.2.3 1.5.5.3.9-.1.9-.9 0-1.7-.3-1.9-1.2-.6zM39.3 326.5c0 .8.4 1.2.9.9.4-.3.8-.9.8-1.5 0-.5-.4-.9-.8-.9-.5 0-.9.7-.9 1.5zM27 327.8c0 .5.7.9 1.5.9s1.2-.4.9-.9c-.3-.4-.9-.8-1.5-.8-.5 0-.9.4-.9.8zM759.5 328c.3.5.8 1 1.1 1 .2 0 .4-.5.4-1 0-.6-.5-1-1.1-1-.5 0-.7.4-.4 1zM767.3 329.5c0 .8.4 1.2.9.9.5-.3.6-1 .3-1.5-.9-1.3-1.2-1.1-1.2.6zM37.7 331.1c.7.7 1.5 1 1.8.7.3-.3-.2-.9-1.2-1.2-1.4-.6-1.5-.5-.6.5zM31.6 331.9c-.3.5.2 1.5 1.2 2.2 1.5 1.2 1.6 1.2.5-.2-.7-.9-1-1.9-.6-2.2.3-.4.4-.7 0-.7-.3 0-.8.4-1.1.9zM24.6 333.8c-.3.5.1.9.9.9s1.2-.4.9-.9c-.3-.4-.7-.8-.9-.8-.2 0-.6.4-.9.8zM31.3 336.5c0 .8.4 1.2.9.9.5-.3.6-1 .3-1.5-.9-1.3-1.2-1.1-1.2.6zM25.6 337.8c-.3.5.1.9.9.9s1.2-.4.9-.9c-.3-.4-.7-.8-.9-.8-.2 0-.6.4-.9.8zM765.3 340.7c0 1 .4 1 1.6.1.9-.7 1.8-1.3 2-1.5.2-.1-.5-.1-1.6 0-1.1 0-2 .7-2 1.4zM35 342c0 .5.5 1 1 1 .6 0 1-.5 1-1 0-.6-.4-1-1-1-.5 0-1 .4-1 1zM769 342c0 .5.5 1 1.1 1 .5 0 .7-.5.4-1-.3-.6-.8-1-1.1-1-.2 0-.4.4-.4 1zM766.9 344.3c.6.8.7 1.8.3 2.2-.4.5-.1.5.6.1 1-.6 1-1.1.1-2.2-.6-.8-1.4-1.4-1.6-1.4-.3 0 0 .6.6 1.3zM763 344.4c0 .2.8 1 1.8 1.7 1.5 1.3 1.6 1.2.3-.4s-2.1-2.1-2.1-1.3zM775 346c0 .5.5 1 1.1 1 .5 0 .7-.5.4-1-.3-.6-.8-1-1.1-1-.2 0-.4.4-.4 1zM27 348.1c0 .5.5.7 1 .4.6-.3 1-.8 1-1.1 0-.2-.4-.4-1-.4-.5 0-1 .5-1 1.1zM31.2 347.6c.3.3 1.4.7 2.3.8.9.1 2.1.9 2.6 1.7.5.9.9 1 .9.2 0-.6-.6-1.5-1.2-2-1.6-.9-5.4-1.6-4.6-.7zM27.5 350.9c-.3.5-.2 1.2.3 1.5.5.3.9-.1.9-.9 0-1.7-.3-1.9-1.2-.6zM22.5 352c-.3.6.1.7.9.4 1.8-.7 2.1-1.4.7-1.4-.6 0-1.3.4-1.6 1zM770 351.4c0 .2.8 1 1.8 1.7 1.5 1.3 1.6 1.2.3-.4s-2.1-2.1-2.1-1.3zM775 352.1c0 .5.5.7 1 .4.6-.3 1-.8 1-1.1 0-.2-.4-.4-1-.4-.5 0-1 .5-1 1.1zM765.6 355.3c.3 1 .9 1.5 1.2 1.2.3-.3 0-1.1-.7-1.8-1-.9-1.1-.8-.5.6zM779.5 356c-.3.5-.1 1 .4 1 .6 0 1.1-.5 1.1-1 0-.6-.2-1-.4-1-.3 0-.8.4-1.1 1zM763 356.9c0 .5.7 1.2 1.6 1.5 1.4.5 1.5.4.4-.9-1.4-1.7-2-1.9-2-.6zM31 358.1c0 .5.5.7 1 .4.6-.3 1-.8 1-1.1 0-.2-.4-.4-1-.4-.5 0-1 .5-1 1.1zM34.8 357.7c.7.3 1.6.2 1.9-.1.4-.3-.2-.6-1.3-.5-1.1 0-1.4.3-.6.6zM28 359.4c0 .2.8 1 1.8 1.7 1.5 1.3 1.6 1.2.3-.4s-2.1-2.1-2.1-1.3zM33 359.4c0 .2.7.7 1.6 1 .8.3 1.2.2.9-.4-.6-1-2.5-1.4-2.5-.6zM20 362c-1.2.7-1 .9.7.7 1.2 0 1.9-.5 1.7-.9-.6-1-.6-1-2.4.2zM765.5 363.1c-.4.6-.5 1.2-.2 1.5.2.3.7-.2 1-1.1.7-1.7.1-2-.8-.4zM32.4 364.5c-.4.8-1.1 1.2-1.7.8-.5-.3-.7-.1-.4.5.8 1.2 3.2 1 4.4-.3.5-.4.2-.5-.6 0-1.1.6-1.3.4-.8-.8.3-1 .4-1.7.1-1.7-.2 0-.7.7-1 1.5zM768.5 366.1c-.4.6-1.3.8-1.9.6-.7-.3-1.3.1-1.3.8 0 .8.7 1.1 1.6.7 1.4-.5 1.4-.4.1 1.4-1.4 1.8-1.4 1.8.3.5.9-.8 1.5-1.6 1.2-1.9-.3-.3 0-1.1.6-1.9.6-.7.9-1.3.6-1.3-.3 0-.9.5-1.2 1.1zM771.9 367.2c-.5 1.8-.6 3.8-.1 3.4.7-.8 1.2-3.6.6-3.6-.2 0-.4.1-.5.2zM33.5 370.1c-.6.8-.4 1 .5.4.9-.5 1-.1.6 1.6-.6 2.1-.6 2.2.5.6.7-1.3.8-2.2.1-2.9-.6-.6-1.2-.6-1.7.3zM29.9 371.2c.7.9 1 2.1.7 2.6-.3.5.1.9.9.9 2.1 0 1.9-1.1-.7-3.3-1.7-1.4-2-1.5-.9-.2zM19.3 373.5c0 .8.4 1.2.9.9.5-.3.6-1 .3-1.5-.9-1.3-1.2-1.1-1.2.6zM27.5 372.9c-.3.5-.2 1.2.3 1.5.5.3.9-.1.9-.9 0-1.7-.3-1.9-1.2-.6zM766.6 375.8c-.3.5.1.9.9.9s1.5-.4 1.5-.9c0-.4-.4-.8-.9-.8-.6 0-1.2.4-1.5.8zM19.3 378.5c0 .8.4 1.2.9.9.5-.3.6-1 .3-1.5-.9-1.3-1.2-1.1-1.2.6zM23 379.5c0 .7 3 1.3 3.4.7.3-.4-.4-.9-1.5-.9-1-.1-1.9 0-1.9.2zM21.5 382c-.3.5-.1 1 .4 1 .6 0 1.1-.5 1.1-1 0-.6-.2-1-.4-1-.3 0-.8.4-1.1 1zM767.6 382.5c-.3.9-1 1.3-1.6 1-.5-.3-1-.1-1 .4 0 .6.4 1.1.9 1.1 1.2 0 3.5-2.9 2.9-3.6-.3-.3-.8.2-1.2 1.1zM769.9 384.7c-1.3 1.6-1.2 1.7.4.4.9-.7 1.7-1.5 1.7-1.7 0-.8-.8-.3-2.1 1.3zM26.9 385.7c-1.3 1.6-1.2 1.7.4.4.9-.7 1.7-1.5 1.7-1.7 0-.8-.8-.3-2.1 1.3zM30 387.1c0 .5-.4.7-1 .4-1.4-.9-1.2.1.3 1.3 1 .8 1.3.6 1.4-.9.1-1 0-1.9-.3-1.9-.2 0-.4.5-.4 1.1zM771.5 387c-.4.6-1 .8-1.4.6-.4-.3-1.3 0-2.1.5-1.1.7-1 .8.8.6 2-.3 5.6-2.7 4-2.7-.4 0-1 .5-1.3 1zM32.6 388.3c.3 1 .9 1.5 1.2 1.2.3-.3 0-1.1-.7-1.8-1-.9-1.1-.8-.5.6zM17.6 389.3c.3 1 .9 1.5 1.2 1.2.3-.3 0-1.1-.7-1.8-1-.9-1.1-.8-.5.6zM26.7 390.1c.7.7 1.5 1 1.8.7.3-.3-.2-.9-1.2-1.2-1.4-.6-1.5-.5-.6.5zM777.6 389.8c-.3.5.1.9.9.9s1.2-.4.9-.9c-.3-.4-.7-.8-.9-.8-.2 0-.6.4-.9.8zM31 392c0 .5.5 1 1 1 .6 0 1-.5 1-1 0-.6-.4-1-1-1-.5 0-1 .4-1 1zM33.5 393.9c-.6 1.1 1.3 2.6 2.2 1.7.4-.3.1-.6-.6-.6s-.9-.5-.6-1c.3-.6.4-1 .1-1-.3 0-.7.4-1.1.9zM769.9 396.7c-1.3 1.6-1.2 1.7.4.4.9-.7 1.7-1.5 1.7-1.7 0-.8-.8-.3-2.1 1.3zM16.6 398.2c.3.5 1 .6 1.5.3 1.3-.9 1.1-1.2-.6-1.2-.8 0-1.2.4-.9.9zM21.5 398c.3.5.8 1 1.1 1 .2 0 .4-.5.4-1 0-.6-.5-1-1.1-1-.5 0-.7.4-.4 1zM33.9 397.2c-.5 1.9-.8 5-.4 4.6.7-.7 1.5-4.8.9-4.8-.2 0-.4.1-.5.2zM766.6 398.4c.5 1.3.4 1.7-.3 1.3-1.2-.8-1.2 1.9 0 2.8.4.3.5.2.2-.2-.3-.3 0-1.2.7-2 .8-1 .8-1.7-.1-2.6-1-.9-1.1-.8-.5.7zM29.5 398.8c-.5.4-1.7 1.6-2.5 2.7-1.4 1.9-1.4 2 .6.2 1.1-.9 2.3-1.5 2.6-1.2.2.3.5-.2.5-1s-.1-1.5-.1-1.5c-.1 0-.5.4-1.1.8zM30 403.1c0 .5-.4.7-1 .4-1.4-.9-1.2.1.3 1.3 1 .8 1.3.6 1.4-.9.1-1 0-1.9-.3-1.9-.2 0-.4.5-.4 1.1zM769 402.4c0 .2.8 1 1.8 1.7 1.5 1.3 1.6 1.2.3-.4s-2.1-2.1-2.1-1.3zM32.6 404.3c.3 1 .9 1.5 1.2 1.2.3-.3 0-1.1-.7-1.8-1-.9-1.1-.8-.5.6zM17.6 405.3c.3 1 .9 1.5 1.2 1.2.3-.3 0-1.1-.7-1.8-1-.9-1.1-.8-.5.6zM26.7 406.1c.7.7 1.5 1 1.8.7.3-.3-.2-.9-1.2-1.2-1.4-.6-1.5-.5-.6.5zM776.6 406.2c.3.5 1 .6 1.5.3 1.3-.9 1.1-1.2-.6-1.2-.8 0-1.2.4-.9.9zM33.4 408.5c.1.8.6 1.8 1.1 2.2.4.4.5.3.2-.4-.4-.6-.2-1.3.5-1.5.8-.3.6-.6-.4-1s-1.5-.2-1.4.7zM766.6 410.5c.5 1.2.4 1.6-.3 1.2-1.3-.8-1.1 1.8.1 3 .4.4.6.1.4-.7-.2-1.1.5-1.5 2.4-1.4 1.5.1 2.5-.3 2.2-.8-.3-.5-.9-.7-1.2-.4-.3.3-1.4-.2-2.4-1.1-1.8-1.6-1.8-1.6-1.2.2zM773 410c0 .5.5 1 1.1 1 .5 0 .7-.5.4-1-.3-.6-.8-1-1.1-1-.2 0-.4.4-.4 1zM33.5 412.9c-.3.5 0 1.3.6 1.7.7.4.9.3.5-.4-.3-.5 0-1.3.6-1.5.9-.4 1-.6.1-.6-.6-.1-1.4.3-1.8.8zM16.6 413.8c-.3.5.1.9.9.9s1.2-.4.9-.9c-.3-.4-.7-.8-.9-.8-.2 0-.6.4-.9.8zM21.6 414.2c.3.5 1 .6 1.5.3 1.3-.9 1.1-1.2-.6-1.2-.8 0-1.2.4-.9.9zM777.6 413.8c-.3.5.1.9.9.9s1.2-.4.9-.9c-.3-.4-.7-.8-.9-.8-.2 0-.6.4-.9.8zM29 415c-.8.5-1.2 1.2-.9 1.5.4.3 1.2-.1 1.9-1 1.4-1.7 1.1-1.9-1-.5z"/><path d="M770.2 415.5c1.5 1.6 2 1.7 3 .6 1.1-1.1 1-1.3 0-.7-.7.4-2.1.2-3-.5-1.5-1.2-1.5-1.1 0 .6zM30.6 417.8c-.3.5.1.9.9.9s1.5-.4 1.5-.9c0-.4-.4-.8-.9-.8-.6 0-1.2.4-1.5.8zM767.6 418.7c-.6 1.4-.5 1.5.5.6.7-.7 1-1.5.7-1.8-.3-.3-.9.2-1.2 1.2zM34 420c-.9.6-1 1-.3 1 .6 0 1.5-.5 1.8-1 .8-1.2.4-1.2-1.5 0zM775.5 420c-.3.5-.1 1 .4 1 .6 0 1.1-.5 1.1-1 0-.6-.2-1-.4-1-.3 0-.8.4-1.1 1zM19.3 421.5c0 .8.4 1.2.9.9.5-.3.6-1 .3-1.5-.9-1.3-1.2-1.1-1.2.6zM27 420.4c0 .2.8 1 1.8 1.7 1.5 1.3 1.6 1.2.3-.4s-2.1-2.1-2.1-1.3zM35 422c-.9.6-1 1-.3 1 .6 0 1.5-.5 1.8-1 .8-1.2.4-1.2-1.5 0zM30.6 423.8c-.3.5.1.9.9.9s1.5-.4 1.5-.9c0-.4-.4-.8-.9-.8-.6 0-1.2.4-1.5.8zM35 425c-.9.6-1 1-.3 1 .6 0 1.5-.5 1.8-1 .8-1.2.4-1.2-1.5 0zM19.3 426.5c0 .8.4 1.2.9.9.5-.3.6-1 .3-1.5-.9-1.3-1.2-1.1-1.2.6zM763.3 427c.1 2.1 1 1.8 1.3-.5.1-.8-.2-1.5-.6-1.5-.5 0-.8.9-.7 2zM23.4 427.1c-.3.6-.2 1.5.3 2s.9.1.9-1.1c0-2.3-.2-2.4-1.2-.9zM28.9 427.6c-1.1 1.4-2.4 5.2-1.4 4.2.2-.1.3-.6.2-.9-.1-.4.7-1.6 1.7-2.8 1.1-1.2 1.7-2.1 1.4-2.1-.3 0-1.2.7-1.9 1.6zM33 427.4c0 .2.7.7 1.6 1 .8.3 1.2.2.9-.4-.6-1-2.5-1.4-2.5-.6zM30.5 430c-.3.6.1.7.9.4 1.8-.7 2.1-1.4.7-1.4-.6 0-1.3.4-1.6 1zM23.6 432.7c-.6 1.4-.5 1.5.5.6.7-.7 1-1.5.7-1.8-.3-.3-.9.2-1.2 1.2zM35.6 432.5c-.3.8 0 1.7.6 2.1.6.4.8.3.4-.4-.3-.5-.1-1.2.6-1.4.8-.3.9-.6.1-1.1-.6-.4-1.3 0-1.7.8zM27 433.4c0 .2.7.7 1.6 1 .8.3 1.2.2.9-.4-.6-1-2.5-1.4-2.5-.6zM33 436c0 .5.5 1 1 1 .6 0 1-.5 1-1 0-.6-.4-1-1-1-.5 0-1 .4-1 1zM771 436.1c0 .5.5.7 1 .4.6-.3 1-.8 1-1.1 0-.2-.4-.4-1-.4-.5 0-1 .5-1 1.1zM775 436c0 .5.5 1 1.1 1 .5 0 .7-.5.4-1-.3-.6-.8-1-1.1-1-.2 0-.4.4-.4 1zM28 438c-.9.6-1 1-.3 1 .6 0 1.5-.5 1.8-1 .8-1.2.4-1.2-1.5 0zM29.9 440.7c-1.3 1.6-1.2 1.7.4.4.9-.7 1.7-1.5 1.7-1.7 0-.8-.8-.3-2.1 1.3zM765 444c0 .4 1.3.7 2.9.6 1.6 0 2.7-.3 2.5-.6-.8-.7-5.4-.7-5.4 0zM761 446.9c0 .6.4 1.3 1 1.6.6.3.7-.1.4-.9-.7-1.8-1.4-2.1-1.4-.7zM33.1 447.3c.2.1 1.3.9 2.4 1.7 1.9 1.4 1.9 1.4.6-.3-.7-.9-1.8-1.7-2.4-1.7-.6 0-.8.1-.6.3zM32 450c-.9.6-1 1-.3 1 .6 0 1.5-.5 1.8-1 .8-1.2.4-1.2-1.5 0zM34.1 452.6c0 1.1.3 1.4.6.6.3-.7.2-1.6-.1-1.9-.3-.4-.6.2-.5 1.3zM37 452.5c0 .8.2 1.5.4 1.5s.6-.7 1-1.5c.3-.8.1-1.5-.4-1.5-.6 0-1 .7-1 1.5zM763.7 452.5c-.4.8-.3 1.6.1 1.9.4.3.9-.4.9-1.5.2-2.3-.3-2.5-1-.4zM39.7 452.7c-1 .9-.9 2.3.1 2.3.5 0 .9-.7.9-1.5 0-1.7-.1-1.8-1-.8zM769 454c0 .5.5 1 1.1 1 .5 0 .7-.5.4-1-.3-.6-.8-1-1.1-1-.2 0-.4.4-.4 1zM23 456.4c.7.7 1.3.7 2 0 .6-.6.3-1-1-1s-1.6.4-1 1zM38 458.7c1.1 2.4 3 3.1 3 1.1 0-.6-.3-.8-.7-.5-.3.4-1.2-.1-2-1.1-1.3-1.5-1.3-1.5-.3.5zM775 458.4c0 .2.8 1 1.8 1.7 1.5 1.3 1.6 1.2.3-.4s-2.1-2.1-2.1-1.3zM767.6 460.2c.3.5 1 .6 1.5.3 1.3-.9 1.1-1.2-.6-1.2-.8 0-1.2.4-.9.9zM25.4 461.8c.4.3 1.4.7 2.2.8.9.1 1.3 0 1-.4-.4-.3-1.4-.7-2.2-.8-.9-.1-1.3 0-1 .4zM758 461.5c0 .7 3 1.3 3.4.7.3-.4-.4-.9-1.5-.9-1-.1-1.9 0-1.9.2zM765.6 463.3c.3 1 .9 1.5 1.2 1.2.3-.3 0-1.1-.7-1.8-1-.9-1.1-.8-.5.6zM761.9 464.7c-1.2 1.6-1.2 1.7.2.6.9-.7 2-.9 2.4-.5.5.4.5.1.1-.6-.9-1.6-1.1-1.5-2.7.5zM771.6 463.8c-.3.5.1.9.9.9s1.2-.4.9-.9c-.3-.4-.7-.8-.9-.8-.2 0-.6.4-.9.8zM33.5 467.1c-.4.6-1.4.8-2.4.4-1.3-.5-1.4-.4-.3.6 1 1.1 1.5 1 2.9-.4 1-.9 1.4-1.7 1.1-1.7-.4 0-1 .5-1.3 1.1zM39.5 469c.3.6.1 1-.6 1s-1 .3-.6.6c.3.3 1.3.2 2.2-.4 1.6-.8 1.6-.9.1-1.5-1-.4-1.5-.3-1.1.3zM759 469.7c0 .5.5 1.5 1 2.3.7 1.2.9 1 .7-.8-.1-1.9-1.7-3.3-1.7-1.5zM26.4 471.8c.4.3 1.4.7 2.2.8.9.1 1.3 0 1-.4-.4-.3-1.4-.7-2.2-.8-.9-.1-1.3 0-1 .4zM41 471.4c0 .2.7.7 1.6 1 .8.3 1.2.2.9-.4-.6-1-2.5-1.4-2.5-.6zM34.9 474.4c.5.6.7 1.9.6 2.8-.2.9.4 2.3 1.3 3 1.5 1.1 1.5 1.1.6-.2-.6-.8-1-2.7-.9-4.1.1-1.5-.3-2.6-1.1-2.6-.9 0-1 .5-.5 1.1zM41 473.4c0 .3.9 1 2 1.6 1.1.6 2 .8 2 .6 0-.3-.9-1-2-1.6-1.1-.6-2-.8-2-.6zM769.4 474.4c.1.8.5 1.8.8 2.2.4.3.5-.1.4-1-.1-.8-.5-1.8-.8-2.2-.4-.3-.5.1-.4 1zM760.6 475.5c-1.1.8-1.5 1.5-.9 1.5s1.6-.7 2.3-1.5c1.6-1.9 1.1-1.9-1.4 0zM39.5 476c.3.5.8 1 1.1 1 .2 0 .4-.5.4-1 0-.6-.5-1-1.1-1-.5 0-.7.4-.4 1zM755.5 479c-.3.6.1.7.9.4 1.8-.7 2.1-1.4.7-1.4-.6 0-1.3.4-1.6 1zM39.9 480.6c-.7.8-.7 1.4.1 1.9.6.4 1 .3.9-.2-.3-1.9.2-2.7 1-1.5.7 1.1.9 1.1 1.4 0 .6-1.8-1.9-1.9-3.4-.2zM769.6 479.8c-.3.5.1.9.9.9s1.2-.4.9-.9c-.3-.4-.7-.8-.9-.8-.2 0-.6.4-.9.8zM43.7 482.4c-.3.8 0 2.2.7 3.2 1 1.3 1.5 1.4 2.1.4.5-.9.4-1.1-.3-.6-1.2.7-1.6-.5-1.3-3.2.2-1.6-.6-1.5-1.2.2zM753.4 482.3c-.4.7-.4.9.1.5.4-.4 1.3 0 2 .8 1.1 1.5 1.2 1.5 1.2.1 0-2-2.4-3-3.3-1.4zM31.3 484.5c0 .8.4 1.2.9.9.5-.3.6-1 .3-1.5-.9-1.3-1.2-1.1-1.2.6zM763 484c0 .5.5 1 1.1 1 .5 0 .7-.5.4-1-.3-.6-.8-1-1.1-1-.2 0-.4.4-.4 1zM752 484.4c0 .2.7.7 1.6 1 .8.3 1.2.2.9-.4-.6-1-2.5-1.4-2.5-.6zM38.8 486.1c.6.9.9 1.8.6 2.2-.3.3.2.4 1.3.3 1-.2 2.5.2 3.3.8 1.3 1 1.3.9.1-.7-.8-.9-1.6-1.5-1.9-1.2-.3.3-1.5-.3-2.6-1.2-1.5-1.4-1.8-1.4-.8-.2zM755.3 487.7c-.3 1-.8 2.2-1.1 2.7-.3.5 0 .6.5.3 1.1-.7 2.5-4.7 1.7-4.7-.3 0-.7.8-1.1 1.7zM35 489.4c0 .2.7.7 1.6 1 .8.3 1.2.2.9-.4-.6-1-2.5-1.4-2.5-.6zM44 492c-.8.5-1 1-.5 1 .6 0 1.7-.5 2.5-1s1.1-1 .5-1c-.5 0-1.7.5-2.5 1zM751.2 492.6c1 1 2 1.6 2.2 1.3.3-.3-.5-1.1-1.7-1.8-2.1-1.3-2.1-1.2-.5.5zM756.5 492c.3.5.8 1 1.1 1 .2 0 .4-.5.4-1 0-.6-.5-1-1.1-1-.5 0-.7.4-.4 1zM39 492.4c0 .2.8 1 1.8 1.7 1.5 1.3 1.6 1.2.3-.4s-2.1-2.1-2.1-1.3zM47.5 493c-.3.5-.1 1 .4 1 .6 0 1.1-.5 1.1-1 0-.6-.2-1-.4-1-.3 0-.8.4-1.1 1zM45 494.4c0 1.3 3.7 2.4 5.1 1.5 1.2-.9 1.2-1-.1-.6-.8.2-2.3 0-3.2-.5-1-.5-1.8-.6-1.8-.4zM36.6 495.8c-.3.5.1.9.9.9s1.5-.4 1.5-.9c0-.4-.4-.8-.9-.8-.6 0-1.2.4-1.5.8zM751.5 496c-.3.5-.1 1 .4 1 .6 0 1.1-.5 1.1-1 0-.6-.2-1-.4-1-.3 0-.8.4-1.1 1zM39.9 498.7c-1.3 1.6-1.2 1.7.4.4.9-.7 1.7-1.5 1.7-1.7 0-.8-.8-.3-2.1 1.3zM749.4 497.8c.3.5 0 1.3-.6 1.5-.9.4-1 .6-.1.6 1.7.1 2.5-1.6 1.2-2.5-.7-.4-.9-.3-.5.4zM31.6 500.7c-.6 1.4-.5 1.5.5.6.7-.7 1-1.5.7-1.8-.3-.3-.9.2-1.2 1.2zM43.3 500.8c0 1 .7 1.9 1.4 1.9.9 0 1-.4.3-1.2-.5-.7-.7-1.5-.3-1.8.3-.4.1-.7-.5-.7s-1 .8-.9 1.8zM754.6 500.1c.2.4 1.3.7 2.4.6 2.3-.2 1.7-1-1-1.2-1-.1-1.7.2-1.4.6zM751.5 501.1c-.4.6-.5 1.2-.2 1.5.2.3.7-.2 1-1.1.7-1.7.1-2-.8-.4zM39.6 501.8c-.3.5.1.9.9.9s1.2-.4.9-.9c-.3-.4-.7-.8-.9-.8-.2 0-.6.4-.9.8zM51.3 503.6c0 1.7.2 2.2.7 1.3.5-.6.6-1.8.3-2.6-.8-1.9-1-1.6-1 1.3zM47.7 503.1c.7.7 1.5 1 1.8.7.3-.3-.2-.9-1.2-1.2-1.4-.6-1.5-.5-.6.5zM751.4 505.4c.1.8.5 1.8.8 2.2.4.3.5-.1.4-1-.1-.8-.5-1.8-.8-2.2-.4-.3-.5.1-.4 1zM35 506c0 .5.5 1 1.1 1 .5 0 .7-.5.4-1-.3-.6-.8-1-1.1-1-.2 0-.4.4-.4 1zM46.6 506.2c.3.5 1 .6 1.5.3 1.3-.9 1.1-1.2-.6-1.2-.8 0-1.2.4-.9.9zM49.3 507.7c.9.8 4.7 1.1 4.7.4 0-.5-1.1-.9-2.5-.9s-2.4.2-2.2.5zM748.2 507.9c-1.1.6-.9.9.6 1.3s1.9.2 1.5-.8c-.6-1.6-.4-1.6-2.1-.5zM45.5 509c-.3.6.1.7.9.4 1.8-.7 2.1-1.4.7-1.4-.6 0-1.3.4-1.6 1zM47.7 511.8c-1.1 2.3-1.1 2.9-.1 2.9.7 0 1.3-.3 1.2-.6-.2-2.5.4-4.1 1.4-3.5.7.4.8.3.4-.4-1-1.7-1.3-1.5-2.9 1.6zM39 512c0 .5.5 1 1.1 1 .5 0 .7-.5.4-1-.3-.6-.8-1-1.1-1-.2 0-.4.4-.4 1zM747.6 511.9c-.3.5.2 1.5 1.2 2.2 1.5 1.2 1.6 1.2.5-.2-.7-.9-1-1.9-.6-2.2.3-.4.4-.7 0-.7-.3 0-.8.4-1.1.9zM43.5 514.9c-.3.5-.2 1.2.3 1.5.5.3.9-.1.9-.9 0-1.7-.3-1.9-1.2-.6zM39 515.4c0 .2.7.7 1.6 1 .8.3 1.2.2.9-.4-.6-1-2.5-1.4-2.5-.6zM743 515.4c0 .2.7.7 1.6 1 .8.3 1.2.2.9-.4-.6-1-2.5-1.4-2.5-.6zM757.4 516.4c.1.8.5 1.8.8 2.2.4.3.5-.1.4-1-.1-.8-.5-1.8-.8-2.2-.4-.3-.5.1-.4 1zM53 518c-.9.6-1 1-.3 1 .6 0 1.5-.5 1.8-1 .8-1.2.4-1.2-1.5 0zM747.2 517.9c.2 1.8-.3 2.4-1.1 1.3-.7-1.1-.9-1-1.4.3-.4.9-.3 1.4.2 1 .5-.3 1.1-.1 1.3.4.1.5 1.1-.1 2-1.3 1.3-1.8 1.3-2.3.3-2.3-.8 0-1.4.3-1.3.6zM55.5 519c-.3.5-.1 1 .4 1 .6 0 1.1-.5 1.1-1 0-.6-.2-1-.4-1-.3 0-.8.4-1.1 1zM57.7 520.5c-.6 1.5 1 3.2 2 2.1.4-.3.1-.6-.5-.6s-.9-.7-.6-1.5c.4-.8.4-1.5.1-1.5-.3 0-.7.7-1 1.5zM45.5 522c.3.5.8 1 1.1 1 .2 0 .4-.5.4-1 0-.6-.5-1-1.1-1-.5 0-.7.4-.4 1zM51.3 523c1.9 2.5 2 2.6 1.4.8-.3-.9-.1-1.9.6-2.1.7-.3.2-.4-1-.4-1.8.1-2 .4-1 1.7zM753 522c0 .5.5 1 1.1 1 .5 0 .7-.5.4-1-.3-.6-.8-1-1.1-1-.2 0-.4.4-.4 1zM48 523.4c0 .2.8 1 1.8 1.7 1.5 1.3 1.6 1.2.3-.4s-2.1-2.1-2.1-1.3zM56.7 524.1c.7.7 1.5 1 1.8.7.3-.3-.2-.9-1.2-1.2-1.4-.6-1.5-.5-.6.5zM742.8 523.7c.7.3 1.6.2 1.9-.1.4-.3-.2-.6-1.3-.5-1.1 0-1.4.3-.6.6zM55.8 527.7c.5 2.1.7 2.3 1 .9.2-1 0-2.2-.6-2.8-.6-.6-.7 0-.4 1.9zM59.5 526c-.8 1.3.3 3 1.8 2.9.9 0 .9-.2 0-.6-.7-.2-1.3-.9-1.3-1.4 0-.6.5-.7 1.2-.3.7.4.8.3.4-.4-.9-1.5-1.3-1.5-2.1-.2zM35.6 527.3c.3 1 .9 1.5 1.2 1.2.3-.3 0-1.1-.7-1.8-1-.9-1.1-.8-.5.6zM53.4 528c0 1.3.4 1.6 1 1 .7-.7.7-1.3 0-2-.6-.6-1-.3-1 1zM739.2 528.6c1 1 2 1.6 2.2 1.3.3-.3-.5-1.1-1.7-1.8-2.1-1.3-2.1-1.2-.5.5zM741 527.4c0 .2.7.7 1.6 1 .8.3 1.2.2.9-.4-.6-1-2.5-1.4-2.5-.6zM737.5 531c.6 3 1.6 4 1.2 1.2-.2-1.2-.6-2.4-1-2.8-.3-.4-.4.4-.2 1.6zM62.1 531.7c-.1 1.6-.6 2-2.3 1.7-2.1-.4-2.1-.4-.3.5 2.4 1.1 3.9 0 3.2-2.5-.4-1.6-.5-1.6-.6.3zM51.9 532.7c-1.3 1.6-1.2 1.7.4.4.9-.7 1.7-1.5 1.7-1.7 0-.8-.8-.3-2.1 1.3zM55.6 532.2c.3.5 1 .6 1.5.3 1.3-.9 1.1-1.2-.6-1.2-.8 0-1.2.4-.9.9zM735.7 533.7c-.4.3-.7 1.1-.7 1.7 0 .6.5.5 1.2-.2.6-.6.9-1.4.7-1.7-.3-.3-.9-.2-1.2.2zM59.3 536.5c0 .7.6 1.1 1.4.8.7-.3 1.3-.6 1.3-.8 0-.2-.6-.5-1.3-.8-.8-.3-1.4.1-1.4.8zM737.6 535.8c-.3.5.1.9.9.9s1.2-.4.9-.9c-.3-.4-.7-.8-.9-.8-.2 0-.6.4-.9.8zM49.5 538c-.3.5-.1 1 .4 1 .6 0 1.1-.5 1.1-1 0-.6-.2-1-.4-1-.3 0-.8.4-1.1 1zM732.5 539.9c-1.3 2.5-1.3 2.9 0 2.7.8-.1 1.8-.6 2.2-1.1.5-.4.2-.5-.6 0-1.1.6-1.3.4-.8-.9.4-1 .7-1.9.7-2.2 0-.2.7-.1 1.5.2.8.4 1.5.4 1.5.1 0-.3-.7-.7-1.5-1.1-1-.3-2 .5-3 2.3zM738.1 538.3c.2.1 1.1.8 2.1 1.5 1.2 1 1.8 1 2.4.1.4-.7.3-.9-.4-.5-.6.3-1.3.2-1.7-.4-.3-.5-1.1-1-1.7-1-.6 0-.9.1-.7.3zM55.1 539.5c.4.3 1.9.8 3.5 1.1 1.6.3 2.6.2 2.3-.1-.4-.3-1.9-.8-3.5-1.1-1.6-.3-2.6-.2-2.3.1zM741.5 543.1c-.4.6-.5 1.2-.2 1.5.2.3.7-.2 1-1.1.7-1.7.1-2-.8-.4zM62.5 544c-.3.6.1.7.9.4 1.8-.7 2.1-1.4.7-1.4-.6 0-1.3.4-1.6 1zM737.9 544.7c-1.3 1.6-1.2 1.7.4.4.9-.7 1.7-1.5 1.7-1.7 0-.8-.8-.3-2.1 1.3zM61.2 546.9c-1.1.6-1 1 0 1.9 1.1.8 1.4.7 1.4-.9 0-1 0-1.9-.1-1.9 0 0-.6.4-1.3.9zM66 548c0 .5.5 1 1.1 1 .5 0 .7.4.4 1-.4.6.1.7 1.1.3 1.3-.5 1.5-.3.9.7-.5.9-.4 1.1.3.6 1.6-1 1.6-1.1-1.3-3-1.4-.9-2.5-1.2-2.5-.6zM69 547.4c0 .2.7.7 1.6 1 .8.3 1.2.2.9-.4-.6-1-2.5-1.4-2.5-.6zM733.3 548.7c0 .9.4 1 1.4.2.7-.6 1.3-1.2 1.3-1.4 0-.1-.6-.2-1.3-.2-.8 0-1.4.6-1.4 1.4zM737 548.2c0 .4.4.8.9.8.6 0 1.2-.4 1.5-.8.3-.5-.1-.9-.9-.9s-1.5.4-1.5.9zM741 550.1c0 .5.5.7 1 .4.6-.3 1-.8 1-1.1 0-.2-.4-.4-1-.4-.5 0-1 .5-1 1.1zM732.5 552c1 1.1 2 2 2.3 2 .3 0-.3-.9-1.3-2s-2-2-2.3-2c-.3 0 .3.9 1.3 2zM62.6 552.2c.3.5 1 .6 1.5.3 1.3-.9 1.1-1.2-.6-1.2-.8 0-1.2.4-.9.9zM728 552.1c0 .5.5.7 1 .4.6-.3 1-.8 1-1.1 0-.2-.4-.4-1-.4-.5 0-1 .5-1 1.1zM747.9 552.7c-1.3 1.6-1.2 1.7.4.4 1.6-1.3 2.1-2.1 1.3-2.1-.2 0-1 .8-1.7 1.7zM65.5 553c-.4.6.1.7 1.1.3 1.3-.5 1.5-.3.9.7-.5.9-.4 1.1.4.6.6-.4.9-1.2.6-1.7-.8-1.2-2.2-1.2-3 .1zM59 553.4c0 .2.7.7 1.6 1 .8.3 1.2.2.9-.4-.6-1-2.5-1.4-2.5-.6zM69 556c0 .5.5 1 1 1 .6 0 1-.5 1-1 0-.6-.4-1-1-1-.5 0-1 .4-1 1zM729.6 556.7c-.5 1.2-.3 1.3.7.5.7-.6 2.5-.9 3.9-.7 1.5.3 2.9.2 3.1-.2.3-.5-1.2-.9-3.3-1-2.7-.1-4 .3-4.4 1.4zM727.3 559.2c.1 1.5.6 2.3 1.1 1.8.4-.4.4-1.6-.2-2.6-.9-1.6-1-1.4-.9.8zM62.4 559.8c.4.3 1.4.7 2.2.8.9.1 1.3 0 1-.4-.4-.3-1.4-.7-2.2-.8-.9-.1-1.3 0-1 .4zM735.5 560c.3.5.8 1 1.1 1 .2 0 .4-.5.4-1 0-.6-.5-1-1.1-1-.5 0-.7.4-.4 1zM739 559.8c0 .5.7.9 1.5.9s1.2-.4.9-.9c-.3-.4-.9-.8-1.5-.8-.5 0-.9.4-.9.8zM67 560.4c0 .2.8 1 1.8 1.7 1.5 1.3 1.6 1.2.3-.4s-2.1-2.1-2.1-1.3zM74 560.9c0 .7-.5.9-1.2.5-.7-.5-.8-.3-.3.5.5.9 1 1 1.8.2.6-.6.8-1.4.4-1.8-.4-.3-.7-.1-.7.6zM723.6 563.3c.3 1 .9 1.5 1.2 1.2.3-.3 0-1.1-.7-1.8-1-.9-1.1-.8-.5.6zM728.9 563.7c-1.3 1.6-1.2 1.7.4.4 1.6-1.3 2.1-2.1 1.3-2.1-.2 0-1 .8-1.7 1.7zM74 564.1c-1.2.9-1.2 1 .3.5 1.1-.3 2.4-.3 3 .1.7.4.2 1-1.3 1.4-2.2.6-2.3.7-.4.8 1.2.1 2.8-.7 3.5-1.6.8-1 .9-1.4.2-1-.6.4-1.4.3-1.8-.3-.8-1.3-1.6-1.2-3.5.1zM70.7 566.1c.7.7 1.5 1 1.8.7.3-.3-.2-.9-1.2-1.2-1.4-.6-1.5-.5-.6.5zM721.4 566.5c-.3.8-.4 2-.1 2.7.3.7.6.3.6-1 .1-1.5.5-2.1 1.3-1.6.7.4.8.3.4-.4-1-1.6-1.5-1.5-2.2.3zM726.7 566.1c.7.7 1.5 1 1.8.7.3-.3-.2-.9-1.2-1.2-1.4-.6-1.5-.5-.6.5zM733 566.1c0 .5.5.7 1 .4.6-.3 1-.8 1-1.1 0-.2-.4-.4-1-.4-.5 0-1 .5-1 1.1zM78.6 567.5c-1.1.8-1.5 1.5-.9 1.5s1.6-.7 2.3-1.5c1.6-1.9 1.1-1.9-1.4 0zM71.3 569.5c0 .8.4 1.2.9.9.5-.3.6-1 .3-1.5-.9-1.3-1.2-1.1-1.2.6zM59.6 570.7c-.6 1.4-.5 1.5.5.6.7-.7 1-1.5.7-1.8-.3-.3-.9.2-1.2 1.2zM67 569.4c0 .2.7.7 1.6 1 .8.3 1.2.2.9-.4-.6-1-2.5-1.4-2.5-.6zM717.7 571.1c.4 1.3.8 1.8 1.1 1 .2-.7-.1-1.8-.6-2.3-.8-.8-.9-.4-.5 1.3zM79 570.9c0 .6.5 1.3 1.2 1.7.6.4.8.3.4-.4-.3-.5 0-1.3.6-1.5.8-.3.6-.6-.4-.6-1-.1-1.8.3-1.8.8zM75.3 572.5c0 .8.4 1.2.9.9.5-.3.6-1 .3-1.5-.9-1.3-1.2-1.1-1.2.6zM65.4 573.8c.4.3 1.4.7 2.2.8.9.1 1.3 0 1-.4-.4-.3-1.4-.7-2.2-.8-.9-.1-1.3 0-1 .4zM70.7 574.1c.7.7 1.5 1 1.8.7.3-.3-.2-.9-1.2-1.2-1.4-.6-1.5-.5-.6.5zM77.6 573.8c-.2.4-.1 1.4.3 2.1.6.9 1.1 1 1.5.2.4-.6.2-1.1-.4-1.1-.6 0-.8-.5-.5-1 .3-.6.4-1 .1-1-.3 0-.7.4-1 .8zM81.7 573.7c-.8.8 1.2 3.3 2.6 3.3.6 0 .2-.7-.9-1.6-1.6-1.3-1.6-1.5-.1-1 .9.3 1.7.1 1.7-.4 0-1.1-2.3-1.3-3.3-.3zM715.5 574c.3.5.8 1 1.1 1 .2 0 .4-.5.4-1 0-.6-.5-1-1.1-1-.5 0-.7.4-.4 1zM726.7 574.1c.7.7 1.5 1 1.8.7.3-.3-.2-.9-1.2-1.2-1.4-.6-1.5-.5-.6.5zM717.6 575.7c-.6 1.4-.5 1.5.5.6.7-.7 1-1.5.7-1.8-.3-.3-.9.2-1.2 1.2zM721.4 576c0 1.3.4 1.6 1.2 1 .6-.6 1.4-.7 1.7-.3.4.3.7.3.7 0s-.8-1.1-1.8-1.6c-1.4-.7-1.8-.6-1.8.9zM73.9 576.7c-1.2 1.6-1.2 1.7.2.6.9-.7 2-.9 2.4-.5.5.4.5.1.1-.6-.9-1.6-1.1-1.5-2.7.5zM714.6 576.3c.3 1 .9 1.5 1.2 1.2.3-.3 0-1.1-.7-1.8-1-.9-1.1-.8-.5.6zM79.5 578.1l-2 .9 2-.3c1.2-.2 2.5.6 3.2 1.8.7 1.1 1.2 1.5 1.3.9 0-2.3-2.5-4.2-4.5-3.3zM85.5 578.1c-.4.6-.4 1.3-.1 1.6.3.4.6.1.6-.6s.5-.9 1.2-.5.8.3.4-.4c-.9-1.5-1.3-1.5-2.1-.1zM723.5 579c-.4.6-1 .8-1.4.6-.4-.3-.8.1-.8.9 0 1.3.4 1.2 1.9-.2 1.8-1.6 2.2-2.3 1.4-2.3-.3 0-.8.5-1.1 1zM729.6 579.8c-.3.5.1.9.9.9s1.2-.4.9-.9c-.3-.4-.7-.8-.9-.8-.2 0-.6.4-.9.8zM87 581.1c0 .5.5.7 1 .4.6-.3 1-.8 1-1.1 0-.2-.4-.4-1-.4-.5 0-1 .5-1 1.1zM75.9 582.7c-1.3 1.6-1.2 1.7.4.4.9-.7 1.7-1.5 1.7-1.7 0-.8-.8-.3-2.1 1.3zM713.3 582.3c-.3.6-.1.7.5.3.6-.3 1.2.2 1.4 1.1.3 1.6.5 1.5 1-.3.5-2.2-1.7-3-2.9-1.1zM717.5 583.1c-.4.6-.5 1.2-.2 1.5.2.3.7-.2 1-1.1.7-1.7.1-2-.8-.4zM79.4 583.7c.8.9 5 1.2 6.3.5.8-.5-.3-.8-2.7-.8-2.2 0-3.8.1-3.6.3zM710 584c-1.2.7-1 .9.7.7 1.2 0 1.9-.5 1.7-.9-.6-1-.6-1-2.4.2zM87 585c-.8.5 0 .7 1.8.7 1.7-.1 2.9-.4 2.6-.6-.8-.9-3.1-.9-4.4-.1zM73 586c0 .5.5 1 1.1 1 .5 0 .7-.5.4-1-.3-.6-.8-1-1.1-1-.2 0-.4.4-.4 1zM707.7 587.5c-.4.8-.3 1.6.1 1.9.4.3.9-.4.9-1.5.2-2.3-.3-2.5-1-.4zM711.8 586.7c.7.3 1.6.2 1.9-.1.4-.3-.2-.6-1.3-.5-1.1 0-1.4.3-.6.6zM717.1 587.3c-.8 1-.7 1.4.2 1.4.8 0 1.4-.6 1.4-1.4 0-.7-.1-1.3-.2-1.3-.2 0-.8.6-1.4 1.3zM78.9 588.2c.7.9.9 2.3.5 3-.6 1-.4 1.1.7 0 1.1-1 1-1.5-.6-3-1.7-1.5-1.8-1.5-.6 0zM84 588c-.8.5-1 1-.5 1 .6 0 1.7-.5 2.5-1s1.1-1 .5-1c-.5 0-1.7.5-2.5 1zM710 588.4c0 .2.7.7 1.6 1 .8.3 1.2.2.9-.4-.6-1-2.5-1.4-2.5-.6zM88.7 589.6c.7.3.9 1.3.6 2.2-.4 1.4-.3 1.4.5.2 1.2-1.6.7-3-1.1-2.9-.9 0-.9.2 0 .5zM704.7 589.6c-.7.8.3 3.4 1.3 3.4.9 0 .8-2.6-.1-3.5-.3-.3-.8-.2-1.2.1zM714.7 590.1c.7.7 1.5 1 1.8.7.3-.3-.2-.9-1.2-1.2-1.4-.6-1.5-.5-.6.5zM91.5 592c-.3.6.1.7 1 .4 1.1-.5 1.4-.2.9 1.2-.6 1.5-.4 1.6.6.7.7-.6.9-1.6.6-2.2-.9-1.4-2.3-1.4-3.1-.1zM77.5 594c-.3.5-.1 1 .4 1 .6 0 1.1-.5 1.1-1 0-.6-.2-1-.4-1-.3 0-.8.4-1.1 1zM86 593.4c0 .2.8 1 1.8 1.7 1.5 1.3 1.6 1.2.3-.4s-2.1-2.1-2.1-1.3zM711.3 594.8c0 1 .7 1.9 1.4 1.9.9 0 1-.4.3-1.2-.5-.7-.7-1.5-.3-1.8.3-.4.1-.7-.5-.7s-1 .8-.9 1.8zM717 594.1c0 .5.5.7 1 .4.6-.3 1-.8 1-1.1 0-.2-.4-.4-1-.4-.5 0-1 .5-1 1.1zM98 596c0 .5.5 1 1.1 1 .5 0 .7-.5.4-1-.3-.6-.8-1-1.1-1-.2 0-.4.4-.4 1zM91 597c-.8.5-1 1-.5 1 .6 0 1.7-.5 2.5-1s1.1-1 .5-1c-.5 0-1.7.5-2.5 1zM95 598c0 .5.5 1 1 1 .6 0 1-.5 1-1 0-.6-.4-1-1-1-.5 0-1 .4-1 1zM707 597.4c0 .2.7.7 1.6 1 .8.3 1.2.2.9-.4-.6-1-2.5-1.4-2.5-.6zM91.2 599.5c.4.5.3 1.3-.2 2-.7.8-.5 1.2.5 1.2.8 0 1.1-.5.8-1-.4-.6 0-.8 1-.4 2.5.9 2.1 0-.5-1.4-1.3-.6-2-.8-1.6-.4zM100.6 599.9c-.7 1.1 2.2 3.6 3.1 2.8.3-.4-.2-.9-1.1-1.3-.9-.3-1.3-1-1-1.5.3-.5.3-.9 0-.9s-.7.4-1 .9zM702 600c-.9.6-1 1-.3 1 .6 0 1.5-.5 1.8-1 .8-1.2.4-1.2-1.5 0zM81.6 601.8c-.2.4-.1 1.4.4 2.2.7 1.1.9.9.7-.8-.1-2.4-.3-2.6-1.1-1.4zM97.5 602c-.6 1 4.4 3.5 5.3 2.6.2-.3-.7-.8-2.2-1.2-1.4-.3-2.3-1-2-1.5.3-.5.3-.9 0-.9s-.8.5-1.1 1zM697 602c0 .5.5 1 1.1 1 .5 0 .7-.5.4-1-.3-.6-.8-1-1.1-1-.2 0-.4.4-.4 1zM712.6 602.2c.3.5 1 .6 1.5.3 1.3-.9 1.1-1.2-.6-1.2-.8 0-1.2.4-.9.9zM700 602.5c0 .5.5 1.7 1 2.5s1 1 1 .5c0-.6-.5-1.7-1-2.5s-1-1.1-1-.5zM95 604c0 .5.5 1 1.1 1 .5 0 .7-.5.4-1-.3-.6-.8-1-1.1-1-.2 0-.4.4-.4 1zM695.8 604.7c.7.3 1.6.2 1.9-.1.4-.3-.2-.6-1.3-.5-1.1 0-1.4.3-.6.6zM97.6 605.8c-.2.4-.1 1.4.4 2.2.7 1.1.9.9.7-.8-.1-2.4-.3-2.6-1.1-1.4zM105.4 607.7c.2 2 .9 2.8 2.4 2.9 1.2.1 1.9-.2 1.6-.7-.2-.4-1.1-.6-1.9-.3-.9.4-1.2 0-.8-1.4.2-1.1 0-2.3-.5-2.6-.7-.4-1 .4-.8 2.1zM102.6 607.5c-.3.8-.1 1.5.4 1.5.6 0 1-.7 1-1.5s-.2-1.5-.4-1.5-.6.7-1 1.5zM695.5 607.9c-.3.5 0 1.3.6 1.7.8.5.9.3.4-.6-.6-1-.4-1.2.9-.7 1 .4 1.5.3 1.1-.3-.8-1.3-2.2-1.3-3-.1zM700.5 608.1c-.4.6-.5 1.2-.2 1.5.2.3.7-.2 1-1.1.7-1.7.1-2-.8-.4zM703.4 609.2l-1.9 2.3 2.3-1.9c1.2-1.1 2.2-2.1 2.2-2.3 0-.8-.8-.2-2.6 1.9zM89 610.1c0 .5.5.7 1 .4.6-.3 1-.8 1-1.1 0-.2-.4-.4-1-.4-.5 0-1 .5-1 1.1zM690.8 611.2c-1 1-1.4 1.8-.9 1.8 1 0 3.6-2.9 3-3.4-.2-.1-1.2.6-2.1 1.6zM97.5 611.1c-.4.6-1.4.8-2.4.4-1.3-.5-1.4-.4-.3.6 1 1.1 1.5 1 2.9-.4 1-.9 1.4-1.7 1.1-1.7-.4 0-1 .5-1.3 1.1zM694.4 611.2c.3 1.5 2.6 2.3 2.6.8 0-.6-.4-.9-.9-.6-.5.4-1.2.1-1.4-.4-.3-.6-.4-.5-.3.2zM103.5 612c-.3.5-.1 1 .4 1 .6 0 1.1-.5 1.1-1 0-.6-.2-1-.4-1-.3 0-.8.4-1.1 1zM107 613c-1.6 1-2.3 4-.8 4 .6 0 .8-.6.5-1.4-.4-1 0-1.4 1.4-1.3 1.1.1 1.9.9 1.9 2 0 1-.4 1.6-.8 1.3-.4-.2-1.4 0-2.2.5-1.1.7-.8.8 1 .6 1.6-.3 2.6-1.1 2.8-2.4.4-2.5-1.9-4.5-3.8-3.3zM95.5 614.9c-.3.5-.2 1.2.3 1.5.5.3.9-.1.9-.9 0-1.7-.3-1.9-1.2-.6zM691.1 615.2c-.1 2 1.4 2.4 2.5.6.4-.6.3-.8-.4-.4-.5.3-1.3 0-1.5-.6-.3-.8-.6-.6-.6.4zM706.9 615.7c-1.3 1.6-1.2 1.7.4.4 1.6-1.3 2.1-2.1 1.3-2.1-.2 0-1 .8-1.7 1.7zM700.6 616.2c.3.5 1 .6 1.5.3 1.3-.9 1.1-1.2-.6-1.2-.8 0-1.2.4-.9.9zM93.5 618c-.3.5-.1 1 .4 1 .6 0 1.1-.5 1.1-1 0-.6-.2-1-.4-1-.3 0-.8.4-1.1 1zM113.2 619c1.6 2.6 3.1 3 3.5 1 .1-.6-.1-.5-.4.1-.4.8-1.3.4-2.6-1.2l-1.9-2.4 1.4 2.5zM685 617.8c0 .7.5 1.2 1.1 1.2.5 0 .8.4.5.9-.4.5.4.7 1.6.3 1.6-.4 1.9-.2 1.3.8-.5.8-.4 1.1.3.7 1.2-.8 1-3.2-.3-4.4-.4-.4-.5-.2-.1.4.9 1.7-1.6 1.7-3.2.1-.9-.9-1.2-.9-1.2 0zM101.4 620c0 1.3.4 1.6 1 1 .7-.7.7-1.3 0-2-.6-.6-1-.3-1 1zM693 618.3c0 .2.6 1 1.4 1.6 1.1.9 1.6.9 2.2-.1.4-.7.4-1-.1-.6-.4.4-1.4.3-2.2-.3-.7-.6-1.3-.9-1.3-.6zM110.5 620.1c-.4.6-.5 1.2-.2 1.5.2.3.7-.2 1-1.1.7-1.7.1-2-.8-.4zM682 621c-.6 1.1-.8 2-.6 2 .3 0 1-.9 1.6-2 .6-1.1.8-2 .6-2-.3 0-1 .9-1.6 2zM703.9 620.7c-1.3 1.6-1.2 1.7.4.4 1.6-1.3 2.1-2.1 1.3-2.1-.2 0-1 .8-1.7 1.7zM683.8 622.2c-.4 3.7-.3 4.4.5 5.5.5.7 1.5 1.3 2.1 1.3.6 0 .3-.5-.6-1-1.1-.7-1.5-2-1.3-4 .2-1.7.2-3 0-3-.3 0-.6.6-.7 1.2zM105.5 623.1c-.4.6-.5 1.2-.2 1.5.2.3.7-.2 1-1.1.7-1.7.1-2-.8-.4zM114.6 624.5c.4.8.8 1.5 1 1.5.2 0 .4-.7.4-1.5s-.4-1.5-1-1.5c-.5 0-.7.7-.4 1.5zM686 624c0 .7 4.6.7 5.4 0 .2-.3-.9-.6-2.5-.6-1.6-.1-2.9.2-2.9.6zM107 624.4c0 .2.8 1 1.8 1.7 1.5 1.3 1.6 1.2.3-.4s-2.1-2.1-2.1-1.3zM111.3 627.5c0 .8.4 1.2.9.9.5-.3.6-1 .3-1.5-.9-1.3-1.2-1.1-1.2.6zM114.8 628.2c.5.5 1.6.8 2.3.6.8-.3.3-.7-1-1.1-1.7-.4-2.1-.3-1.3.5zM678 628c-1.1.8-.7.9 1.4.4 2.2-.5 2.7-.4 2.1.6-.5.9-.4 1.1.4.6 1.3-.9.5-2.6-1.2-2.6-.7 0-1.9.5-2.7 1zM112.1 630.4c-.9 1.1-.9 1.6.1 2.2.7.4 1 .4.6-.1-.4-.4-.3-1.4.3-2.2.6-.7.9-1.3.6-1.3-.2 0-1 .6-1.6 1.4zM689 630.1c0 .5.5.7 1 .4.6-.3 1-.8 1-1.1 0-.2-.4-.4-1-.4-.5 0-1 .5-1 1.1zM693.5 630c.3.5.8 1 1.1 1 .2 0 .4-.5.4-1 0-.6-.5-1-1.1-1-.5 0-.7.4-.4 1zM123.6 631.6c-.4 1-.4 1.5 0 1.1.4-.4 1.2.1 1.9 1 1 1.3 1.3 1.4 2 .2.5-.8.4-1 0-.6-.5.4-1.4-.2-2-1.4-1.1-2-1.2-2-1.9-.3zM675.2 631.6c-.7.8-.8 1.4-.3 1.4 1 0 2.5-1.9 2-2.5-.2-.1-1 .3-1.7 1.1zM679.3 631.7c.1 1.4.5 1.9 1.2 1.4.5-.5 2-.7 3.2-.6 1.2.1 2-.2 1.7-.7-.3-.4-1.6-.6-2.9-.4-1.3.3-2.6-.1-2.8-.7-.3-.7-.4-.2-.4 1zM689.5 633.1c-.4.6-.5 1.2-.2 1.5.2.3.7-.2 1-1.1.7-1.7.1-2-.8-.4zM119.7 634.3c.4.7 0 .8-1.3.3-1.5-.6-1.6-.5-.7.5.9.9 1.5.9 2.7 0 1-.8 1.6-.9 1.9-.1.3.6.5.6.3-.1-.1-.7-1-1.3-1.9-1.5-1-.1-1.4.2-1 .9zM671.6 634.7c-.6 1.4-.5 1.5.5.6.7-.7 1-1.5.7-1.8-.3-.3-.9.2-1.2 1.2zM107.5 635.1c-.4.6-.5 1.2-.2 1.5.2.3.7-.2 1-1.1.7-1.7.1-2-.8-.4zM681.4 635.1c-.3.6-.2 1.5.3 2s.9.1.9-1.1c0-2.3-.2-2.4-1.2-.9zM124.1 636.6c0 1.1.3 1.4.6.6.3-.7.2-1.6-.1-1.9-.3-.4-.6.2-.5 1.3zM127.7 635.7c-1.2 1.1-.8 2.3.7 2.3.8 0 1.8-.4 2.1-1 .4-.6-.1-.7-1.1-.3-1.2.4-1.5.3-1-.5.8-1.3.3-1.6-.7-.5zM674 636.1c0 .9 3.1 2.1 3.8 1.4.3-.3 0-.5-.7-.5s-1-.4-.7-.8c.3-.5-.1-.9-.9-.9s-1.5.4-1.5.8zM115.5 636.9c-.3.5-.2 1.2.3 1.5.5.3.9-.1.9-.9 0-1.7-.3-1.9-1.2-.6zM131.5 638c-.8 1.3.3 3 1.8 2.9.9 0 .9-.2 0-.5-.7-.3-.9-1.2-.6-2 .6-1.6-.3-1.9-1.2-.4zM671 638c0 .5.5 1 1 1 .6 0 1-.5 1-1 0-.6-.4-1-1-1-.5 0-1 .4-1 1zM125 639.4c0 .2.7.7 1.6 1 .8.3 1.2.2.9-.4-.6-1-2.5-1.4-2.5-.6zM129.3 640.2c.3.9.1 1.9-.6 2.2-.9.3-.9.5 0 .5 1.8.1 2.3-1.3 1.1-2.9-.8-1.2-.9-1.2-.5.2zM113.5 642c-.3.5-.1 1 .4 1 .6 0 1.1-.5 1.1-1 0-.6-.2-1-.4-1-.3 0-.8.4-1.1 1zM120 642c-.9.6-1 1-.3 1 .6 0 1.5-.5 1.8-1 .8-1.2.4-1.2-1.5 0zM123.4 641.7c.3.4.1 1.1-.4 1.8-.7.8-.5 1.2.5 1.2.7 0 1.3-.5 1.2-1.1-.1-.6.5-1 1.3-.8.8.2 1.1 0 .7-.4-.4-.4-1.5-.9-2.3-1-.9-.1-1.3 0-1 .3zM671 641.9c0 .6.4 1.3 1 1.6.6.3.7-.1.4-.9-.7-1.8-1.4-2.1-1.4-.7zM133 642.4c0 .2.7.7 1.6 1 .8.3 1.2.2.9-.4-.6-1-2.5-1.4-2.5-.6zM130.1 644c-.9.5-.4.7 1.3.7 2.9 0 3.2-.2 1.3-1-.8-.3-2-.2-2.6.3zM135 645.9c0 .6.4 1.3 1 1.6.6.3.7-.1.4-.9-.7-1.8-1.4-2.1-1.4-.7zM665.5 646c-.5.8-.4 1.1.2.7 1.4-.9 2.4 1.8 1.2 3-.6.6-.4 1 .5 1 .8 0 1.4-.5 1.3-1.1-.1-.6.3-1 .9-.9.6.1 1.1-.5 1.1-1.3 0-1-.4-1.1-1-.5-.7.7-1.4.5-2.2-.6-1-1.3-1.4-1.3-2-.3zM131.3 647.6c0 1.6 1.3 1.9 2.1.5.3-.5 0-1.1-.7-1.4-.8-.3-1.4.1-1.4.9zM661 648c0 .5.5 1 1 1 .6 0 1-.5 1-1 0-.6-.4-1-1-1-.5 0-1 .4-1 1zM133.5 650c-.3.6.1 1.3 1 1.6 1.1.5 1.3 1 .5 1.9-.7.8-.6 1.2.4 1.2 1.6 0 1.4-2.9-.2-3.5-.7-.2-1-.8-.6-1.3.3-.5.3-.9 0-.9s-.8.5-1.1 1zM655.6 649.8c-.2.4.4.9 1.5.9 1.1.1 1.7-.2 1.4-.8-.7-1.1-2.2-1.2-2.9-.1zM671.5 649.9c-.3.5-.2 1.2.3 1.5.5.3.9-.1.9-.9 0-1.7-.3-1.9-1.2-.6zM660 650.9c0 .6.4 1.3 1 1.6.6.3.7-.1.4-.9-.7-1.8-1.4-2.1-1.4-.7zM141.6 651.9c-.3.5.6.8 2 .8 1.9 0 2.2-.2 1.3-.8-1.8-1.1-2.6-1.1-3.3 0zM666.7 654.1c.7.7 1.5 1 1.8.7.3-.3-.2-.9-1.2-1.2-1.4-.6-1.5-.5-.6.5zM138.8 654.7c.6.2 1.8.2 2.5 0 .6-.3.1-.5-1.3-.5-1.4 0-1.9.2-1.2.5zM146.1 655.1c-.1.9.7 2.7 1.8 4 1.8 2.2 1.8 2.3-.3 4.2-2.1 1.8-2.1 1.8.7.1 2.5-1.5 2.6-1.8 1.3-3.3-.8-.9-1.9-2.8-2.5-4.1-.6-1.6-1-1.9-1-.9zM661.3 655.7c.1 1.5.5 1.9 1.3 1.3.6-.6 1.5-.6 1.9-.2.5.4.5.1.1-.6s-1.1-1-1.6-.7c-.4.3-1-.1-1.3-.7-.3-.7-.4-.3-.4.9zM651 655.8c0 .4 1 .9 2.2.9 1.8.2 2 0 .8-.7-1.8-1.2-3-1.3-3-.2zM135 658.4c.7.7 1.3.7 2 0 .6-.6.3-1-1-1s-1.6.4-1 1zM142.8 657.7c.7.3 1.6.2 1.9-.1.4-.3-.2-.6-1.3-.5-1.1 0-1.4.3-.6.6zM654.7 659.4l-1.6 2.4 2.9-1.5c3.2-1.6 4.1-2.7 1.3-1.6-1.1.4-1.4.3-.9-.5 1.4-2.3-.2-1.2-1.7 1.2zM138.7 660.1c.7.9 1 1.9.6 2.2-.3.4-.1.7.5.7 1.7 0 1.5-1.6-.5-3.1-1.6-1.2-1.7-1.2-.6.2z"/><path d="M144.4 660.5c-.4.8-1.1 1.2-1.7.8-.5-.3-.7-.1-.4.5.8 1.2 3.2 1 4.4-.3.5-.4.2-.5-.6 0-1.1.6-1.3.4-.8-.8.3-1 .4-1.7.1-1.7-.2 0-.7.7-1 1.5zM154.5 660c.5.8.8 2.5.6 3.7-.1 1.3.2 2.3.7 2.3.6 0 .8-.9.5-2-.3-1.1-.2-2 .1-2 .8 0 3 5.2 2.7 6.3-.1.5.3.6.8.3s1.2.1 1.5 1c.5 1.3.9 1.4 2.1.4 1.8-1.5 1-3.2-1.3-2.8-.9.2-2.2-.8-2.9-2.3-.7-1.4-2.2-3.4-3.4-4.5-1.4-1.1-1.9-1.3-1.4-.4zm9.5 8.4c0 .3-.4.8-1 1.1-.5.3-1 .1-1-.4 0-.6.5-1.1 1-1.1.6 0 1 .2 1 .4zM659.9 660.7c-1.3 1.6-1.2 1.7.4.4 1.6-1.3 2.1-2.1 1.3-2.1-.2 0-1 .8-1.7 1.7zM666.6 659.8c-.3.5.1.9.9.9s1.2-.4.9-.9c-.3-.4-.7-.8-.9-.8-.2 0-.6.4-.9.8zM647 660.7c.5.2.8.9.4 1.4-.3.5 0 .9.6.9 1.5 0 .7-2.3-.8-2.6-.7-.1-.8 0-.2.3zM135.5 662c.3.5.8 1 1.1 1 .2 0 .4-.5.4-1 0-.6-.5-1-1.1-1-.5 0-.7.4-.4 1zM655.6 661.8c-.3.5.1.9.9.9s1.2-.4.9-.9c-.3-.4-.7-.8-.9-.8-.2 0-.6.4-.9.8zM151.4 663.8c.3.5 0 1.3-.6 1.5-.8.3-.6.6.5.6 1.9.1 2.3-1.4.5-2.5-.6-.4-.8-.3-.4.4zM649.6 664.6c-.3.9.1 1.1 1.1.7 1.2-.5 1.4-.3.8.8-.5.8-.4 1.1 0 .6.5-.4 1-1.3 1.1-2.1.2-1.6-2.4-1.7-3 0zM147.5 665.9c-.3.5-.2 1.2.3 1.5.5.3.9-.1.9-.9 0-1.7-.3-1.9-1.2-.6zM645.3 665.7c.4.6.2 1.3-.4 1.5-.7.2-.6.8.3 1.6 1.2.9 1.4.8 1.3-.8-.1-1.1-.5-2.3-1-2.7-.4-.5-.5-.3-.2.4z"/><path d="M153 668.1c0 .4 1 .6 2.1.4 3.2-.6 3.4-1.3.4-1.3-1.4 0-2.5.4-2.5.9zM641 668c0 .5.5 1 1 1 .6 0 1-.5 1-1 0-.6-.4-1-1-1-.5 0-1 .4-1 1zM141.5 670c-.3.5-.1 1 .4 1 .6 0 1.1-.5 1.1-1 0-.6-.2-1-.4-1-.3 0-.8.4-1.1 1zM157.7 671.1c.4 1.3.8 1.8 1.1 1 .2-.7-.1-1.8-.6-2.3-.8-.8-.9-.4-.5 1.3zM164 672.1c-.7 1.1-1 2.3-.7 2.5.2.2.9-.7 1.5-2.1 1.4-3 .7-3.3-.8-.4zM659 670.4c0 .2.8 1 1.8 1.7 1.5 1.3 1.6 1.2.3-.4s-2.1-2.1-2.1-1.3zM155.5 671.9c-.3.5-.2 1.2.3 1.5.5.3.9-.1.9-.9 0-1.7-.3-1.9-1.2-.6zM160 672c0 .5.5 1 1.1 1 .5 0 .7-.5.4-1-.3-.6-.8-1-1.1-1-.2 0-.4.4-.4 1zM639 672.8c0 .4.9.8 1.9.8 1.1 0 1.7-.4 1.5-.8-.3-.4-1.2-.8-2-.8s-1.4.4-1.4.8zM152.7 674.1c.7.7 1.5 1 1.8.7.3-.3-.2-.9-1.2-1.2-1.4-.6-1.5-.5-.6.5zM168 674c-1.3.8-1.2 1 .3 1 .9 0 1.7-.5 1.7-1 0-1.2-.1-1.2-2 0zM631 674c0 .5.5 1 1 1 .6 0 1-.5 1-1 0-.6-.4-1-1-1-.5 0-1 .4-1 1zM649.5 674c.3.5.8 1 1.1 1 .2 0 .4-.5.4-1 0-.6-.5-1-1.1-1-.5 0-.7.4-.4 1zM165 675.5c0 .8.4 1.5 1 1.5.5 0 .7-.7.4-1.5-.4-.8-.8-1.5-1-1.5-.2 0-.4.7-.4 1.5zM160.4 676.1c-.3.6-.1 1.6.5 2.2.9.9 1 .7.5-.7-.6-1.5-.4-1.7.6-1.1.9.5 1.1.4.6-.3-.9-1.5-1.3-1.5-2.2-.1zM171 676c0 .5.7 1 1.6 1 .9 0 1.2.5.8 1.2-.4.7-.3.8.4.4 1.6-1 1.5-1.4-.8-2.6-1.4-.7-2-.7-2 0zM634 676.1c0 .4.6.9 1.3 1.2.8.3 1.4 0 1.4-.7s-.6-1.3-1.4-1.3c-.7 0-1.3.4-1.3.8zM639.6 676.5c-1.6 1.2-1.7 1.5-.4 1.5.9 0 1.8-.7 2.2-1.5.7-1.8.6-1.8-1.8 0zM157.5 677.1c-.4.6-.5 1.2-.2 1.5.2.3.7-.2 1-1.1.7-1.7.1-2-.8-.4zM624.5 677c-.3.6.1.7.9.4 1.8-.7 2.1-1.4.7-1.4-.6 0-1.3.4-1.6 1zM167 678.1c-1.2.8-1 .9.7.4 1.8-.5 2.2-.3 1.7.9-.6 1.6.7 2.2 1.9.9.7-.6-1.1-3.3-2.2-3.3-.3 0-1.3.5-2.1 1.1zM625.5 679.1c-1.6 1.1-2.3 1.9-1.5 1.9 1.6-.1 5.6-2.7 4.9-3.4-.2-.2-1.7.5-3.4 1.5zM159 679.9c0 .6.4 1.3 1 1.6.6.3.7-.1.4-.9-.7-1.8-1.4-2.1-1.4-.7zM637.9 680.7c-1.3 1.6-1.2 1.7.4.4 1.6-1.3 2.1-2.1 1.3-2.1-.2 0-1 .8-1.7 1.7zM171.8 681.3c-1.5 1.2-1.5 1.4.3 2.5 1.1.7 1.9.8 1.9.2 0-.5-.5-1-1.1-1-.8 0-.8-.5.1-1.5 1.5-1.8 1.1-1.9-1.2-.2zM627.9 680.5c-.1.3-.2.8-.3 1.2-.1.5-.5 1.5-1 2.3-.7 1.2-.6 1.3.4.3 1.3-1.2 2.3-4.3 1.4-4.3-.2 0-.5.2-.5.5zM162 681.5c0 .2.6.8 1.3 1.4 1 .8 1.4.7 1.4-.2 0-.8-.6-1.4-1.4-1.4-.7 0-1.3.1-1.3.2zM166.8 681.7c1 .4.9 1-.5 2.7l-1.8 2.1 2.2-1.9c2.3-1.9 2.2-3.7 0-3.5-.8 0-.8.2.1.6zM619.7 681.7c-1 1-.8 3.3.3 3.3.5 0 .6-.7.3-1.7-.4-1.1-.3-1.4.5-.9.7.4 1.2.2 1.2-.3 0-1.2-1.3-1.4-2.3-.4zM623 682.6c0 .6.7 1.9 1.6 3 1.4 1.8 1.4 1.8.3-.6-1.4-3.1-1.9-3.6-1.9-2.4zM633.5 683.1c-.4.6-1.4.8-2.4.4-1.3-.5-1.4-.4-.3.6 1 1.1 1.5 1 2.9-.4 1-.9 1.4-1.7 1.1-1.7-.4 0-1 .5-1.3 1.1zM639.1 684.7c.7 1.2 1.5 2 1.8 1.7.3-.2-.3-1.2-1.3-2.2-1.7-1.6-1.8-1.6-.5.5zM175.2 686c.3.8.1 2.3-.4 3.2-.6 1.3-.5 1.6.6 1.2 1.4-.5 1.4-4 0-5.3-.4-.3-.4.1-.2.9zM616.4 685.8c-.6.4-1.4 1.6-1.7 2.7-.6 1.6-.3 1.5 1.4-.5 1.7-2.1 2-2.2 1.4-.5-.5 1.6-.4 1.8.6.7 1.5-1.4 0-3.5-1.7-2.4zM621.6 685.8c-.7 1.1.6 2.6 2.4 3 1.2.2 1.1-.1-.2-1.1-1-.8-1.5-1.7-1.1-2 .3-.4.4-.7 0-.7-.3 0-.8.4-1.1.8zM170.5 688.1c-.3.4.2.6 1 .5 2.1-.3 2.8-1.3 1-1.3-.9 0-1.8.4-2 .8zM183.6 688.6c-.9 2.4-.2 2.6 1.2.4.7-1.1.8-2 .3-2s-1.2.7-1.5 1.6zM612 688.5c-.7.9-.8 1.5-.2 1.5.5 0 1.2-.7 1.6-1.5.3-.8.4-1.5.2-1.5s-.9.7-1.6 1.5zM186 689.5c-.6.8-1 2-.7 2.7.3.8.6.6.6-.5.1-1 .6-1.5 1.2-1.2.6.4.8 1.4.5 2.4-.4.9.2.5 1.3-.9s1.7-2.7 1.5-3c-.3-.2-.9.2-1.4 1-.9 1.4-1.4.7-1.1-1.3.2-1.1-.5-.8-1.9.8zM619.4 690.6c.4.9.2 2.2-.4 2.9-.7.8-.6 1.2.3 1.2.8 0 1.3-1.2 1.3-2.9 0-1.5-.4-2.8-.9-2.8s-.6.7-.3 1.6zM623 690.4c0 .2.8 1 1.8 1.7 1.5 1.3 1.6 1.2.3-.4s-2.1-2.1-2.1-1.3zM175.8 692.8c-1.2 1.6-1.1 1.6.6.2 1.1-.8 2-1.5 2-1.4.1 0 1.2.6 2.6 1.4 1.6.8 2.1.8 1.4.1-1.8-1.9-5.2-2.1-6.6-.3zM604.1 692.4c-.8 1-.9 1.6-.1 2.1.5.3 1 .3 1-.1 0-.3.9.4 2.1 1.7l2.1 2.4-2.1-3.1c-1.1-1.7-1.8-3.4-1.4-3.8.3-.3.4-.6.1-.6-.3 0-1.1.6-1.7 1.4zM613 692c0 .5.9.8 2 .7 2.1-.1 1.8-1-.5-1.3-.8-.1-1.5.2-1.5.6zM163.6 693.3c.3 1 .9 1.5 1.2 1.2.3-.3 0-1.1-.7-1.8-1-.9-1.1-.8-.5.6zM609.7 693.7c-1.2 1.1-.8 2 1.8 3.7 2.5 1.6 2.5 1.6 1.3-.3-.6-1.1-1.6-1.7-2.2-1.4-.5.4-.7-.1-.3-1 .7-1.8.5-2.1-.6-1z"/><path d="M177.4 695.1c-.3.6-.2 1.5.3 2s.9.1.9-1.1c0-2.3-.2-2.4-1.2-.9zM185.1 695.6c0 1.1.3 1.4.6.6.3-.7.2-1.6-.1-1.9-.3-.4-.6.2-.5 1.3zM198.1 694.9c-1.7 1.1-.4 3.4 1.4 2.7.8-.3 1.9.2 2.5 1 .7.8 1.9 1.4 2.8 1.4.8 0 1.3.3.9.6-.3.4.4 1.5 1.6 2.5 1.2 1 1.7 1.8 1 1.9-.6 0-1.5-.5-1.8-1-.3-.6-1.1-1-1.8-1-.6 0-.1.7 1.1 1.6 1.8 1.3 2.1 1.9 1.1 3-.6.8-.9 1.7-.5 2.1.3.3.6.1.6-.6s.5-.9 1.2-.5.8.3.4-.4c-.4-.6.3-2.1 1.5-3.3 1.6-1.6 1.8-2.1.6-1.6-1.1.4-2.2-.2-3.3-1.8-.9-1.4-2.1-2.5-2.6-2.5s-1.6-.7-2.4-1.5c-.8-.8-2.2-1.1-3.2-.8-1.5.6-1.5.5-.3-1 1.5-1.9 1.3-2.1-.8-.8zM182 696.5c-1.1 1.3-1 1.4.4.9.9-.3 1.6-1 1.6-1.5 0-1.3-.6-1.1-2 .6zM193 695.4c0 .2.7.7 1.6 1 .8.3 1.2.2.9-.4-.6-1-2.5-1.4-2.5-.6zM601 695.9c0 .6-.5 1-1.1.8-.6-.1-1.4.5-1.6 1.3-.4 1.3-.3 1.3.6 0 .6-.8 1.1-1.1 1.1-.6 0 .5.6.3 1.4-.3 1-.8 1.6-.9 1.9-.1.3.6.4.5.3-.2-.3-1.5-2.6-2.3-2.6-.9zM622 695.4c0 .2.8 1 1.8 1.7 1.5 1.3 1.6 1.2.3-.4s-2.1-2.1-2.1-1.3zM631.9 696.7c-1.3 1.6-1.2 1.7.4.4.9-.7 1.7-1.5 1.7-1.7 0-.8-.8-.3-2.1 1.3zM191 697.9c0 .6.7.7 1.7.4 1-.4 1.4-.2.9.5-.3.6-.2 1.3.3 1.6.5.4.8-.2.7-1.1-.3-1.9-3.6-3.2-3.6-1.4zM605.4 697.8c.3.5 0 1.3-.6 1.5-.9.4-1 .6-.1.6 1.7.1 2.5-1.6 1.2-2.5-.7-.4-.9-.3-.5.4zM616 698c-.9.6-1 1-.3 1 .6 0 1.5-.5 1.8-1 .8-1.2.4-1.2-1.5 0zM187.3 700.8c0 1 .7 1.9 1.4 1.9.9 0 1-.4.3-1.2-.5-.7-.7-1.5-.3-1.8.3-.4.1-.7-.5-.7s-1 .8-.9 1.8z"/><path d="M198 700.2c0 .4.7.8 1.5.8s1.5-.4 1.5-.8c0-.5-.7-.9-1.5-.9s-1.5.4-1.5.9zM599.5 700c-1.3.6-1.5.9-.5.9.8 0 2.2-.4 3-.9 1.8-1.2.2-1.2-2.5 0zM607.9 699.7c0 .5-.2 1.6-.4 2.6-.2 1.1-.1 1.6.3 1.3.8-.8 1.4-4.6.7-4.6-.3 0-.5.3-.6.7zM619.5 700c-.3.5-.1 1 .4 1 .6 0 1.1-.5 1.1-1 0-.6-.2-1-.4-1-.3 0-.8.4-1.1 1zM191.9 701.2c-.5 1.8-.6 3.9-.2 3.4.4-.3 1.1-.2 1.7.4.8.6 1.2.2 1.3-1.3.2-1.7 0-1.9-.7-.7-.9 1.4-1.4.7-1.1-1.3.1-.6-.8-1.1-1-.5zM201.5 702c-.3.5-.2 1 .4 1 .5 0 1.3-.5 1.6-1 .3-.6.2-1-.4-1-.5 0-1.3.4-1.6 1zM601.9 701.2c-.6 1.8-.3 4.6.3 4.2.5-.4.7-1.2.4-1.9-.3-.8 0-1.6.7-1.9.9-.3.9-.5 0-.5-.7-.1-1.3 0-1.4.1zM175 703.9c0 .6.4 1.3 1 1.6.6.3.7-.1.4-.9-.7-1.8-1.4-2.1-1.4-.7zM199.7 705c1 1.1 1.9 2 2.1 2 .1 0-.2-.9-.8-2-.6-1.1-1.5-2-2-2-.6 0-.2.9.7 2zM212.3 704.4c-.9 1.1-.7 1.4 1.2 1.2 1.7-.1 2.1-.4 1.3-1.4-1.2-1.4-1-1.4-2.5.2zM598.5 704c.3.5.8 1 1.1 1 .2 0 .4-.5.4-1 0-.6-.5-1-1.1-1-.5 0-.7.4-.4 1zM584 705c-.9.6-1 1-.3 1 .6 0 1.5-.5 1.8-1 .8-1.2.4-1.2-1.5 0zM589 704.9c0 .7-.4.9-1 .6-.5-.3-1-.1-1 .4 0 .6.4 1.1.9 1.1 1.3 0 2.5-2 1.7-2.7-.3-.4-.6-.1-.6.6zM181.9 705.2c-.5 1.8-.6 3.8-.1 3.4.7-.8 1.2-3.6.6-3.6-.2 0-.4.1-.5.2zM613.5 706c.3.5.8 1 1.1 1 .2 0 .4-.5.4-1 0-.6-.5-1-1.1-1-.5 0-.7.4-.4 1zM217.6 707.5c.4.8.8 1.5 1 1.5.2 0 .4-.7.4-1.5s-.4-1.5-1-1.5c-.5 0-.7.7-.4 1.5zM202.6 707.8c-.3.5.1.9.9.9s1.2-.4.9-.9c-.3-.4-.7-.8-.9-.8-.2 0-.6.4-.9.8zM210 707.5c0 .8 2.9 1.2 3.9.5.9-.5.4-.8-1.3-.8-1.4 0-2.6.2-2.6.3z"/><path d="M220.1 708.1c-.1.9-.8 1.9-1.6 2.3-1.8.6-2 2.6-.3 2.6.6 0 .8-.3.5-.7-.4-.3.1-1.1 1-1.8.8-.6 1.3-1.8 1-2.6-.4-1.1-.6-1-.6.2zM582.2 709c-.7 1.1-1 2-.7 2 .3 0 1.4-.9 2.5-2 1.2-1.2 1.5-2 .7-2-.7 0-1.8.9-2.5 2zM590.8 708.8c.4 1.1.1 1.3-.8.7-.8-.5-1.1-.4-.7.3.4.5 1.7.8 2.9.4 1.2-.3 1.7-.7 1-1-.7-.2-1-.7-.8-1.1.3-.4-.1-.8-.8-.8-.8 0-1.2.7-.8 1.5zM595.9 708.7c-1.2 1.6-1.2 1.7.2.6.9-.7 2-.9 2.4-.5.5.4.5.1.1-.6-.9-1.6-1.1-1.5-2.7.5zM601.3 708.7c0 .9.4 1 1.4.2.7-.6 1.3-1.2 1.3-1.4 0-.1-.6-.2-1.3-.2-.8 0-1.4.6-1.4 1.4zM609 708c0 .5.5 1 1.1 1 .5 0 .7-.5.4-1-.3-.6-.8-1-1.1-1-.2 0-.4.4-.4 1zM197.5 709.1c-.4.6-.5 1.2-.2 1.5.2.3.7-.2 1-1.1.7-1.7.1-2-.8-.4zM214.7 709.2c-1.3 1-1.4 1.7-.6 2.8.9 1.3 1 1.2.5-.3-.3-1.1 0-1.7.9-1.7.8 0 1.5-.5 1.5-1 0-1.3-.3-1.3-2.3.2zM587 708.9c0 .7-.5.9-1.2.5-.7-.5-.8-.3-.3.5.5.9 1 1 1.8.2.6-.6.8-1.4.4-1.8-.4-.3-.7-.1-.7.6zM575 709.7v1.8c0 .3.3.5.6.4.4 0 1 .5 1.5 1.2.4.7 1.5 1.4 2.3 1.5.9.1 1.3-.2 1-.8-.3-.5-.9-.7-1.2-.4-.3.4-1.4-.6-2.4-2.1-1-1.6-1.8-2.2-1.8-1.6zM577 709.4c0 .2.7.9 1.5 1.6 1.3 1.1 1.4 1 .9-.4-.5-1.4-2.4-2.3-2.4-1.2zM597.9 710.2c-.6 2-.6 3.9 0 4.2.4.3.7-.6.7-2 0-2-.4-3.2-.7-2.2zM182.7 712.1c.7.7 1.5 1 1.8.7.3-.3-.2-.9-1.2-1.2-1.4-.6-1.5-.5-.6.5zM203.6 712.7c-.6 1.4-.5 1.5.5.6.7-.7 1-1.5.7-1.8-.3-.3-.9.2-1.2 1.2zM210.8 711.7c.6.2 1.2.9 1.2 1.4 0 .6-.6.7-1.2.3-.7-.4-.9-.3-.5.1.4.5 1.4 1 2.2 1.1 1.2.2 1.2-.2.5-1.7-.6-1-1.6-1.9-2.3-1.8-.9 0-.9.2.1.6zM226.1 712.7c-.7.8-1.1 1.6-.8 1.9.2.2 1-.2 1.7-1.1 1.7-2 .9-2.7-.9-.8zM583.5 712c-.3.5-.3 1 .2 1 .4 0 .3.4-.3.8-.8.5-.5 1.2 1 2.4 1.8 1.3 2.3 1.3 2.3.3 0-.8-.3-1.4-.6-1.3-1.9.2-2.4-.4-1.1-1.2 1.1-.7 1.1-1 .2-1-.7 0-1-.5-.7-1 .3-.6.4-1 .1-1-.3 0-.8.4-1.1 1zM591.6 711.8c-.3.5.1.9.9.9s1.2-.4.9-.9c-.3-.4-.7-.8-.9-.8-.2 0-.6.4-.9.8zM193.6 713.8c-.2.4-.1 1.4.4 2.2.7 1.1.9.9.7-.8-.1-2.4-.3-2.6-1.1-1.4zM571.3 715l-2.2 1.7 2.4 1.1c2.6 1.2 3.5.7 3.5-1.9 0-2.6-1.2-2.9-3.7-.9zm2.7 1c0 1.3-.5 1.8-1.5 1.4-1.2-.5-1.3-1-.4-2 1.5-1.9 1.9-1.8 1.9.6zM600.6 714.2c.3.5 1 .6 1.5.3 1.3-.9 1.1-1.2-.6-1.2-.8 0-1.2.4-.9.9zM215.3 715.3c0 .8.6 1.4 1.3 1.4.7 0 1-.6.7-1.4-.3-.7-.8-1.3-1.2-1.3-.4 0-.8.6-.8 1.3zM220.1 715.7c.7 1 1.4 1.9 1.5 2.1.1.2.4-.4.8-1.3.3-.9.2-1.3-.4-1-.6.3-1 .1-1-.4 0-.6-.5-1.1-1.1-1.1-.8 0-.7.6.2 1.7zM576.6 716.3c.3 1 .9 1.5 1.2 1.2.3-.3 0-1.1-.7-1.8-1-.9-1.1-.8-.5.6zM589.6 716.7c-.6 1.4-.5 1.5.5.6.7-.7 1-1.5.7-1.8-.3-.3-.9.2-1.2 1.2zM223.7 716.6c-.4.4-.7 1.1-.7 1.5 0 .9 2.7.5 3.7-.6.4-.4.3-.5-.4-.2-.6.4-1.3.2-1.5-.4-.2-.5-.7-.7-1.1-.3zM597.3 717.5c0 .8.4 1.2.9.9.5-.3.6-1 .3-1.5-.9-1.3-1.2-1.1-1.2.6zM211.9 718.7c-1.3 1.6-1.2 1.7.4.4.9-.7 1.7-1.5 1.7-1.7 0-.8-.8-.3-2.1 1.3zM237.7 718.4c-.4 1 0 1.2 1.4.9 1.1-.3 1.9 0 1.9.6 0 .7-.4 1-.8.7-.4-.2-.9.5-.9 1.7-.2 2.1-.1 2.2 1.3.3 1.9-2.6 1.8-3.3-.5-4.5-1.4-.8-2-.7-2.4.3zM582.6 718.4c.5 1.3.4 1.7-.4 1.2-.7-.4-1.2-.2-1.2.3 0 1.4 1.7 1.4 2.6 0 .3-.6.1-1.6-.5-2.2-.9-.9-1-.7-.5.7zM568.3 719c.2.8 1 1.4 1.7 1.2.8-.2 1 .3.6 1.5-.6 1.4-.5 1.6.5.5 1-.9 1-1.5.1-2.4-.7-.7-1.2-.8-1.2-.3 0 .6-.5.3-1.1-.5-.9-1.3-1-1.3-.6 0zM205.9 719.2c-.5 1.8-.6 3.8-.1 3.4.7-.8 1.2-3.6.6-3.6-.2 0-.4.1-.5.2zM227.4 719.9c.4.5.1 1.2-.4 1.4-.6.3-.5.4.2.3 1.5-.3 2.3-2.6.8-2.6-.6 0-.9.4-.6.9zM219 720.4c0 .2.8 1 1.8 1.7 1.5 1.3 1.6 1.2.3-.4s-2.1-2.1-2.1-1.3zM209.5 722c.3.5.8 1 1.1 1 .2 0 .4-.5.4-1 0-.6-.5-1-1.1-1-.5 0-.7.4-.4 1z"/><path d="M233.7 721.7c-.3.5 0 1.7.4 2.8.9 1.9.9 1.9.5-.2-.3-1.6.2-2.3 1.8-2.6l2.1-.4-2.2-.2c-1.2 0-2.4.2-2.6.6zM242 723c-.6 1.1-.7 2-.3 2 1 0-1.9 2-3 2-.5 0-.5-.5-.1-1.2.4-.6.3-.8-.4-.5-1.2.8-1 3.2.3 4.4.4.4.5.3.2-.3-.4-.6.5-1.6 1.8-2.2 1.4-.7 2.5-1.5 2.4-1.9-.3-2 .2-3.4 1.1-2.8.5.3.7 1.3.4 2.3-.5 1.4-.4 1.4.4.3 1.1-1.5.5-4.1-.9-4.1-.4 0-1.3.9-1.9 2zM551.5 722.1c-.4.6-.5 1.2-.2 1.5.2.3.7-.2 1-1.1.7-1.7.1-2-.8-.4zM563 721.5c0 .5.5 1.7 1 2.5s1 1 1 .5c0-.6-.5-1.7-1-2.5s-1-1.1-1-.5zM218.5 724c1 1.1 2 2 2.3 2 .3 0-.3-.9-1.3-2s-2-2-2.3-2c-.3 0 .3.9 1.3 2zM214.6 723.8c-.3.5.1.9.9.9s1.2-.4.9-.9c-.3-.4-.7-.8-.9-.8-.2 0-.6.4-.9.8zM251 724c0 .6.7 1 1.5 1s1.5-.2 1.5-.4-.7-.6-1.5-1c-.8-.3-1.5-.1-1.5.4zM567.5 724c-.3.5-.1 1 .4 1 .6 0 1.1-.5 1.1-1 0-.6-.2-1-.4-1-.3 0-.8.4-1.1 1zM543.6 725.3c-1.6 1.2-1.6 1.4-.3 1.4.9 0 1.8-.6 2.1-1.4.3-.7.4-1.3.3-1.3-.2 0-1.1.6-2.1 1.3zM222 725.4c0 .2.8 1 1.8 1.7 1.5 1.3 1.6 1.2.3-.4s-2.1-2.1-2.1-1.3zM227.5 726c.3.5.8 1 1.1 1 .2 0 .4-.5.4-1 0-.6-.5-1-1.1-1-.5 0-.7.4-.4 1zM546 727c-.6 1.1-.7 2-.3 2.1.4 0-.1.5-1.2 1-1.7.7-1.7.8-.2.6 1-.1 1.8-.7 1.9-1.2 0-.6.4-1.8.9-2.8.5-.9.7-1.7.5-1.7-.3 0-1 .9-1.6 2zM559 726.1c0 .5.5.7 1 .4.6-.3 1-.8 1-1.1 0-.2-.4-.4-1-.4-.5 0-1 .5-1 1.1zM571 726.4c.7.7 1.3.7 2 0 .6-.6.3-1-1-1s-1.6.4-1 1zM251 726.9c0 1 1.9 2.5 2.5 2 .1-.2-.3-1-1.1-1.7s-1.4-.8-1.4-.3zM255 728.2c1.1 1.2 2 3.1 2.1 4.2 0 1.2.3 1.5.6.8s.2-1.9-.1-2.7c-.3-.9-.5-1.8-.5-2.1.1-.8-2.2-2.4-3.4-2.4-.4 0 .1 1 1.3 2.2zM202.7 728.1c.7.7 1.5 1 1.8.7.3-.3-.2-.9-1.2-1.2-1.4-.6-1.5-.5-.6.5zM243 728.2c0 1.1 1.2 1 3-.2 1.2-.7 1-.9-.8-.7-1.2 0-2.2.5-2.2.9zM258 728c0 .5.5 1 1 1 .6 0 1-.5 1-1 0-.6-.4-1-1-1-.5 0-1 .4-1 1zM536.6 728.5c-1.1.8-1.6 1.5-1 1.5.5 0 .2.5-.6 1.1-1.3.9-1.2 1 .3.5.9-.3 1.7-.1 1.7.4 0 .6.5 1 1.1 1 .8 0 .8-.5-.1-1.5-1-1.2-1-1.8 0-3 1.6-1.9 1.1-1.9-1.4 0zM548 728c0 .5.5 1 1.1 1 .5 0 .7-.5.4-1-.3-.6-.8-1-1.1-1-.2 0-.4.4-.4 1zM560.5 728c-.3.6.1.7.9.4 1.8-.7 2.1-1.4.7-1.4-.6 0-1.3.4-1.6 1zM247.2 728.9c-1.1.6-1 1 .4 1.5.9.4 2.2.2 2.8-.4.8-.8.6-.9-.8-.4-1.3.5-1.7.4-1.2-.4.8-1.4.6-1.5-1.2-.3zM263 729c0 .5.5 1 1.1 1 .5 0 .7-.5.4-1-.3-.6-.8-1-1.1-1-.2 0-.4.4-.4 1zM235 729.7c0 .6.6 1.5 1.3 2 1.5.9 5.3 1.6 4.5.7-.3-.3-1.4-.7-2.3-.8-.9-.1-2.1-.9-2.6-1.7-.5-.9-.9-1-.9-.2zM240.6 729.8c-.3.5.1.9.9.9s1.2-.4.9-.9c-.3-.4-.7-.8-.9-.8-.2 0-.6.4-.9.8zM562 729.4c0 .2.8 1 1.8 1.7 1.5 1.3 1.6 1.2.3-.4s-2.1-2.1-2.1-1.3zM573 730.1c0 .5.5.7 1 .4.6-.3 1-.8 1-1.1 0-.2-.4-.4-1-.4-.5 0-1 .5-1 1.1zM250.9 731.7c-1.3 1.6-1.2 1.7.4.4 1.6-1.3 2.1-2.1 1.3-2.1-.2 0-1 .8-1.7 1.7zM254 730.9c0 .6.4 1.3 1 1.6.6.3.7-.1.4-.9-.7-1.8-1.4-2.1-1.4-.7zM260 730.7c.8.3 2.4 1.3 3.5 2.2 2 1.6 2 1.6.1-.7-1.1-1.2-2.6-2.2-3.5-2.1-1.4 0-1.4.1-.1.6zM267 731.1c0 .5-.5.7-1.1.3-.8-.4-.8 0 0 1.5 1.4 2.6 2.3 2.6 3.9.1 1.5-2.5.4-2.6-1.5-.3-1.3 1.7-1.4 1.6-.8-.5.4-1.2.4-2.2.1-2.2-.3 0-.6.5-.6 1.1z"/><path d="M531.4 732.3c.1 1.7.8 2.2 3.1 2.4 2.5.2 2.7 0 1.2-.8-.9-.6-2.2-.7-2.9-.3-.8.5-.9.2-.5-.9.3-.9.2-1.9-.2-2.1-.5-.3-.8.4-.7 1.7zM541 731.5c0 .8.4 1.5 1 1.5.5 0 .7-.7.4-1.5-.4-.8-.8-1.5-1-1.5-.2 0-.4.7-.4 1.5zM244.5 732c-.3.6.1.7.9.4 1.8-.7 2.1-1.4.7-1.4-.6 0-1.3.4-1.6 1zM528.6 732.7c-.6 1.4-.5 1.5.5.6.7-.7 1-1.5.7-1.8-.3-.3-.9.2-1.2 1.2zM550.6 731.8c-.3.5.1.9.9.9s1.5-.4 1.5-.9c0-.4-.4-.8-.9-.8-.6 0-1.2.4-1.5.8zM558.6 731.8c-.2.4.4.8 1.4.8 1 0 1.6-.4 1.4-.8-.3-.4-.9-.8-1.4-.8-.5 0-1.1.4-1.4.8zM554.6 733.5c-1.1.8-1.5 1.5-.9 1.5s1.6-.7 2.3-1.5c1.6-1.9 1.1-1.9-1.4 0zM233.5 734c.3.5.8 1 1.1 1 .2 0 .4-.5.4-1 0-.6-.5-1-1.1-1-.5 0-.7.4-.4 1zM253.5 734c.6 1 .4 1.2-1.1.6s-1.7-.5-.6.5c.9.9 1.5 1 2.3.2.8-.8.7-1.3-.2-1.8-.8-.6-1-.4-.4.5zM259 734c0 .5.7.6 1.7.3 1.2-.5 1.4-.3.8.7-.5.9-.4 1.1.4.6.6-.4.9-1.2.6-1.7-.8-1.2-3.5-1.2-3.5.1z"/><path d="M526.4 734.9c1.2 1.3 1.4 2 .5 2.3-.7.2-1.3 1.5-1.5 2.9-.1 1.3 0 1.8.2 1.2.3-.7.5-1.5.4-1.9-.1-.4 1.1-1.5 2.7-2.6 1.5-1.1 2-1.7 1-1.4-1.1.3-2 0-2.3-.9-.4-.8-1.1-1.5-1.7-1.5-.5 0-.2.9.7 1.9zM545.4 734.1c-.4.7-.3.9.4.5.5-.3 1.3 0 1.5.6.4.9.6 1 .6.1.1-1.7-1.6-2.5-2.5-1.2zM569.6 733.8c-.2.4-.1 1.4.4 2.2.7 1.1.9.9.7-.8-.1-2.4-.3-2.6-1.1-1.4zM521.5 734.9c-.4.7 0 .8 1.1.4 1.2-.4 1.5-.3 1 .5-.4.7-.2 1.2.4 1.2 1.4 0 .8-2.2-.7-2.7-.6-.2-1.4.1-1.8.6zM538.8 734.7c.7.3 1.6.2 1.9-.1.4-.3-.2-.6-1.3-.5-1.1 0-1.4.3-.6.6zM263.5 736.1c-.4.6-.4 1.3-.1 1.6.3.4.6.1.6-.6s.5-.9 1-.6c.6.3 1 .1 1-.4 0-1.4-1.7-1.4-2.5 0zM269.4 736.1c-.3.6-.2 1.5.2 1.9 1.2 1.2 3.8-.5 3-1.9-.9-1.4-2.3-1.4-3.2 0zm2.6.3c0 .3-.4.8-1 1.1-.5.3-1 .1-1-.4 0-.6.5-1.1 1-1.1.6 0 1 .2 1 .4zM257.5 737c-.3.6.1.7.9.4 1.8-.7 2.1-1.4.7-1.4-.6 0-1.3.4-1.6 1zM530.7 737.1c-.9.6-1.5 1.4-1.2 1.9.3.4-.2 1-1 1.4-1.7.6-2 2.6-.4 2.6.5 0 .7-.5.3-1.2-.5-.7-.2-.9.8-.5 1.1.4 1.5 0 1.4-1.1-.2-.9.4-2.2 1.3-2.9 2-1.5 1.3-1.6-1.2-.2zM551.4 737.5c.1.8.8 2.1 1.6 2.8 1.2 1 1.2.9.2-.4-.6-.9-.9-1.8-.6-2.1.3-.3.1-.9-.4-1.2-.6-.3-.9.1-.8.9zM233.6 737.8c-.3.5.1.9.9.9s1.2-.4.9-.9c-.3-.4-.7-.8-.9-.8-.2 0-.6.4-.9.8zM252.7 738.1c.7.7 1.5 1 1.8.7.3-.3-.2-.9-1.2-1.2-1.4-.6-1.5-.5-.6.5zM267 737.7c0 .6.8 1.7 1.8 2.4 1.6 1.3 1.6 1.3.2-.6-.8-1.1-1.6-2.2-1.7-2.4-.2-.2-.3 0-.3.6zM518 737.9c0 .5.9.7 2 .4 1.1-.3 2-.7 2-.9 0-.2-.9-.4-2-.4s-2 .4-2 .9zM533.5 737.9c-.3.5 0 1.3.6 1.7.8.4.9.3.5-.4-1.1-1.8.4-1.4 2.2.6 1 .9 1.4 1.3 1 .8-1.2-1.6-.9-2.8.5-2 .6.4.9.3.4-.1-1.1-1.3-4.5-1.6-5.2-.6zM542.6 738.5c.5 1.1.4 1.6-.3 1.2-.5-.3-1 0-1 .8 0 1.2.3 1.2 1.6.3.9-.7 1.7-1.3 1.9-1.4.1-.1-.4-.7-1.3-1.4-1.3-1.1-1.4-1-.9.5zM557 738.1c0 .5.5.7 1 .4.6-.3 1-.8 1-1.1 0-.2-.4-.4-1-.4-.5 0-1 .5-1 1.1zM560.6 738.2c.3.5 1 .6 1.5.3 1.3-.9 1.1-1.2-.6-1.2-.8 0-1.2.4-.9.9zM565.6 738.2c.3.5 1 .6 1.5.3 1.3-.9 1.1-1.2-.6-1.2-.8 0-1.2.4-.9.9zM290.3 739.6c-.3.8-.1 2 .6 2.7.6.6 1.1.7 1.1.1 0-.5.5-.2 1.1.6.9 1.3 1 1.3.6 0-.2-.8-1-1.4-1.7-1.2-.8.2-1.1-.4-.7-1.8.6-2.4-.1-2.7-1-.4zM523 738.9c0 .7-.4.9-1 .6-.6-.4-.7.1-.3 1.2.6 1.6.5 1.6-1 .4-1-.8-1.9-1.2-2.2-1-.2.3.5 1 1.5 1.7 1.6 1 2.1.9 3.1-.9.6-1.1.8-2.3.5-2.7-.3-.3-.6 0-.6.7zM243.5 740c.3.5.8 1 1.1 1 .2 0 .4-.5.4-1 0-.6-.5-1-1.1-1-.5 0-.7.4-.4 1zM261 740c0 .5.5 1 1 1 .6 0 1-.5 1-1 0-.6-.4-1-1-1-.5 0-1 .4-1 1zM264 739.4c0 .2.7.7 1.6 1 .8.3 1.2.2.9-.4-.6-1-2.5-1.4-2.5-.6zM273 739.5c0 .8 2.9 1.2 3.9.5.9-.5.4-.8-1.3-.8-1.4 0-2.6.2-2.6.3zM294.4 741.2c.8 1.3 1.5 2.6 1.6 3v2c0 .7.6.4 1.2-.6.8-1.5.8-2.1 0-2.4-.7-.2-1.2-.8-1.2-1.3 0-.6.8-.5 2 .1 1.1.6 2 .7 2.1.3 0-.4.4.1.9 1.2.8 1.8.9 1.8.9.2.1-1 .5-1.6.9-1.3 1.3.8.7 4.7-.9 5.6-1 .7-.8.9.8.7 1.2 0 2-.3 1.8-.6-.3-.2.4-1 1.5-1.8s2-1.9 2-2.4c0-.6-.7-.3-1.6.6-2.1 2-3.1 1.1-1.3-1.2.8-.9.9-1.4.2-1-.6.4-1.4.3-1.8-.2-.3-.5-1.4-.8-2.5-.6-1.1.2-2 0-2-.5s-.9-.7-2-.5c-1.1.2-2 0-2-.6 0-.5-.5-.9-1-.9-.6 0-.4 1 .4 2.2zM504.3 740.5c-1.5 1.6-1.6 2.5-.5 2.5.4 0 1.3-.9 2-2 1.4-2.3.3-2.6-1.5-.5zM271.4 740.8c.3.6 0 1.3-.6 1.6-.7.3-.2.3 1.1 0 1.7-.5 2.1-.3 1.6.6-.5.9-.4 1.1.3.6 1.6-1 1.5-1.4-.9-2.7-1.3-.6-1.9-.7-1.5-.1zM500.1 741.9c-.6 1-.7 2.1-.4 2.5 1.3 1.3 2.1.5 1.9-1.9-.1-3-.2-3-1.5-.6zM276.5 742.1c-.6.8-.4 1 .5.4 1-.6 1.2-.4.6 1.1s-.5 1.7.5.6c.9-.9 1-1.5.2-2.3-.8-.8-1.3-.7-1.8.2zM516.7 742.4c.5 1.4.3 1.7-.7 1.1-.9-.5-1.1-.4-.6.4.4.6 1.1.9 1.6.6.4-.3 1.1.1 1.3.7.4 1 .6 1 .6 0 .1-.7.6-1 1.3-.6.7.5.8.3.4-.5-.5-.7-1-1-1.4-.7-.3.3-1.1-.2-1.9-1.2-1.2-1.6-1.3-1.6-.6.2zM533.9 741.2c-.6 2-.6 3.9 0 4.2.4.3.7-.6.7-2 0-2-.4-3.2-.7-2.2zM549 742.1c0 .5.5.7 1 .4.6-.3 1-.8 1-1.1 0-.2-.4-.4-1-.4-.5 0-1 .5-1 1.1zM266.9 743.7c-1.3 1.6-1.2 1.7.4.4 1.6-1.3 2.1-2.1 1.3-2.1-.2 0-1 .8-1.7 1.7zM523.1 743.3c.2.1 1.3.9 2.4 1.7 1.9 1.4 1.9 1.4.6-.3-.7-.9-1.8-1.7-2.4-1.7-.6 0-.8.1-.6.3zM542.7 744.1c.7.7 1.5 1 1.8.7.3-.3-.2-.9-1.2-1.2-1.4-.6-1.5-.5-.6.5zM291.2 744.8c.2.8.8 1.3 1.3 1.2.6-.1 1.3.9 1.7 2.2l.7 2.3-.2-2.3c-.1-1.2-.6-2.2-1.1-2.2-.5.1-1.3-.4-1.8-1.2-.8-1.1-.9-1.1-.6 0zM503.6 745.3c.3 1 .9 1.5 1.2 1.2.3-.3 0-1.1-.7-1.8-1-.9-1.1-.8-.5.6z"/><path d="M299.5 746c.3.6.1 1-.6 1s-1 .3-.6.6c.3.3 1.3.2 2.2-.4 1.6-.8 1.6-.9.1-1.5-1-.4-1.5-.3-1.1.3zM483.3 745.7c.9.9-1.2 3.3-2.9 3.3-.8 0-1.4-.5-1.4-1.1 0-.5.4-.8.9-.4.5.3 1.2.1 1.5-.4.4-.5-.2-.8-1.1-.7-.9.2-1.9.8-2.1 1.4-.6 2 2.8 2.5 4.7.8 1.7-1.5 3.1-1.3 3.1.6 0 .5-.5.6-1 .3-.6-.3-1.3.1-1.6.9-.3.9-1 1.3-1.5 1-.5-.3-.6.3-.2 1.2.4 1.1.8 1.3 1.1.6.2-.7.8-1 1.3-.7.5.4.6-.2.2-1.1-.4-1.1-.3-1.5.5-1 .6.3 1.3.2 1.7-.3.7-1.2-1.6-5.1-2.9-5.1-.5 0-.6.3-.3.7zM259.6 747.3c.3 1 .9 1.5 1.2 1.2.3-.3 0-1.1-.7-1.8-1-.9-1.1-.8-.5.6zM277.8 747.2c.5.5 1.6.8 2.3.6.8-.3.3-.7-1-1.1-1.7-.4-2.1-.3-1.3.5zM282.1 747.6c0 1.1.3 1.4.6.6.3-.7.2-1.6-.1-1.9-.3-.4-.6.2-.5 1.3zM312 747c-.8.5-1.1 1.2-.8 1.6.4.3 1.4-.1 2.3-1 1.8-1.7.9-2.1-1.5-.6zM317.9 746.7c-.1.5-.1 1.2 0 1.7s-.5.6-1.3.3c-1.6-.6-4.3 1.9-3.2 3 .3.3.6 0 .6-.7s.3-1 .6-.7c.9.9 4.6-1.2 3.9-2.3-.3-.5.3-1.1 1.2-1.3 1.7-.4 1.7-.5.1-.6-1 0-1.9.2-1.9.6zM498.4 747.7c-1 .7-1.3 1.3-.7 1.3.7 0 1.5-.5 1.8-1 .4-.6 1-.8 1.5-.5.5.3 1.1.2 1.4-.3.8-1.3-1.9-1-4 .5zM515.5 747c-.4.6-1 .8-1.5.5-.5-.3-1.1-.1-1.4.4-.8 1.3 2.2.7 3.6-.7.7-.7.9-1.2.6-1.2-.4 0-1 .5-1.3 1zM289 748c0 .5.5 1 1 1 .6 0 1-.5 1-1 0-.6-.4-1-1-1-.5 0-1 .4-1 1zM489.4 748.1c-.3.6-.1 1.6.6 2.2 1 .9 1.2.8.7-.5-.3-.9-.1-1.9.6-2.2.9-.3.9-.5 0-.5-.6-.1-1.5.4-1.9 1zM493 747.4c0 .2.7.7 1.6 1 .8.3 1.2.2.9-.4-.6-1-2.5-1.4-2.5-.6zM506 748.2c0 .4.7.8 1.5.8s1.5-.4 1.5-.8c0-.5-.7-.9-1.5-.9s-1.5.4-1.5.9zM523.5 748.1c-.3.4.2.6 1 .5 2.1-.3 2.8-1.3 1-1.3-.9 0-1.8.4-2 .8zM527.9 748.7c-1.3 1.6-1.2 1.7.4.4.9-.7 1.7-1.5 1.7-1.7 0-.8-.8-.3-2.1 1.3zM532 748c-.9.6-1 1-.3 1 .6 0 1.5-.5 1.8-1 .8-1.2.4-1.2-1.5 0zM275.3 749.5c0 .8.4 1.2.9.9.5-.3.6-1 .3-1.5-.9-1.3-1.2-1.1-1.2.6zM319.6 749.5c-.9 2.6-.7 3.2.5 1.2.6-1 .9-2.1.6-2.3-.2-.3-.7.2-1.1 1.1zM331.3 749.4c.4 1-.2 2.2-1.8 3.2-2.6 1.7-3.3 3.4-1.4 3.4.5 0 .8-.4.5-.9-.6-.9 2.2-2.6 3.7-2.2.5.1.5-.4.1-1-.5-.9-.2-1 .9-.6 2.2.8 2.1.5-.5-1.7-1.7-1.5-2-1.6-1.5-.2zM474.7 750.2c-1 1.1-1.6 2.2-1.3 2.6.6.6 3.5-2.7 3.6-4.1 0-1-.2-.8-2.3 1.5zM519.9 748.2c-.5 1.8-.6 3.8-.1 3.4.7-.8 1.2-3.6.6-3.6-.2 0-.4.1-.5.2zM278.6 749.8c-.2.4.4.8 1.4.8 1 0 1.6-.4 1.4-.8-.3-.4-.9-.8-1.4-.8-.5 0-1.1.4-1.4.8zM297.5 750c-.3.6.1 1.3 1 1.6 1.1.5 1.3 1 .5 1.9-.7.8-.5 1.2.5 1.2.8 0 1.1-.5.8-1-.4-.7.1-.8 1.3-.4 1.8.7 1.8.6.2-.6-1-.8-1.5-1.7-1.1-2.1.4-.4-.1-.4-1.1 0-1.4.5-1.7.4-1.2-.4.4-.7.5-1.2.2-1.2s-.8.5-1.1 1zM305.5 750c-.3.5 0 1.2.6 1.6.7.4.9.3.5-.4s.2-1 1.4-.9c1.3.1 1.9.6 1.5 1.5-.3.8 0 1 .7.6.8-.5.9-.1.4 1.2-.5 1.4-.4 1.6.4.8s.9-1.8.2-3.1c-1.1-1.9-4.8-2.8-5.7-1.3z"/><path d="M336.3 750.8c2.3 2.5 2.1 3.1-.5 2.6-2.1-.4-2.1-.4-.3.5 1.1.5 2.4.5 2.8.1 1-.9-1.3-5-2.7-5-.5 0-.2.8.7 1.8zM492.7 749.6c.7.3.9 1.3.6 2.2-.4 1.4-.3 1.4.5.2 1.2-1.6.7-3-1.1-2.9-.9 0-.9.2 0 .5zM501.5 750c.6 1 .3 1.2-1.1.7-1.8-.7-1.8-.6-.2.6 1 .8 1.6 1.7 1.3 2-.3.4-.2.5.2.2 1.2-.9 1.2-3.4.1-4.2-.7-.4-.8-.1-.3.7zM510.6 750.3c.3 1 .9 1.5 1.2 1.2.3-.3 0-1.1-.7-1.8-1-.9-1.1-.8-.5.6zM516 750c-.9.6-1 1-.3 1 .6 0 1.5-.5 1.8-1 .8-1.2.4-1.2-1.5 0zM303 750.9c0 .6.4 1.3 1 1.6.6.3.7-.1.4-.9-.7-1.8-1.4-2.1-1.4-.7zM340.6 751.6c-.5 1.4-.4 1.5.9.4 1.7-1.4 1.9-2 .6-2-.5 0-1.2.7-1.5 1.6zM464.7 751.6c.3.7.9 1.4 1.4 1.4 1.4 0 1-1.7-.5-2.3-1-.4-1.3-.1-.9.9zM495.7 751.9c-.4 1.7-.3 2.1.5 1.3.5-.5.8-1.6.6-2.3-.3-.8-.7-.3-1.1 1zM272 752.5c-.7.9-1.1 1.7-.9 2 .3.2 1-.5 1.7-1.5 1.4-2.4 1-2.6-.8-.5zM293.6 752.7c-.6 1.4-.5 1.5.5.6.7-.7 1-1.5.7-1.8-.3-.3-.9.2-1.2 1.2zM316 752c-.9.6-1 1-.3 1 .6 0 1.5-.5 1.8-1 .8-1.2.4-1.2-1.5 0zM321 751.8c0 .5.7.9 1.5.9s1.2-.4.9-.9c-.3-.4-.9-.8-1.5-.8-.5 0-.9.4-.9.8zM325 752c0 .5.5 1 1 1 .6 0 1-.5 1-1 0-.6-.4-1-1-1-.5 0-1 .4-1 1zM477 752c0 .5.5 1 1 1 .6 0 1-.5 1-1 0-.6-.4-1-1-1-.5 0-1 .4-1 1zM487 751.4c0 .2.7.7 1.6 1 .8.3 1.2.2.9-.4-.6-1-2.5-1.4-2.5-.6zM462.2 753.2c-1.4 1.4-1.6 3.8-.2 3.8.5 0 .6-.8.3-1.8-.6-1.5-.5-1.5 1-.3 1.1.9 1.7 1 1.7.2 0-.6-.5-1.1-1.1-1.1-.5 0-.7-.5-.4-1 .8-1.4.2-1.3-1.3.2zM490.7 753.3c-.3.8.1 1.4.8 1.4.7 0 1.1-.6.8-1.4-.3-.7-.6-1.3-.8-1.3-.2 0-.5.6-.8 1.3zM287.5 754c.3.5.8 1 1.1 1 .2 0 .4-.5.4-1 0-.6-.5-1-1.1-1-.5 0-.7.4-.4 1zM317.5 754.1c-.4.6-.5 1.2-.2 1.5.2.3.7-.2 1-1.1.7-1.7.1-2-.8-.4zM341.5 754c-.4.6-.4 1.4-.1 1.7.3.4.6.1.6-.6s.4-1 1-.6c.5.3.7 1.2.3 2-.3 1 .1 1.5 1.3 1.4 1.1 0 1.4-.3.6-.6-.6-.2-1-.8-.7-1.3.3-.4-.2-1.3-.9-1.9-1-.9-1.6-.9-2.1-.1zM362.8 755.5c-1.6 2.1-1.5 3.5.3 3.5 1.3 0 2.8-3.5 2.1-4.7-.5-.7-1.3-.3-2.4 1.2zm1.6 1c-.4.8-1.1 1.5-1.6 1.5-.6 0-.5-.6.2-1.5.7-.8 1.4-1.5 1.6-1.5.2 0 .1.7-.2 1.5zM367 754.1c0 .5.5.7 1 .4.6-.3 1-.8 1-1.1 0-.2-.4-.4-1-.4-.5 0-1 .5-1 1.1zM370.4 753.8c.3.5.2 1.2-.3 1.4-.5.1-.3 1.1.4 2.2 1.5 2 3.5 1.4 3.4-1.2 0-1.4-.2-1.4-.8.2-.5 1.4-1 1.6-1.5.8-.4-.7-.5-1.6-.1-2.1.3-.5 0-1.3-.6-1.7-.7-.4-.9-.3-.5.4zM442 754c0 .6.7 1 1.5 1s1.5-.2 1.5-.4-.7-.6-1.5-1c-.8-.3-1.5-.1-1.5.4zM453.5 754c.3.5 1.3 1 2.1 1s1.4.4 1.4 1c0 .5.6 1 1.3 1 .6-.1.1-1-1.2-2-2.5-2.1-4.6-2.7-3.6-1zM469.9 753.2c-.6 2.1-.5 3.7.2 3.2.5-.3.7-1 .4-1.5-1.1-1.6.7-1 2.2.8 1.3 1.6 1.3 1.6.3-.5-.9-1.8-2.8-3-3.1-2zM479.7 753.7c-.4.3-.7 1.1-.7 1.7 0 .6.5.5 1.2-.2.6-.6.9-1.4.7-1.7-.3-.3-.9-.2-1.2.2zM485.5 754c-.3.6.1 1.3 1 1.6 1.3.5 1.3.9.3 2.3-1 1.3-1 1.4.2.4 2-1.8 2.2-4.3.2-3.6-1 .4-1.3.2-.8-.5.4-.7.5-1.2.2-1.2s-.8.5-1.1 1zM521.5 754c.3.5.8 1 1.1 1 .2 0 .4-.5.4-1 0-.6-.5-1-1.1-1-.5 0-.7.4-.4 1zM305.3 756.2c0 1.3.1 1.7.4 1 .4-1 .8-1 2.1 0 1.2.9 1.1.6-.2-1-1.1-1.2-2-2.2-2-2.2-.1 0-.2 1-.3 2.2zM319.5 755c-.3.5-.1 1 .4 1 .6 0 1.1-.5 1.1-1 0-.6-.2-1-.4-1-.3 0-.8.4-1.1 1zM331 755.5c0 .8.2 1.5.4 1.5s.6-.7 1-1.5c.3-.8.1-1.5-.4-1.5-.6 0-1 .7-1 1.5zM349.6 755.5c-.3.9-.9 1.4-1.4 1.2-.4-.3-.8.9-.8 2.6-.1 1.8.1 2.6.3 1.9.3-.6.9-1 1.4-.6.5.3.9 0 .9-.5 0-.6-.5-1.1-1.2-1.1-.6 0-.3-.9.7-2s1.6-2.3 1.3-2.5c-.3-.3-.8.1-1.2 1zM386.1 755.6c0 1.1.3 1.4.6.6.3-.7.2-1.6-.1-1.9-.3-.4-.6.2-.5 1.3zM406 755c-.8.5-1 1-.5 1.1.6 0 .1.4-.9.8-1.6.6-1.7.8-.4 1.3 1 .4 1.9-.2 2.7-1.8 1.2-2.7 1.2-2.7-.9-1.4zM409.5 755c.3.5.8 1 1.1 1 .2 0 .4-.5.4-1 0-.6-.5-1-1.1-1-.5 0-.7.4-.4 1zM415 755c-.8.5-1.2 1.1-.9 1.4.2.3 1.1.1 1.9-.4.8-.5 1.2-1.1.9-1.4-.2-.3-1.1-.1-1.9.4zM420 754.6c0 .5.6 1.9 1.4 2.9.8 1.1 1.2 2.5.9 3.2-.3.7-.3 1.3 0 1.3 1.5 0 1.3-3.1-.4-5.6-1-1.6-1.9-2.4-1.9-1.8zM422.6 755.2c.3.4.9.8 1.5.8.5 0 .9-.4.9-.8 0-.5-.7-.9-1.5-.9s-1.2.4-.9.9zM446 754.8c0 .6-.8 1.3-1.7 1.5-1.6.4-1.6.5-.1.6 1.8.1 3.4-1.6 2.4-2.6-.3-.4-.6-.1-.6.5zM467.1 755.6c0 1.1.3 1.4.6.6.3-.7.2-1.6-.1-1.9-.3-.4-.6.2-.5 1.3zM497.3 755.3c0 .8.6 1.4 1.4 1.4.9 0 1-.4.2-1.4-.6-.7-1.2-1.3-1.4-1.3-.1 0-.2.6-.2 1.3zM301.5 755.9c-.3.5-.2 1.2.3 1.5.5.3.9-.1.9-.9 0-1.7-.3-1.9-1.2-.6zM311.7 756.4c-1.7 1.3-1.7 1.4.1 1.8 1.2.4 1.8-.1 1.8-1.3 0-1.1 0-1.9-.1-1.9 0 0-.8.7-1.8 1.4zM333.5 756.1c-.4.6-.5 1.2-.2 1.5.2.3.7-.2 1-1.1.7-1.7.1-2-.8-.4zM339.1 756.6c0 1.1.3 1.4.6.6.3-.7.2-1.6-.1-1.9-.3-.4-.6.2-.5 1.3zM351.6 756.5c-.9 2.6-.7 3.2.5 1.2.6-1 .9-2.1.6-2.3-.2-.3-.7.2-1.1 1.1zM397.9 757.1l1.9 2.1 2.1-2.1c1.2-1.2 1.7-2.1 1.2-2.1s-1.4.7-2.2 1.6c-1.1 1.4-1.3 1.4-2.1 0-.5-.9-1.3-1.6-1.9-1.6-.5 0-.1.9 1 2.1zM412 756.4c0 .9-.4 1.4-1 1.1-.5-.3-1-.1-1 .4 0 .6.5 1.1 1 1.1 1.3 0 2.5-2.8 1.6-3.7-.3-.4-.6.1-.6 1.1zM438 756v1.7c0 .5 1.1.9 2.5 1 1.5.1 2.3-.2 1.9-.8-.3-.5-1.5-.7-2.7-.4-2.1.6-2.2.6-.3-.9 1.7-1.4 1.8-1.6.3-1.6-.9 0-1.7.4-1.7 1zM451 756c-1.3.8-1.2 1 .3 1 .9 0 1.7-.5 1.7-1 0-1.2-.1-1.2-2 0zM503 756.1c0 .5.5.7 1 .4.6-.3 1-.8 1-1.1 0-.2-.4-.4-1-.4-.5 0-1 .5-1 1.1zM517.9 755.2c-.5 1.8-.6 3.8-.1 3.4.7-.8 1.2-3.6.6-3.6-.2 0-.4.1-.5.2zM335.7 756.7c-.4.3-.7 1.1-.7 1.7 0 .6.5.5 1.2-.2.6-.6.9-1.4.7-1.7-.3-.3-.9-.2-1.2.2zM367 757c0 .5.5 1 1.1 1 .5 0 .7-.5.4-1-.3-.6-.8-1-1.1-1-.2 0-.4.4-.4 1zM388 756.7c0 .5-1.1 1.6-2.5 2.3-2.5 1.3-3.5 3.2-1.4 2.7.6-.1 1.3.6 1.4 1.6.2 1.1.6 2.2.9 2.5.4.3.5-.4.3-1.6-.2-1.2-.6-2.5-1.1-2.9-.4-.4.3-1.5 1.6-2.4 1.2-1 1.9-2.1 1.5-2.5-.4-.4-.7-.3-.7.3z"/><path d="M407.6 757.7c-.7 1.8 1.6 3.8 4.4 3.8 1 0 1.4.9 1.3 2.5-.2 2.2-.2 2.3.6.5.5-1.1.5-2.5 0-3.1-.9-1.1-.2-2.4 1.3-2.4.5 0 .6.6.2 1.2-.4.7.2.4 1.4-.6 1.2-1.1 2.2-2.4 2.2-3 0-.6-.7-.3-1.4.6-.7 1-1.6 1.5-1.9 1.1-.4-.3-1.6.2-2.7 1.2-1.6 1.4-2.3 1.5-3.4.6-.8-.7-1.2-1.9-.9-2.7.3-.8.3-1.4 0-1.4s-.8.8-1.1 1.7zM296 758c-.9.6-1 1-.3 1 .6 0 1.5-.5 1.8-1 .8-1.2.4-1.2-1.5 0zM323 758c0 .5.5 1 1 1 .6 0 1-.5 1-1 0-.6-.4-1-1-1-.5 0-1 .4-1 1zM329.4 757.8c.3.5.2 1.2-.4 1.4-.5.2-.6.9-.1 1.6.6 1 1 .9 1.4-.7.3-1.2 0-2.4-.5-2.8-.6-.3-.8-.1-.4.5zM394 758c0 .5.7.7 1.5.4.8-.4 1.5-.8 1.5-1 0-.2-.7-.4-1.5-.4s-1.5.4-1.5 1zM431.4 757.9c.3.5-.1 1.2-1 1.5-.9.3-1.2 1.1-.8 1.8.5.8.2.9-.9.5-1-.3-1.7-.2-1.7.4 0 .6.7.9 1.6.7.8-.2 1.5-.8 1.5-1.3 0-.6 1-1.5 2.1-2.1 1.8-1 1.8-1.2.4-1.7-1-.4-1.5-.3-1.2.2zM447 758c0 .5.5 1 1 1 .6 0 1-.5 1-1 0-.6-.4-1-1-1-.5 0-1 .4-1 1zM453.6 757.8c-.2.4 0 1.4.6 2.2.8 1.2.9 1.1.4-.4-.5-1.4-.2-1.7.9-1.2.9.3 1.3.2 1-.4-.7-1.2-2.2-1.3-2.9-.2zM475 758c0 .5.5 1 1 1 .6 0 1-.5 1-1 0-.6-.4-1-1-1-.5 0-1 .4-1 1zM359 758.9c0 .9 3 2.4 3.6 1.8.2-.1-.6-.8-1.6-1.5-1.1-.7-2-.8-2-.3zM389.7 759.5c-.8.8-1.8 1.1-2.2.7-.5-.4-.5-.2-.1.5.7 1.3 3.6.6 3.6-.9 0-.5.5-.6 1-.3.6.3 1 .1 1-.4 0-1.5-1.6-1.4-3.3.4zM458.8 758.7c.6.2 1.8.2 2.5 0 .6-.3.1-.5-1.3-.5-1.4 0-1.9.2-1.2.5zM463 758.4c0 .3.9 1 2 1.6 1.1.6 2 .8 2 .6 0-.3-.9-1-2-1.6-1.1-.6-2-.8-2-.6zM319.4 761.5c0 1.3.3 2.2.7 1.9.8-.4.6-3-.2-3.8-.3-.3-.5.5-.5 1.9zM326.1 760.6c0 1.1.3 1.4.6.6.3-.7.2-1.6-.1-1.9-.3-.4-.6.2-.5 1.3zM333.3 760.5c0 .8.4 1.2.9.9.5-.3.6-1 .3-1.5-.9-1.3-1.2-1.1-1.2.6zM338.4 760.2c.9.5 2.3.5 3.2 0 1.2-.6.7-.9-1.6-.9s-2.8.3-1.6.9zM356.4 760.1c-.3.6-.2 1.5.4 2.1.6.6 1.2.6 1.7-.3.6-.8.4-1-.5-.4-1 .6-1.2.4-.7-.8.7-1.9.2-2.3-.9-.6zM365 760c0 .5.5 1 1 1 .6 0 1-.5 1-1 0-.6-.4-1-1-1-.5 0-1 .4-1 1zM368.8 759.8c.8.5 1.3 1.3 1.2 1.8 0 .5.6 1 1.4 1.2.9.2 1.6-.1 1.6-.7s-.7-.8-1.5-.4c-1 .3-1.5.1-1.3-.7.2-.7-.4-1.5-1.2-1.7-1.2-.4-1.2-.3-.2.5zM374.1 760.7c0 1.1.3 1.3.6.6.3-1 1-.9 2.7.2 1.2.8 2.6 1.2 2.9.8 1-1 .8-3.3-.3-3.3-.5 0-.6.8-.3 1.7.7 1.7.6 1.7-2 0-3.3-2.1-3.7-2.1-3.6 0zM397 759.7c1.7.8 1.1 1.9-1 2-1.3.1-1.8-.2-1.4-.9.4-.7.2-.8-.5-.4-1.7 1.1-.3 2.6 2.2 2.2 2.4-.3 3.1-2.8.9-3.2-.7-.1-.8 0-.2.3zM402 759.9c0 .6.5 1.3 1.1 1.7.8.4.7.9-.2 1.5-.7.4-1.1 1-.9 1.3.3.2 1.6-.3 2.9-1.3 1.8-1.4 2.1-2 1.1-2.6-.9-.6-1.1-.4-.5.5.5.8.3 1.1-.6.8-.8-.3-1.3-1.1-1.1-1.7.1-.6-.2-1.1-.8-1.1-.5 0-1 .4-1 .9zM419 760.4c0 .8.4 1.7.9 2.1.6.3.9-.4.8-1.5-.1-2.3-1.7-2.8-1.7-.6zM434.2 759.8c-.8.6-.2.9 1.8.9s2.6-.3 1.8-.9c-.7-.4-1.5-.8-1.8-.8-.3 0-1.1.4-1.8.8zM445.2 760.4c.7.8 1.5 1.2 1.7 1.1.5-.6-1-2.5-2-2.5-.5 0-.4.6.3 1.4zM451.7 761c1 1.1 1.9 2 2.1 2 .1 0-.2-.9-.8-2-.6-1.1-1.5-2-2-2-.6 0-.2.9.7 2zM480.4 759.8c.4.3 1.4.7 2.2.8.9.1 1.3 0 1-.4-.4-.3-1.4-.7-2.2-.8-.9-.1-1.3 0-1 .4zM322.9 761.7c-1.3 1.6-1.2 1.7.4.4 1.6-1.3 2.1-2.1 1.3-2.1-.2 0-1 .8-1.7 1.7zM289.3 762.5c0 .8.4 1.2.9.9.5-.3.6-1 .3-1.5-.9-1.3-1.2-1.1-1.2.6zM336.2 762.2c-1.5 1.5-1.6 2.8-.2 2.8.6 0 .9-.6.8-1.3-.2-.6.3-1.1 1-.9.8.1 1.1-.2.7-.8-.8-1.3-.8-1.3-2.3.2zM353.6 761.8c-.2.4-.1 1.4.3 2.1.6.9 1.1 1 1.5.2.4-.6.2-1.1-.4-1.1-.6 0-.8-.5-.5-1 .3-.6.4-1 .1-1-.3 0-.7.4-1 .8zM399.6 762.7c-.6 1.4-.5 1.5.5.6.7-.7 1-1.5.7-1.8-.3-.3-.9.2-1.2 1.2zM443.5 762c-.3.5-.1 1 .4 1 .6 0 1.1-.5 1.1-1 0-.6-.2-1-.4-1-.3 0-.8.4-1.1 1zM468 762c-.9.6-1 1-.3 1 .6 0 1.5-.5 1.8-1 .8-1.2.4-1.2-1.5 0zM359.7 762.7c-1.1 1.1-.8 2 .7 2 .8 0 1.2-.6.9-1.4-.6-1.5-.7-1.5-1.6-.6zM363.5 763c.3.5.8 1 1.1 1 .2 0 .4-.5.4-1 0-.6-.5-1-1.1-1-.5 0-.7.4-.4 1zM366.7 763.3c-.3.8.1 1.4.9 1.4 1.6 0 1.9-1.3.5-2.1-.5-.3-1.1 0-1.4.7zM391 763c0 .5.5 1 1.1 1 .5 0 .7-.5.4-1-.3-.6-.8-1-1.1-1-.2 0-.4.4-.4 1z"/><path d="M407.9 762.2c-.9 3-.6 3.7 1.2 2.8 2.3-1.3 2.5-2.2.2-1.3-1.1.4-1.4.3-.9-.5.4-.7.5-1.2.2-1.2s-.6.1-.7.2zM431.7 762.7c-1.1 1.1-.8 2 .7 2 .8 0 1.2-.6.9-1.4-.6-1.5-.7-1.5-1.6-.6zM435.5 763c.3.5.8 1 1.1 1 .2 0 .4-.5.4-1 0-.6-.5-1-1.1-1-.5 0-.7.4-.4 1zM439.8 762.7c.7.3 1.6.2 1.9-.1.4-.3-.2-.6-1.3-.5-1.1 0-1.4.3-.6.6zM474.3 763.8c1 1 1.4 2.2 1 2.7-.5.4-.2.5.5.1 1.1-.6 1-1.2-.4-2.7-.9-1-1.9-1.9-2.2-1.9-.3 0 .2.8 1.1 1.8zM495.7 762.7c-1 .9-.9 2.3.1 2.3.5 0 .9-.7.9-1.5 0-1.7-.1-1.8-1-.8zM324.6 763.8c-.3.5.1.9.9.9s1.2-.4.9-.9c-.3-.4-.7-.8-.9-.8-.2 0-.6.4-.9.8zM329.3 764.7c0 .9.4 1 1.4.2.7-.6 1.3-1.2 1.3-1.4 0-.1-.6-.2-1.3-.2-.8 0-1.4.6-1.4 1.4zM341.6 764.2c.3.4 1.1.5 1.9.1 2.1-.7 1.9-1.2-.4-1-1.1 0-1.8.5-1.5.9zM381 764.2c0 .4.4.8.9.8.6 0 1.2-.4 1.5-.8.3-.5-.1-.9-.9-.9s-1.5.4-1.5.9zM415.5 764c-.3.5-.1 1 .4 1 .6 0 1.1-.5 1.1-1 0-.6-.2-1-.4-1-.3 0-.8.4-1.1 1zM449.4 764.1c-.3.6-.3 1.3 0 1.6.3.4.6.1.6-.7 0-1 .3-1 1.5 0 .9.7 1.7 1.1 2 .9.2-.3-.4-1-1.5-1.7-1.3-.8-2.1-.8-2.6-.1zM455.1 763.3c.2.2 1.1.8 2 1.5 1.2.9 1.6.9 1.6-.1 0-.7-.9-1.4-2-1.4-1.1-.1-1.8-.1-1.6 0zM395.8 764.7c.7.3 1.6.2 1.9-.1.4-.3-.2-.6-1.3-.5-1.1 0-1.4.3-.6.6zM437.5 765c-.3.6.1.7.9.4 1.8-.7 2.1-1.4.7-1.4-.6 0-1.3.4-1.6 1zM471.5 764.9c-.3.5-.2 1.2.3 1.5.5.3.9-.1.9-.9 0-1.7-.3-1.9-1.2-.6zM313 766.1c0 .5.5.7 1 .4.6-.3 1-.8 1-1.1 0-.2-.4-.4-1-.4-.5 0-1 .5-1 1.1zM322.7 766.1c.7.7 1.5 1 1.8.7.3-.3-.2-.9-1.2-1.2-1.4-.6-1.5-.5-.6.5zM344.1 766.4c-.9 1.1-.9 1.6.1 2.2.7.4 1 .4.6-.1-.4-.4-.3-1.4.3-2.2.6-.7.9-1.3.6-1.3-.2 0-1 .6-1.6 1.4zM371.9 765.2c0 .2-.2 1-.4 1.9-.3 1.9 2.2 2.1 2.9.3.3-.9-.1-1.1-1.1-.7-1.1.4-1.4.2-.9-.5.4-.7.5-1.2.2-1.2s-.6.1-.7.2zM379.4 767.3c0 1.6.6 2.3 1.9 2.3 1.5 0 1.6-.2.4-1.1-.8-.5-1.4-1.4-1.5-1.8-.1-2-.8-1.4-.8.6zM399.3 765.7c.4.3.2 1.1-.3 1.8-.7.8-.6 1.2.3 1.2.7 0 1.4-.9 1.4-1.9.1-1-.3-1.8-.9-1.8-.6 0-.8.3-.5.7zM419.5 766c-.3.6.1 1.3.9 1.6.9.3 1.3 1.1.9 1.8-.3.6-.2.7.2.3 1.6-1.4 1.4-3.6-.3-3-1 .4-1.3.2-.8-.5.4-.7.5-1.2.2-1.2s-.8.5-1.1 1zM427.3 766.5c0 .8.4 1.2.9.9.5-.3.6-1 .3-1.5-.9-1.3-1.2-1.1-1.2.6zM489 766c0 .5.5 1 1.1 1 .5 0 .7-.5.4-1-.3-.6-.8-1-1.1-1-.2 0-.4.4-.4 1zM349.5 766.9c-.3.5-.2 1.2.3 1.5.5.3.9-.1.9-.9 0-1.7-.3-1.9-1.2-.6zM424.6 767.7c-.6 1.4-.5 1.5.5.6.7-.7 1-1.5.7-1.8-.3-.3-.9.2-1.2 1.2zM332.6 767.8c-.2.4.4.8 1.4.8 1 0 1.6-.4 1.4-.8-.3-.4-.9-.8-1.4-.8-.5 0-1.1.4-1.4.8zM361.9 768.7c-1.2 1.6-1.2 1.7.2.6.9-.7 1.9-1 2.2-.6.4.3.7.1.7-.5 0-1.7-1.6-1.5-3.1.5zM404.6 767.8c-.3.5.1.9.9.9s1.5-.4 1.5-.9c0-.4-.4-.8-.9-.8-.6 0-1.2.4-1.5.8zM411 767.9c0 .5.8 1.5 1.8 2.2 1.5 1.2 1.6 1.2.5-.2-.7-.9-1-1.9-.6-2.2.3-.4.1-.7-.5-.7-.7 0-1.2.4-1.2.9zM375 768.4c0 .2.8 1 1.8 1.7 1.5 1.3 1.6 1.2.3-.4s-2.1-2.1-2.1-1.3zM439.5 768.9c-.3.5-.2 1.2.3 1.5.5.3.9-.1.9-.9 0-1.7-.3-1.9-1.2-.6zM319.6 769.8c-.3.5.1.9.9.9s1.2-.4.9-.9c-.3-.4-.7-.8-.9-.8-.2 0-.6.4-.9.8zM392 770.5c-1.1 1.3-1.1 1.8 0 2.8 1 .9 1.1.9.6-.1-.4-.7-.2-1.9.4-2.7.7-.8 1-1.5.7-1.5-.2 0-1 .7-1.7 1.5zM434.6 769.8c-.2.4.4.8 1.4.8 1 0 1.6-.4 1.4-.8-.3-.4-.9-.8-1.4-.8-.5 0-1.1.4-1.4.8zM475.5 770c-.3.5-.1 1 .4 1 .6 0 1.1-.5 1.1-1 0-.6-.2-1-.4-1-.3 0-.8.4-1.1 1zM373.6 771.3c.3 1 .9 1.5 1.2 1.2.3-.3 0-1.1-.7-1.8-1-.9-1.1-.8-.5.6zM399.9 770.2c-.5 1.8-.6 3.8-.1 3.4.7-.8 1.2-3.6.6-3.6-.2 0-.4.1-.5.2zM410.5 772c1 1.1 2 2 2.3 2 .3 0-.3-.9-1.3-2s-2-2-2.3-2c-.3 0 .3.9 1.3 2zM443.3 771.5c0 .8.4 1.2.9.9.5-.3.6-1 .3-1.5-.9-1.3-1.2-1.1-1.2.6zM358.7 772.1c.7.7 1.5 1 1.8.7.3-.3-.2-.9-1.2-1.2-1.4-.6-1.5-.5-.6.5zM362.6 772.1c.4.8 3 .6 3.8-.2.3-.3-.5-.5-1.9-.5-1.3 0-2.2.3-1.9.7zM380 772c-.9.6-1 1-.3 1 .6 0 1.5-.5 1.8-1 .8-1.2.4-1.2-1.5 0zM395 771.4c0 .2.7.7 1.6 1 .8.3 1.2.2.9-.4-.6-1-2.5-1.4-2.5-.6zM402 771.4c0 .2.8 1 1.8 1.7 1.5 1.3 1.6 1.2.3-.4s-2.1-2.1-2.1-1.3zM341.5 773.9c-.3.5-.2 1.2.3 1.5.5.3.9-.1.9-.9 0-1.7-.3-1.9-1.2-.6zM353.5 774c-.3.5-.1 1 .4 1 .6 0 1.1-.5 1.1-1 0-.6-.2-1-.4-1-.3 0-.8.4-1.1 1zM433.5 774c.3.5.8 1 1.1 1 .2 0 .4-.5.4-1 0-.6-.5-1-1.1-1-.5 0-.7.4-.4 1zM451 773.5c0 .7 3 1.3 3.4.7.3-.4-.4-.9-1.5-.9-1-.1-1.9 0-1.9.2zM443 775.4c0 .2.7.7 1.6 1 .8.3 1.2.2.9-.4-.6-1-2.5-1.4-2.5-.6zM379.6 778.2c.3.4 1.1.5 1.9.1 2.1-.7 1.9-1.2-.4-1-1.1 0-1.8.5-1.5.9zM387 778.1c0 .5.5.7 1 .4.6-.3 1-.8 1-1.1 0-.2-.4-.4-1-.4-.5 0-1 .5-1 1.1zM405.4 778.2c-.4.7-.4 1 .1.6.4-.4 1.5-.2 2.4.5 1.4 1.1 1.4 1 .2-.6-1.6-2-1.8-2.1-2.7-.5zM421.5 777.9c-.3.5-.2 1.2.3 1.5.5.3.9-.1.9-.9 0-1.7-.3-1.9-1.2-.6z"/></svg>