<svg id="Layer_1" data-name="Layer 1" xmlns="http://www.w3.org/2000/svg" viewBox="0 0 67.54 67.54"><title>coinwink-logo</title><path d="M305.77,363A33.77,33.77,0,1,1,272,396.77,33.77,33.77,0,0,1,305.77,363h0Z" transform="translate(-272 -363)" style="fill:#fdff7f;fill-rule:evenodd"/><path d="M305.77,372.22a24.55,24.55,0,1,1-24.55,24.55,24.55,24.55,0,0,1,24.55-24.55h0Z" transform="translate(-272 -363)" style="fill:none;stroke:#1f1f1f;stroke-miterlimit:2.613126039505005;stroke-width:2.417384386062622px"/><path d="M315.52,402.74a9.75,9.75,0,1,1-19.49,0" transform="translate(-272 -363)" style="fill:none;stroke:#1f1f1f;stroke-miterlimit:2.613126039505005;stroke-width:2.900808095932007px"/><polyline points="19.56 30.5 23.76 27.32 27.95 30.5" style="fill:none;stroke:#1f1f1f;stroke-miterlimit:2.613126039505005;stroke-width:2.9023172855377197px"/><path d="M316.64,388.83a2.78,2.78,0,1,1-2.78,2.78,2.78,2.78,0,0,1,2.78-2.78h0Z" transform="translate(-272 -363)" style="fill:#1f1f1f;fill-rule:evenodd"/></svg>