<?xml version="1.0" encoding="utf-8"?>
<!-- Generator: Adobe Illustrator 26.0.1, SVG Export Plug-In . SVG Version: 6.00 Build 0)  -->
<svg version="1.1" id="Layer_1" xmlns="http://www.w3.org/2000/svg" xmlns:xlink="http://www.w3.org/1999/xlink" x="0px" y="0px"
	 viewBox="0 0 149.7 129.6" style="enable-background:new 0 0 149.7 129.6;" xml:space="preserve">
<style type="text/css">
	.st0{fill:none;stroke:#777;stroke-width:8.9999;stroke-linejoin:round;stroke-miterlimit:22.9256;}
	.st1{fill:none;stroke:#777;stroke-width:8.9999;stroke-linecap:round;stroke-linejoin:round;stroke-miterlimit:22.9256;}
</style>
<g>
	<path class="st0" d="M10.9,49.5c44.8-15,89.5-30,134.3-45c-8.8,37.3-17.5,74.5-26.3,111.8c-1,4.2-1.5,7.2-3.1,8.2
		c-2.9,2-7.1-1.2-8.9-2.9c-14.4-12.4-28.8-24.8-43.2-37.3c15.7-16.3,31.4-32.5,47.1-48.8C88.3,48,65.7,60.4,43.1,72.8
		C32,67.9,20.8,62.9,9.6,58C2.6,54.6,2.6,51.9,10.9,49.5L10.9,49.5z"/>
	<path class="st1" d="M43.1,72.8l8.8,46.9l11.7-35.4 M52.1,121.1l28.1-22.5"/>
</g>
</svg>
