<?xml version="1.0" encoding="UTF-8"?>
<!DOCTYPE svg PUBLIC "-//W3C//DTD SVG 1.1//EN" "http://www.w3.org/Graphics/SVG/1.1/DTD/svg11.dtd">
<!-- Creator: CorelDRAW 2021 (64-Bit) -->
<svg xmlns="http://www.w3.org/2000/svg" xml:space="preserve" width="100%" height="100%" version="1.1" style="shape-rendering:geometricPrecision; text-rendering:geometricPrecision; image-rendering:optimizeQuality; fill-rule:evenodd; clip-rule:evenodd"
viewBox="0 0 8269.24 3401.33"
 xmlns:xlink="http://www.w3.org/1999/xlink"
 xmlns:xodm="http://www.corel.com/coreldraw/odm/2003">
 <defs>
  <style type="text/css">
   <![CDATA[
    .fil0 {fill:url(#id0);fill-rule:nonzero}
   ]]>
  </style>
  <linearGradient id="id0" gradientUnits="userSpaceOnUse" x1="4309.23" y1="-607.93" x2="2590.42" y2="1667.17">
   <stop offset="0" style="stop-opacity:1; stop-color:#283440"/>
   <stop offset="0.278431" style="stop-opacity:1; stop-color:#141C2E"/>
   <stop offset="1" style="stop-opacity:1; stop-color:#00041B"/>
  </linearGradient>
 </defs>
 <g id="Layer_x0020_1">
  <metadata id="CorelCorpID_0Corel-Layer"/>
  <path class="fil0" d="M2.09 0.13l8266.19 -0.13 0 2.99 -396.98 0 319.13 59.01 77.85 0 0 2.99 -61.67 0 61.66 11.4 -0.54 2.94 -77.58 -14.35 -430.06 0.01 340.37 70.86 167.83 -0 0 2.99 -153.45 0 153.48 31.95 -0.61 2.93 -167.55 -34.88 -481.84 0 365.7 87 284.27 -0 0 2.99 -271.69 0 272.04 64.72 -0.69 2.92 -284.31 -67.64 -538.67 0.01 406.83 113.2 416.49 -0.01 0 2.99 -405.74 0.01 406.13 113 -0.8 2.88 -416.49 -115.89 -615.32 0.01 487.85 162.47 544.36 -0.01 0 2.99 -535.37 0.01 535.84 178.44 -0.94 2.83 -544.35 -181.28 -697.48 0.01 498.65 207.57 743.66 -0.01 0 2.99 -736.47 0.01 579.63 241.29 156.84 -0 0 2.99 -149.65 0 150.22 62.53 -1.15 2.76 -156.86 -65.3 -983.15 0.01 739.16 410.13 401.43 -0 0 2.99 -396.03 0 396.76 220.15 -1.46 2.61 -401.47 -222.76 -1234.24 0.02 822.53 684.37 813.91 -0.01 0 2.99 -810.32 0.01 811.28 675.01 -1.91 2.3 -814.04 -677.31 -1651.49 0.03 800.94 1333.88 -2.57 1.54 -801.87 -1335.41 -1662.18 0.02 0 1334.62 -3 0 0 -1334.62 -1662.23 0.02 -801.83 1335.37 -2.57 -1.54 800.91 -1333.83 -1651.58 0.03 -813.92 677.21 -1.91 -2.3 811.15 -674.91 -808.58 0.01 -0.48 0 -1.13 0 0 -2.99 1.62 0 812.21 -0.04 822.52 -684.37 -1234.36 0.02 -401.26 222.64 -1.46 -2.61 396.56 -220.03 -394.69 0 0 -2.99 400.08 -0 739.2 -410.15 -983.28 0.01 -156.57 65.18 -1.15 -2.76 149.93 -62.41 -148.22 0 0 -2.99 155.41 -0 579.69 -241.3 -735.1 0.01 0 -2.99 742.29 -0.01 498.67 -207.58 -697.61 0.01 -544.02 181.17 -0.94 -2.83 535.5 -178.33 -533.9 0.01 0 -2.99 542.89 -0.01 487.92 -162.48 -615.46 0.01 -416.09 115.78 -0.8 -2.88 405.73 -112.89 -404.2 0.01 0 -2.99 414.95 -0.01 406.89 -113.22 -538.8 0.01 -283.83 67.52 -0.69 -2.92 271.55 -64.6 -270.07 0 0 -2.99 282.65 -0 365.73 -87 -481.97 0 -166.96 34.76 -0.61 -2.93 152.89 -31.83 -151.73 0 0 -2.99 166.11 -0 340.41 -70.87 -430.19 0.01 -76.91 14.22 -0.54 -2.94 60.99 -11.28 -59.87 0 0 -2.99 76.05 0 319.18 -59.02 -395.23 0 0 -2.99zm92.51 62l428.37 -0.01 283.48 -59.02 -399.62 0 0.22 1.24 -312.46 57.78zm88.27 73.85l480.17 -0 297.9 -70.87 -437.67 0 -340.41 70.87zm354.78 -73.86l435.87 -0 248.08 -59.02 -403.52 0 0.13 0.61 -280.56 58.41zm-239.94 163.85l536.97 -0.01 312.68 -87 -483.92 0.01 -365.73 87zm378.31 -90l482.1 -0.01 254.68 -70.87 -438.88 0.01 -297.9 70.87zm310.48 -73.86l437.06 -0.01 212.11 -59.02 -401.09 0 -248.08 59.02zm-558.3 280.05l613.69 -0.01 339.96 -113.22 -546.76 0.01 -406.89 113.22zm417.65 -116.21l544.99 -0.01 261.25 -87 -493.56 0.01 -312.68 87zm323.44 -89.99l491.79 -0.01 212.79 -70.86 -449.9 0 -254.68 70.87zm265.43 -73.86l448.13 -0 177.21 -59.02 -413.23 0.01 -212.11 59.02zm-880.28 445.53l695.81 -0.01 390.34 -162.49 -598.22 0.01 -487.92 162.48zm496.91 -165.48l596.43 -0.01 271.97 -113.21 -528.44 0.01 -339.96 113.22zm348.94 -116.21l526.64 -0.01 209 -87 -474.39 0.01 -261.25 87zm270.24 -89.99l472.6 -0.01 170.23 -70.86 -430.04 0 -212.79 70.87zm221.78 -73.86l428.24 -0 141.77 -59.02 -395.57 0 0.28 0.83 -174.71 58.18zm-1727 900.39l981.48 -0.01 434.9 -241.31 -836.69 0.02 -579.69 241.3zm586.88 -244.3l834.89 -0.02 374.11 -207.57 -710.34 0.01 -498.67 207.58zm505.85 -210.57l708.54 -0.01 292.84 -162.48 -611.05 0.01 -390.33 162.49zm397.52 -165.48l609.25 -0.01 204.04 -113.21 -541.31 0.01 -271.97 113.21zm279.16 -116.2l539.52 -0.01 156.8 -87 -487.31 0.01 -209 87zm216.19 -89.99l485.52 -0.01 127.72 -70.86 -443 0.01 -170.24 70.86zm177.43 -73.85l441.2 -0.01 106.36 -59.01 -405.8 0 -141.76 59.02zm-1919.98 1313.53l1232.56 -0.02 492.94 -410.15 -986.3 0.02 -739.2 410.15zm744.59 -413.14l984.5 -0.02 290.01 -241.3 -839.62 0.01 -434.9 241.31zm440.29 -244.3l837.82 -0.01 249.48 -207.57 -713.19 0.01 -374.11 207.57zm379.5 -210.57l711.39 -0.01 195.28 -162.48 -613.83 0.01 -292.84 162.48zm298.24 -165.48l612.04 -0.01 136.06 -113.21 -544.06 0.01 -204.04 113.21zm209.43 -116.2l542.26 -0.01 104.56 -87 -490.03 0.01 -156.8 87zm162.19 -89.99l488.23 -0.01 85.17 -70.86 -445.69 0.01 -127.71 70.86zm133.11 -73.85l443.89 -0.01 70.93 -59.01 -408.46 0 -106.36 59.02zm-1956.24 2000.87l1649.8 -0.08 410.9 -684.3 -1238.17 0.02 -822.52 684.37zm826.12 -687.36l1236.37 -0.02 246.28 -410.14 -989.71 0.02 -492.94 410.15zm496.54 -413.14l987.91 -0.02 144.89 -241.3 -842.78 0.01 -290.01 241.3zm293.61 -244.3l840.98 -0.01 124.64 -207.57 -716.15 0.01 -249.48 207.57zm253.08 -210.57l714.35 -0.01 97.56 -162.48 -616.63 0.01 -195.28 162.48zm198.87 -165.48l614.83 -0.01 67.98 -113.21 -546.74 0.01 -136.07 113.21zm139.66 -116.2l544.94 -0.01 52.24 -87 -492.62 0.01 -104.56 87zm108.16 -89.99l490.82 -0.01 42.55 -70.86 -448.2 0.01 -85.17 70.86zm88.76 -73.85l446.4 -0.01 35.44 -59.01 -410.91 0.01 -70.93 59.01zm-751.57 2000.89l1660.43 -0.02 0 -684.39 -1249.48 0.02 -410.95 684.39zm412.74 -687.38l1247.69 -0.02 0 -410.14 -1001.41 0.02 -246.28 410.14zm248.07 -413.13l999.61 -0.02 0 -241.3 -854.72 0.01 -144.89 241.3zm146.69 -244.29l852.93 -0.01 0 -207.57 -728.28 0.01 -124.64 207.57zm126.44 -210.57l726.49 -0.01 0 -162.48 -628.93 0.01 -97.56 162.48zm99.36 -165.47l627.13 -0.01 0 -113.21 -559.15 0.01 -67.98 113.21zm69.78 -116.2l557.35 -0.01 0 -87 -505.11 0.01 -52.24 87zm54.04 -89.99l503.32 -0.01 0 -70.86 -460.77 0.01 -42.55 70.86zm44.35 -73.85l458.97 -0.01 0 -59.01 -423.54 0.01 -35.44 59.01zm4188.27 -59.07l-400.15 0 283.44 59.01 428.25 -0.01 -311.8 -57.65 0.25 -1.35zm-411.25 0l-403.92 0 248.05 59.01 435.74 -0 -280.02 -58.3 0.15 -0.71zm294.24 62l-437.54 0 297.86 70.86 480.04 -0 -340.37 -70.86zm-710.81 -61.99l-401.3 0 212.06 59.01 436.97 -0.01 -247.74 -58.93 0.02 -0.07zm260.3 62l-438.79 0.01 254.67 70.86 481.98 -0.01 -297.86 -70.86zm310.44 73.85l-483.8 0.01 312.66 87 536.84 -0.01 -365.7 -87zm-983.02 -135.84l-413.34 0.01 177.19 59 448.03 -0 -211.89 -58.96 0.01 -0.05zm222.64 62l-449.8 0 212.78 70.86 491.69 -0.01 -254.67 -70.86zm265.42 73.85l-493.46 0.01 261.24 87 544.88 -0.01 -312.67 -87zm323.42 89.99l-546.65 0.01 339.93 113.2 613.56 -0.01 -406.84 -113.2zm-1231.26 -225.83l-395.74 0 141.76 59.01 428.17 -0 -174.49 -58.11 0.3 -0.9zm183.17 62l-429.96 0 170.23 70.86 472.52 -0.01 -212.78 -70.86zm221.77 73.85l-474.31 0.01 209 87 526.56 -0.01 -261.24 -87zm270.23 89.99l-528.35 0.01 271.95 113.2 596.33 -0.01 -339.93 -113.2zm348.91 116.19l-598.13 0.01 390.3 162.46 695.69 -0.01 -487.85 -162.47zm-1427.61 -342.03l-405.74 0 106.35 59.01 441.15 -0.01 -141.76 -59.01zm148.95 62l-442.94 0.01 127.71 70.86 485.46 -0.01 -170.23 -70.86zm177.42 73.85l-487.26 0.01 156.8 87 539.45 -0.01 -209 -87zm216.19 89.99l-541.25 0.01 204.03 113.2 609.17 -0.01 -271.95 -113.2zm279.13 116.2l-610.96 0.01 292.81 162.47 708.45 -0.01 -390.3 -162.46zm397.49 165.46l-710.24 0.01 374.1 207.57 834.79 -0.02 -498.65 -207.57zm505.83 210.56l-836.58 0.02 434.86 241.28 981.35 -0.01 -579.64 -241.29zm-2136.91 -718.06l-408.41 0 70.92 59.01 443.84 -0.01 -106.35 -59.01zm111.75 62l-445.64 0.01 85.17 70.86 488.19 -0.01 -127.71 -70.86zm133.11 73.85l-489.98 0.01 104.56 87 542.22 -0.01 -156.8 -87zm162.19 89.99l-544.02 0.01 136.06 113.21 611.98 -0.01 -204.03 -113.2zm209.42 116.2l-613.78 0.01 195.27 162.47 711.33 -0.01 -292.81 -162.47zm298.2 165.46l-713.12 0.01 249.48 207.57 837.74 -0.01 -374.1 -207.57zm379.5 210.57l-839.54 0.01 290 241.29 984.41 -0.02 -434.87 -241.28zm440.26 244.28l-986.2 0.02 492.92 410.13 1232.45 -0.02 -739.17 -410.13zm-2147.51 -962.34l-410.89 0.01 35.44 59.01 446.37 -0.01 -70.92 -59.01zm74.52 62l-448.18 0.01 42.55 70.86 490.79 -0.01 -85.17 -70.86zm88.76 73.85l-492.59 0.01 52.24 87 544.91 -0.01 -104.56 -87zm108.16 89.99l-546.71 0.01 67.98 113.21 614.8 -0.01 -136.06 -113.21zm139.66 116.2l-616.59 0.01 97.56 162.47 714.31 -0.01 -195.27 -162.47zm198.87 165.46l-716.11 0.01 124.64 207.57 840.94 -0.01 -249.48 -207.57zm253.07 210.57l-842.74 0.01 144.89 241.29 987.85 -0.02 -290 -241.29zm293.59 244.28l-989.65 0.02 246.27 410.13 1236.3 -0.02 -492.92 -410.13zm496.52 413.12l-1238.11 0.02 410.94 684.38 1649.69 -0.03 -822.53 -684.37zm-2067.52 -1375.47l-423.51 0.01 0 59.01 458.95 -0.01 -35.44 -59.01zm37.23 62l-460.74 0.01 0 70.86 503.29 -0.01 -42.55 -70.86zm44.35 73.85l-505.09 0.01 0 87 557.33 -0.01 -52.24 -87zm54.04 89.99l-559.13 0.01 0 113.21 627.1 -0.01 -67.98 -113.21zm69.77 116.2l-628.9 0.01 0 162.48 726.46 -0.01 -97.56 -162.47zm99.36 165.46l-728.26 0.01 0 207.57 852.89 -0.01 -124.64 -207.57zm126.44 210.57l-854.69 0.01 0 241.3 999.58 -0.02 -144.89 -241.29zm146.68 244.28l-1001.37 0.02 0 410.14 1247.65 -0.02 -246.27 -410.13zm248.07 413.13l-1249.44 0.02 0 684.39 1660.39 -0.02 -410.94 -684.38z"/>
 </g>
</svg>
