<?xml version="1.0" encoding="UTF-8"?>
<!DOCTYPE svg PUBLIC "-//W3C//DTD SVG 1.1//EN" "http://www.w3.org/Graphics/SVG/1.1/DTD/svg11.dtd">
<!-- Creator: CorelDRAW 2021 (64-Bit) -->
<svg xmlns="http://www.w3.org/2000/svg" xml:space="preserve" width="100%" height="100%" version="1.1" style="shape-rendering:geometricPrecision; text-rendering:geometricPrecision; image-rendering:optimizeQuality; fill-rule:evenodd; clip-rule:evenodd"
viewBox="0 0 8269.24 3401.33"
 xmlns:xlink="http://www.w3.org/1999/xlink"
 xmlns:xodm="http://www.corel.com/coreldraw/odm/2003">
 <defs>
  <style type="text/css">
   <![CDATA[
    .str0 {stroke:#283440;stroke-width:3;stroke-miterlimit:2.61313}
    .fil0 {fill:none}
   ]]>
  </style>
 </defs>
 <g id="Layer_x0020_1">
  <metadata id="CorelCorpID_0Corel-Layer"/>
  <line class="fil0 str0" x1="2.09" y1="1.63" x2="8268.28" y2= "1.5" />
  <line class="fil0 str0" x1="2.09" y1="63.63" x2="8268.28" y2= "63.5" />
  <line class="fil0 str0" x1="2.09" y1="137.48" x2="8268.28" y2= "137.36" />
  <line class="fil0 str0" x1="2.09" y1="227.48" x2="8268.28" y2= "227.35" />
  <line class="fil0 str0" x1="2.09" y1="343.68" x2="8268.28" y2= "343.55" />
  <line class="fil0 str0" x1="2.09" y1="509.15" x2="8268.28" y2= "509.02" />
  <line class="fil0 str0" x1="2.09" y1="719.71" x2="8268.28" y2= "719.59" />
  <line class="fil0 str0" x1="2.09" y1="964" x2="8268.28" y2= "963.87" />
  <line class="fil0 str0" x1="2.09" y1="1377.13" x2="8268.28" y2= "1377" />
  <line class="fil0 str0" x1="0.96" y1="2064.51" x2="8268.28" y2= "2064.38" />
  <line class="fil0 str0" x1="4134.63" y1="1.63" x2="4134.63" y2= "3400.56" />
  <line class="fil0 str0" x1="2.09" y1="2064.51" x2="2471.15" y2= "2064.38" />
  <line class="fil0 str0" x1="4560.61" y1="1.75" x2="6601.46" y2= "3400.56" />
  <line class="fil0 str0" x1="8268.28" y1="2742.05" x2="4974.5" y2= "1.5" />
  <line class="fil0 str0" x1="5387.42" y1="1.5" x2="8268.28" y2= "1599.96" />
  <line class="fil0 str0" x1="8268.28" y1="1029.29" x2="5799.23" y2= "1.5" />
  <line class="fil0 str0" x1="6202.71" y1="2.51" x2="8268.28" y2= "690.39" />
  <line class="fil0 str0" x1="8268.28" y1="459.5" x2="6622.71" y2= "1.63" />
  <line class="fil0 str0" x1="7034.94" y1="1.63" x2="8268.28" y2= "295.03" />
  <line class="fil0 str0" x1="8268" y1="172.27" x2="7451.33" y2= "2.26" />
  <line class="fil0 str0" x1="7862.44" y1="2.89" x2="8268" y2= "77.87" />
  <line class="fil0 str0" x1="3708.64" y1="1.75" x2="1667.78" y2= "3400.56" />
  <line class="fil0 str0" x1="0.96" y1="2742.05" x2="3294.74" y2= "1.5" />
  <line class="fil0 str0" x1="2881.82" y1="1.5" x2="0.96" y2= "1599.96" />
  <line class="fil0 str0" x1="0.96" y1="1029.29" x2="2470.01" y2= "1.5" />
  <line class="fil0 str0" x1="2066.54" y1="2.51" x2="0.96" y2= "690.39" />
  <line class="fil0 str0" x1="0.96" y1="459.5" x2="1646.53" y2= "1.63" />
  <line class="fil0 str0" x1="1234.31" y1="1.63" x2="0.96" y2= "295.03" />
  <line class="fil0 str0" x1="1.24" y1="172.27" x2="817.91" y2= "2.26" />
  <line class="fil0 str0" x1="406.8" y1="2.89" x2="1.24" y2= "77.87" />
 </g>
</svg>
