<?xml version="1.0" standalone="no"?>
<!DOCTYPE svg PUBLIC "-//W3C//DTD SVG 20010904//EN"
 "http://www.w3.org/TR/2001/REC-SVG-20010904/DTD/svg10.dtd">
<svg version="1.0" xmlns="http://www.w3.org/2000/svg"
 width="600.000000pt" height="600.000000pt" viewBox="0 0 600.000000 600.000000"
 preserveAspectRatio="xMidYMid meet">
<metadata>
Created by potrace 1.14, written by Peter Selinger 2001-2017
</metadata>
<g transform="translate(0.000000,600.000000) scale(0.100000,-0.100000)"
fill="#000000" stroke="none">
<path d="M2840 5354 c-19 -2 -78 -9 -130 -15 -411 -47 -848 -231 -1185 -499
-471 -376 -783 -933 -866 -1550 -7 -52 -13 -183 -13 -290 0 -284 33 -489 121
-753 283 -851 1034 -1465 1943 -1588 122 -17 458 -17 580 0 597 81 1138 374
1512 821 290 345 477 772 539 1230 7 52 13 183 13 290 0 283 -33 489 -121 753
-279 839 -1019 1453 -1908 1583 -98 14 -416 26 -485 18z m444 -229 c692 -91
1303 -523 1625 -1149 156 -303 231 -621 231 -976 0 -201 -18 -350 -64 -532
-212 -841 -931 -1480 -1791 -1593 -149 -19 -421 -19 -570 0 -951 125 -1715
889 -1840 1840 -19 149 -19 421 0 570 125 948 884 1710 1833 1840 136 18 436
18 576 0z"/>
<path d="M1890 3535 l-225 -225 93 -92 92 -93 135 135 135 135 135 -135 135
-135 92 93 93 92 -225 225 c-124 124 -227 225 -230 225 -3 0 -106 -101 -230
-225z"/>
<path d="M3802 3676 c-138 -45 -209 -201 -152 -334 102 -237 451 -183 477 73
18 173 -159 315 -325 261z"/>
<path d="M1996 2383 c10 -121 49 -258 104 -368 171 -345 514 -558 900 -558
202 0 394 57 555 166 258 174 422 451 449 760 l7 77 -131 0 -130 0 0 -35 c0
-54 -29 -183 -56 -249 -73 -179 -242 -345 -422 -413 -183 -69 -361 -69 -544 0
-180 68 -349 234 -422 413 -27 66 -56 195 -56 249 l0 35 -130 0 -131 0 7 -77z"/>
</g>
</svg>
