<svg xmlns="http://www.w3.org/2000/svg" viewBox="0 0 177.5 119.09" class="icon-portfolio" ><path d="M76.52,30a31.21,31.21,0,0,1,6-1.82,31.71,31.71,0,0,1,12.48,0A31.3,31.3,0,0,1,101,30a31.82,31.82,0,0,1,10.4,7,31.66,31.66,0,0,1,4,4.86,32.38,32.38,0,0,1,3,5.54,31.94,31.94,0,0,1,0,24.47,32.17,32.17,0,0,1-11.82,14.39,32.76,32.76,0,0,1-5.54,3,31.94,31.94,0,0,1-24.47,0,32.38,32.38,0,0,1-5.54-3,31.19,31.19,0,0,1-4.86-4,32.83,32.83,0,0,1-4-4.86,31.65,31.65,0,0,1-3-5.54,31.94,31.94,0,0,1,0-24.47,31.65,31.65,0,0,1,3-5.54,32.83,32.83,0,0,1,4-4.86,31.83,31.83,0,0,1,4.86-4,32.34,32.34,0,0,1,5.54-3Zm79.64,3c4.26,4.14,8,8.14,11,11.63a152,152,0,0,1,9.46,12,5.17,5.17,0,0,1,.39.68,4.91,4.91,0,0,1,.29.74,5.44,5.44,0,0,1,.17.78h0a5.12,5.12,0,0,1,.06.78,5.35,5.35,0,0,1-.06.79h0a5.44,5.44,0,0,1-.17.78h0a5.54,5.54,0,0,1-.29.73,4.14,4.14,0,0,1-.39.68c-.34.49-2.3,3.31-5.65,7.44-1.82,2.25-4.05,4.89-6.66,7.77-2,2.17-4.14,4.46-6.49,6.81s-4.93,4.77-7.65,7.17a142.71,142.71,0,0,1-15.38,11.84,107.91,107.91,0,0,1-15.47,8.58,82.37,82.37,0,0,1-15.4,5.21,68.05,68.05,0,0,1-15.14,1.75,66.81,66.81,0,0,1-11-.93,74.93,74.93,0,0,1-11.14-2.76,87.75,87.75,0,0,1-11.21-4.57,107.6,107.6,0,0,1-11.27-6.36,135.26,135.26,0,0,1-11.5-8.31c-4.11-3.3-7.89-6.71-11.31-10C17.08,82,13.39,78,10.36,74.51a150,150,0,0,1-9.45-12h0a6.35,6.35,0,0,1-.39-.68,6.27,6.27,0,0,1-.29-.74l0-.07h0a5.59,5.59,0,0,1-.15-.71A5.12,5.12,0,0,1,0,59.54a5.35,5.35,0,0,1,.06-.79h0A5,5,0,0,1,.23,58l.1-.35h0c.05-.13.11-.26.16-.38a5.17,5.17,0,0,1,.39-.68h0l.68-1,.28-.41,0,0c1.49-2,4.56-6.12,9-11.16,2.93-3.36,6.46-7.16,10.49-11.08,3.42-3.31,7.2-6.71,11.31-10a133.76,133.76,0,0,1,11.5-8.32A111.17,111.17,0,0,1,55.41,8.25,88.29,88.29,0,0,1,66.62,3.69,76.21,76.21,0,0,1,77.76.92a66.1,66.1,0,0,1,22,0,76.66,76.66,0,0,1,11.15,2.77A88.9,88.9,0,0,1,122.1,8.25a112.27,112.27,0,0,1,11.26,6.36,135,135,0,0,1,12.26,8.94c3.82,3.1,7.34,6.29,10.54,9.39ZM69.84,105.81a65.29,65.29,0,0,0,9.55,2.36,58.14,58.14,0,0,0,9.36.78,57.1,57.1,0,0,0,9.64-.83,65.92,65.92,0,0,0,9.31-2.3,80.09,80.09,0,0,0,9.77-3.94,99.44,99.44,0,0,0,9.9-5.5,121.17,121.17,0,0,0,9.95-7c3.55-2.77,6.87-5.65,9.93-8.5,3.67-3.43,6.95-6.8,9.77-9.89,3.91-4.28,7-8,9-10.63l.6-.78-.6-.78c-2-2.6-5.09-6.36-9-10.64-2.82-3.09-6.1-6.46-9.78-9.89l-.35-.32h0c-3-2.74-6.16-5.5-9.57-8.16-3.15-2.46-6.49-4.84-10-7a96.4,96.4,0,0,0-9.9-5.5,80.09,80.09,0,0,0-9.77-3.94,66.56,66.56,0,0,0-9.55-2.35,57,57,0,0,0-9.36-.78,58.25,58.25,0,0,0-9.64.82,65.82,65.82,0,0,0-9.3,2.31A78.82,78.82,0,0,0,60,17.21a97.62,97.62,0,0,0-9.91,5.5,120.47,120.47,0,0,0-10,7c-3.55,2.77-6.87,5.65-9.92,8.5-3.68,3.43-7,6.8-9.77,9.88-3.92,4.29-7,8-9,10.64l-.61.78.61.78c2,2.6,5.09,6.37,9,10.65,2.83,3.08,6.1,6.45,9.77,9.87,3.06,2.85,6.38,5.73,9.93,8.5a119.15,119.15,0,0,0,10,7,98.41,98.41,0,0,0,9.9,5.51,77.71,77.71,0,0,0,9.76,3.93ZM80,80.83a23.77,23.77,0,0,0,4.3,1.3,23.18,23.18,0,0,0,9,0,23.77,23.77,0,0,0,4.3-1.3,22.86,22.86,0,0,0,7.18-4.72l.3-.29a24,24,0,0,0,2.87-3.5,22.7,22.7,0,0,0,2.13-4,22.78,22.78,0,0,0,1.75-8.8,23.65,23.65,0,0,0-.44-4.49,23,23,0,0,0-1.31-4.3,22.7,22.7,0,0,0-2.13-4,23.44,23.44,0,0,0-2.87-3.5h0a23.27,23.27,0,0,0-7.48-5,22.27,22.27,0,0,0-4.3-1.3,23.18,23.18,0,0,0-9,0,22.27,22.27,0,0,0-4.3,1.3,23.17,23.17,0,0,0-7.48,5v0h0a22.91,22.91,0,0,0-2.86,3.49,22.65,22.65,0,0,0-2.13,4,22.27,22.27,0,0,0-1.3,4.3,23.18,23.18,0,0,0,0,9,22.27,22.27,0,0,0,1.3,4.3,23.38,23.38,0,0,0,2.13,4,24,24,0,0,0,2.88,3.5l.31.31A22.57,22.57,0,0,0,76,78.7a23.33,23.33,0,0,0,4,2.13Z" style="fill-rule:evenodd"/></g></g></svg>